<svg xmlns="http://www.w3.org/2000/svg" width="20.012" height="15.01" viewBox="0 0 20.012 15.01">
  <g id="Grupo_17" data-name="Grupo 17" transform="translate(-5.994 -8.496)">
    <path id="Caminho_199" data-name="Caminho 199" d="M12,23.5a1,1,0,0,1-.71-.29l-5-5a1,1,0,0,1,1.42-1.42L12,21.09,24.29,8.79a1,1,0,1,1,1.42,1.42l-13,13A1,1,0,0,1,12,23.5Z" fill="#8c9eff"/>
    <path id="Caminho_200" data-name="Caminho 200" d="M6.29,18.21l5,5a1,1,0,0,0,1.42,0l13-13a1,1,0,0,0,0-1.42L12,22.5,6.29,16.79a1,1,0,0,0,0,1.42Z" fill="#5f7cf9"/>
  </g>
</svg>
