<svg xmlns="http://www.w3.org/2000/svg" width="133.176" height="83.331" viewBox="0 0 133.176 83.331">
  <g id="Grupo_12" data-name="Grupo 12" transform="translate(-1 -1001.366)">
    <path id="Caminho_158" data-name="Caminho 158" d="M70,1036.446v13a3.243,3.243,0,0,1-3.25,3.25h-13a3.243,3.243,0,0,1-3.25-3.25v-20.585H70v7.584Z" transform="translate(57.174 31.5)" fill="none"/>
    <path id="Caminho_159" data-name="Caminho 159" d="M2.5,1033.862a8.251,8.251,0,0,0,8.009,8.5H92a8.251,8.251,0,0,0,8.009-8.5H58.826a2.79,2.79,0,0,1-2.709,2.876H46.372a2.79,2.79,0,0,1-2.709-2.876Z" transform="translate(1.167 37.334)" fill="none"/>
    <path id="Caminho_160" data-name="Caminho 160" d="M6.5,1064.2v-52a4.324,4.324,0,0,1,4.334-4.333h71.5a4.317,4.317,0,0,1,4.334,4.333v52h-32.3l-1.794,2.878-5.993.1-5.616.035-2.036-3.013Z" transform="translate(5.834 6.997)" fill="none"/>
    <rect id="Ret창ngulo_84" data-name="Ret창ngulo 84" width="67.171" height="43.336" transform="translate(18.835 1021.359)" fill="none"/>
    <path id="Caminho_161" data-name="Caminho 161" d="M76.671,1010.862V1054.2H9.5Z" transform="translate(9.335 10.497)" fill="none"/>
    <path id="Caminho_162" data-name="Caminho 162" d="M6.5,1064.2v-52a4.324,4.324,0,0,1,4.334-4.333h71.5a4.317,4.317,0,0,1,4.334,4.333v52" transform="translate(5.834 6.997)" fill="none" stroke="#f7a600" stroke-width="1"/>
    <path id="Caminho_163" data-name="Caminho 163" d="M2.5,1033.862a8.251,8.251,0,0,0,8.009,8.5H92a8.251,8.251,0,0,0,8.009-8.5H58.826a2.79,2.79,0,0,1-2.709,2.876H46.372a2.79,2.79,0,0,1-2.709-2.876Z" transform="translate(1.167 37.334)" fill="none" stroke="#f7a600" stroke-linecap="round" stroke-linejoin="round" stroke-width="1"/>
    <rect id="Ret창ngulo_85" data-name="Ret창ngulo 85" width="67.171" height="43.336" transform="translate(18.835 1021.359)" fill="none" stroke="#f7a600" stroke-linecap="round" stroke-linejoin="round" stroke-width="1"/>
    <path id="Caminho_164" data-name="Caminho 164" d="M59.75,1030.862h2.709a3.243,3.243,0,0,1,3.25,3.25v6.5a3.243,3.243,0,0,1-3.25,3.25H59.75" transform="translate(67.967 33.833)" fill="none" stroke="#f7a600" stroke-linecap="round" stroke-linejoin="round" stroke-width="1"/>
    <path id="Caminho_165" data-name="Caminho 165" d="M55.274,1028.7a1.083,1.083,0,1,0,0,2.167h6.484a1.083,1.083,0,1,0,0-2.167Zm-2.168-4.334a1.084,1.084,0,1,0,0,2.167H68.258a1.084,1.084,0,1,0,0-2.167Z" transform="translate(58.932 26.252)" fill="none"/>
    <path id="Caminho_166" data-name="Caminho 166" d="M59.824,1028.867a1.084,1.084,0,0,1-.03,2.167h4.321a1.084,1.084,0,0,1-.076-2.167H59.824Zm-8.711-6.5a1.084,1.084,0,1,0,0,2.167H53.28a1.084,1.084,0,1,0,0-2.167Zm6.5,0a1.083,1.083,0,1,0,0,2.167H68.447a1.083,1.083,0,1,0,0-2.167Z" transform="translate(56.607 23.919)" fill="none"/>
    <path id="Caminho_167" data-name="Caminho 167" d="M56.09,1022.365a1.083,1.083,0,1,0,0,2.167H66.924a1.083,1.083,0,1,0,0-2.167Z" transform="translate(62.432 23.919)" fill="none"/>
    <path id="Caminho_168" data-name="Caminho 168" d="M54.044,1023.366a1.084,1.084,0,0,1-.03,2.167h4.321a1.084,1.084,0,0,1-.076-2.167H54.044Zm6.513,0a1.084,1.084,0,0,1-.03,2.167h4.321a1.084,1.084,0,0,1-.076-2.167H60.557Zm3.193,6.5a1.084,1.084,0,1,0,0,2.167h0a1.084,1.084,0,1,0,0-2.167Z" transform="translate(61.274 25.086)" fill="none"/>
    <path id="Caminho_169" data-name="Caminho 169" d="M49.66,1021.2v-4.333m-2.167,2.167h4.334" transform="translate(53.665 17.502)" fill="none" stroke="#f7a600" stroke-linecap="round" stroke-linejoin="round" stroke-width="1"/>
    <circle id="Elipse_63" data-name="Elipse 63" cx="1.083" cy="1.083" r="1.083" transform="translate(126.092 1039.786)" fill="none"/>
    <path id="Caminho_170" data-name="Caminho 170" d="M110.757,1021.348l3.064-3.064m-3.064,0,3.064,3.064M7.827,1012.7l-2.167-2.167m5.428,0v-2.151m-4.349,8.652H4.588m-2.007,45.507,3.064-3.064m-3.064,0,3.064,3.064M28.392,1006.2v-4.334m-2.167,2.167h4.334" transform="translate(1.261)" fill="none" stroke="#f7a600" stroke-linecap="round" stroke-linejoin="round" stroke-width="1"/>
    <circle id="Elipse_64" data-name="Elipse 64" cx="2.167" cy="2.167" r="2.167" transform="translate(1.5 1027.868)" fill="none" stroke="#f7a600" stroke-linecap="round" stroke-linejoin="round" stroke-width="1"/>
    <path id="Caminho_171" data-name="Caminho 171" d="M69.49,1036.446v13a3.243,3.243,0,0,1-3.25,3.25h-13a3.24,3.24,0,0,1-2.3-.95l18.551-22.885v7.584Z" transform="translate(57.685 31.5)" fill="none"/>
    <path id="Caminho_172" data-name="Caminho 172" d="M70,1036.446v13a3.243,3.243,0,0,1-3.25,3.25h-13a3.243,3.243,0,0,1-3.25-3.25v-20.585H70v7.584Z" transform="translate(57.174 31.5)" fill="none" stroke="#f7a600" stroke-linecap="round" stroke-linejoin="round" stroke-width="1"/>
  </g>
</svg>
