<svg xmlns="http://www.w3.org/2000/svg" width="100.651" height="75.843" viewBox="0 0 100.651 75.843">
  <g id="Grupo_8" data-name="Grupo 8" transform="translate(-584.959 -1787.459)">
    <path id="Caminho_109" data-name="Caminho 109" d="M629.5,1813.132v24.382a3.377,3.377,0,0,0,6.753,0v-24.382" transform="translate(30.286 17.185)" fill="none"/>
    <path id="Caminho_110" data-name="Caminho 110" d="M629.5,1816.762v18.356a3.377,3.377,0,0,0,6.753,0v-18.356C632.952,1818.669,632.425,1815.978,629.5,1816.762Z" transform="translate(30.286 19.581)" fill="none"/>
    <path id="Caminho_111" data-name="Caminho 111" d="M637.5,1813.132v24.382a3.377,3.377,0,0,0,6.753,0v-24.382" transform="translate(35.792 17.185)" fill="none"/>
    <circle id="Elipse_29" data-name="Elipse 29" cx="1.688" cy="1.688" r="1.688" transform="translate(640.794 1790.562)" fill="none"/>
    <circle id="Elipse_30" data-name="Elipse 30" cx="1.688" cy="1.688" r="1.688" transform="translate(602.383 1812.51)" fill="none"/>
    <path id="Caminho_112" data-name="Caminho 112" d="M615.437,1843.139a3.377,3.377,0,0,1-2.924,5.065H588.876a3.377,3.377,0,0,1-2.924-5.065h.008l11.358-20.26v-13.507h6.753v13.507c4.5,7.879,11.362,20.26,11.362,20.26Z" transform="translate(0 14.597)" fill="none"/>
    <path id="Caminho_113" data-name="Caminho 113" d="M596.6,833.72a7.275,7.275,0,0,0-3.067.831.844.844,0,0,1-1.065-.119l-6.5,11.6h-.01a3.377,3.377,0,0,0,2.925,5.065h23.636a3.377,3.377,0,0,0,2.925-5.065h0s-3.12-5.6-6.513-11.65a.846.846,0,0,1-.214.168,9.143,9.143,0,0,1-8.415.017,6.972,6.972,0,0,0-3.7-.847Z" transform="translate(0 1011.701)" fill="none"/>
    <path id="Caminho_114" data-name="Caminho 114" d="M615.437,1843.139a3.377,3.377,0,0,1-2.924,5.065H588.876a3.377,3.377,0,0,1-2.924-5.065h.008l11.358-20.26v-13.507h6.753v13.507c4.5,7.879,11.362,20.26,11.362,20.26Z" transform="translate(0 14.597)" fill="none" stroke="#f7a600" stroke-width="1"/>
    <path id="Caminho_115" data-name="Caminho 115" d="M617.695,1797.373v17.256a21.1,21.1,0,1,0,11.818,0v-17.256Z" transform="translate(11.702 6.337)" fill="none"/>
    <path id="Caminho_116" data-name="Caminho 116" d="M602.83,829.059a21.1,21.1,0,1,0,41.548,0Z" transform="translate(11.702 1008.498)" fill="none"/>
    <path id="Caminho_117" data-name="Caminho 117" d="M629.5,1813.132v24.382a3.377,3.377,0,0,0,6.753,0v-24.382" transform="translate(30.286 17.185)" fill="none" stroke="#f7a600" stroke-linecap="round" stroke-linejoin="round" stroke-width="1"/>
    <path id="Caminho_118" data-name="Caminho 118" d="M630.272,1814.862h26.633a3.369,3.369,0,0,1,3.377,3.377v21.948a3.369,3.369,0,0,1-3.377,3.377H624.828a3.369,3.369,0,0,1-3.257-2.479" transform="translate(24.828 18.375)" fill="none" stroke="#f7a600" stroke-linecap="round" stroke-linejoin="round" stroke-width="1"/>
    <path id="Caminho_119" data-name="Caminho 119" d="M617.695,1797.373v17.256a21.1,21.1,0,1,0,11.818,0v-17.256Z" transform="translate(11.702 6.337)" fill="none" stroke="#f7a600" stroke-linejoin="round" stroke-width="1"/>
    <rect id="Retângulo_25" data-name="Retângulo 25" width="18.571" height="3.377" rx="1" transform="translate(626.02 1800.334)" fill="none" stroke="#f7a600" stroke-width="1"/>
    <rect id="Retângulo_26" data-name="Retângulo 26" width="10.13" height="3.377" rx="1" transform="translate(595.63 1820.594)" fill="none" stroke="#f7a600" stroke-width="1"/>
    <rect id="Retângulo_27" data-name="Retângulo 27" width="11.818" height="1.688" rx="0.583" transform="translate(657.253 1829.017)" fill="none"/>
    <path id="Caminho_120" data-name="Caminho 120" d="M637.5,1818.166v16.118a3.377,3.377,0,0,0,6.753,0v-16.118C640.889,1820.108,639.859,1816.8,637.5,1818.166Z" transform="translate(35.792 20.416)" fill="none"/>
    <path id="Caminho_121" data-name="Caminho 121" d="M629.5,1816.862h3.377m-2.953,3.377h1.688m-2.112,3.376h3.377m-2.953,3.377h1.688m-2.112,3.376h3.377m-2.953,3.377h1.688" transform="translate(30.286 19.752)" fill="none" stroke="#f7a600" stroke-width="1"/>
    <circle id="Elipse_31" data-name="Elipse 31" cx="1.688" cy="1.688" r="1.688" transform="translate(605.76 1854.36)" fill="none"/>
    <circle id="Elipse_32" data-name="Elipse 32" cx="0.844" cy="0.844" r="0.844" transform="translate(593.098 1856.892)" fill="none"/>
    <circle id="Elipse_33" data-name="Elipse 33" cx="0.844" cy="0.844" r="0.844" transform="translate(601.119 1858.58)" fill="none"/>
    <circle id="Elipse_34" data-name="Elipse 34" cx="1.688" cy="1.688" r="1.688" transform="translate(594.362 1850.983)" fill="none"/>
    <circle id="Elipse_35" data-name="Elipse 35" cx="1.688" cy="1.688" r="1.688" transform="translate(605.76 1854.36)" fill="none" stroke="#f7a600" stroke-linecap="round" stroke-linejoin="round" stroke-width="1"/>
    <circle id="Elipse_36" data-name="Elipse 36" cx="1.688" cy="1.688" r="1.688" transform="translate(594.362 1850.983)" fill="none" stroke="#f7a600" stroke-linecap="round" stroke-linejoin="round" stroke-width="1"/>
    <circle id="Elipse_37" data-name="Elipse 37" cx="0.844" cy="0.844" r="0.844" transform="translate(602.807 1851.827)" fill="none"/>
    <circle id="Elipse_38" data-name="Elipse 38" cx="0.844" cy="0.844" r="0.844" transform="translate(601.539 1848.451)" fill="none"/>
    <circle id="Elipse_39" data-name="Elipse 39" cx="0.844" cy="0.844" r="0.844" transform="translate(628.132 1848.808)" fill="none"/>
    <circle id="Elipse_40" data-name="Elipse 40" cx="0.844" cy="0.844" r="0.844" transform="translate(631.508 1855.562)" fill="none"/>
    <circle id="Elipse_41" data-name="Elipse 41" cx="1.688" cy="1.688" r="1.688" transform="translate(636.15 1854.36)" fill="none"/>
    <circle id="Elipse_42" data-name="Elipse 42" cx="1.688" cy="1.688" r="1.688" transform="translate(636.15 1854.36)" fill="none" stroke="#f7a600" stroke-linecap="round" stroke-linejoin="round" stroke-width="1"/>
    <circle id="Elipse_43" data-name="Elipse 43" cx="1.688" cy="1.688" r="1.688" transform="translate(621.379 1845.432)" fill="none"/>
    <circle id="Elipse_44" data-name="Elipse 44" cx="1.688" cy="1.688" r="1.688" transform="translate(621.379 1845.432)" fill="none" stroke="#f7a600" stroke-linecap="round" stroke-linejoin="round" stroke-width="1"/>
    <circle id="Elipse_45" data-name="Elipse 45" cx="1.688" cy="1.688" r="1.688" transform="translate(651.768 1847.12) rotate(180)" fill="none"/>
    <circle id="Elipse_46" data-name="Elipse 46" cx="0.844" cy="0.844" r="0.844" transform="translate(638.262 1847.12) rotate(180)" fill="none"/>
    <circle id="Elipse_47" data-name="Elipse 47" cx="1.688" cy="1.688" r="1.688" transform="translate(651.768 1847.12) rotate(180)" fill="none" stroke="#f7a600" stroke-linecap="round" stroke-linejoin="round" stroke-width="1"/>
    <circle id="Elipse_48" data-name="Elipse 48" cx="0.844" cy="0.844" r="0.844" transform="translate(645.015 1848.808)" fill="none"/>
    <circle id="Elipse_49" data-name="Elipse 49" cx="1.688" cy="1.688" r="1.688" transform="translate(637.838 1827.347)" fill="none"/>
    <circle id="Elipse_50" data-name="Elipse 50" cx="1.688" cy="1.688" r="1.688" transform="translate(637.838 1827.347)" fill="none" stroke="#f7a600" stroke-linecap="round" stroke-linejoin="round" stroke-width="1"/>
    <circle id="Elipse_51" data-name="Elipse 51" cx="0.844" cy="0.844" r="0.844" transform="translate(634.885 1842.055) rotate(180)" fill="none"/>
    <circle id="Elipse_52" data-name="Elipse 52" cx="0.844" cy="0.844" r="0.844" transform="translate(628.552 1833.256) rotate(180)" fill="none"/>
    <circle id="Elipse_53" data-name="Elipse 53" cx="0.844" cy="0.844" r="0.844" transform="translate(634.885 1818.419) rotate(180)" fill="none"/>
    <circle id="Elipse_54" data-name="Elipse 54" cx="0.844" cy="0.844" r="0.844" transform="translate(638.262 1813.354) rotate(180)" fill="none"/>
    <path id="Caminho_122" data-name="Caminho 122" d="M610.608,1790.553l2.388-2.387m-2.388,0,2.388,2.387m-5.057,21.586v-3.376m-1.688,1.688h3.377" transform="translate(14.283 0)" fill="none" stroke="#f7a600" stroke-linecap="round" stroke-linejoin="round" stroke-width="1"/>
    <circle id="Elipse_55" data-name="Elipse 55" cx="1.688" cy="1.688" r="1.688" transform="translate(640.794 1790.562)" fill="none" stroke="#f7a600" stroke-linecap="round" stroke-linejoin="round" stroke-width="1"/>
    <circle id="Elipse_56" data-name="Elipse 56" cx="1.688" cy="1.688" r="1.688" transform="translate(602.383 1812.51)" fill="none" stroke="#f7a600" stroke-linecap="round" stroke-linejoin="round" stroke-width="1"/>
    <g id="Grupo_7" data-name="Grupo 7" transform="translate(649.244 1809.142)">
      <path id="Caminho_123" data-name="Caminho 123" d="M45.505,1006.867l1.671,1.671m3.394,3.394,1.671,1.671m0-6.736-1.671,1.671m-3.394,3.394-1.671,1.671" transform="translate(-45.505 -1006.867)" fill="none" stroke="#f7a600" stroke-linecap="round" stroke-linejoin="round" stroke-width="1"/>
    </g>
    <path id="Caminho_124" data-name="Caminho 124" d="M601.832,1821.274l2.388-2.387m-2.388,0,2.388,2.387m39.82-26.3,2.388-2.387m-2.388,0,2.388,2.387" transform="translate(11.242 3.045)" fill="none" stroke="#f7a600" stroke-linecap="round" stroke-linejoin="round" stroke-width="1"/>
    <circle id="Elipse_57" data-name="Elipse 57" cx="0.844" cy="0.844" r="0.844" transform="translate(664.851 1847.588) rotate(180)" fill="none"/>
    <circle id="Elipse_58" data-name="Elipse 58" cx="0.844" cy="0.844" r="0.844" transform="translate(664.007 1856.029) rotate(180)" fill="none"/>
    <circle id="Elipse_59" data-name="Elipse 59" cx="0.844" cy="0.844" r="0.844" transform="translate(664.007 1840.835) rotate(180)" fill="none"/>
    <path id="Caminho_125" data-name="Caminho 125" d="M590.005,1822.523a8.2,8.2,0,0,1,7.588,0,8.2,8.2,0,0,0,7.588,0" transform="translate(3.101 22.999)" fill="none" stroke="#f7a600" stroke-linecap="round" stroke-linejoin="round" stroke-width="1"/>
    <path id="Caminho_126" data-name="Caminho 126" d="M603,1817.373h40.519" transform="translate(12.046 20.104)" fill="none" stroke="#f7a600" stroke-width="1"/>
    <path id="Caminho_127" data-name="Caminho 127" d="M637.5,1813.132v24.382a3.377,3.377,0,0,0,6.753,0v-24.382" transform="translate(35.792 17.185)" fill="none" stroke="#f7a600" stroke-linecap="round" stroke-linejoin="round" stroke-width="1"/>
    <rect id="Retângulo_28" data-name="Retângulo 28" width="11.818" height="1.688" rx="0.583" transform="translate(670.76 1829.017)" fill="none"/>
    <path id="Caminho_128" data-name="Caminho 128" d="M637.5,1816.862h3.377m-2.953,3.377h1.688m-2.112,3.376h3.377m-2.953,3.377h1.688m-2.112,3.376h3.377m-2.953,3.377h1.688" transform="translate(35.792 19.752)" fill="none" stroke="#f7a600" stroke-width="1"/>
    <circle id="Elipse_60" data-name="Elipse 60" cx="0.844" cy="0.844" r="0.844" transform="translate(678.357 1847.588) rotate(180)" fill="none"/>
    <circle id="Elipse_61" data-name="Elipse 61" cx="0.844" cy="0.844" r="0.844" transform="translate(677.513 1856.029) rotate(180)" fill="none"/>
    <circle id="Elipse_62" data-name="Elipse 62" cx="0.844" cy="0.844" r="0.844" transform="translate(677.381 1841.865) rotate(180)" fill="none"/>
  </g>
</svg>
