<svg xmlns="http://www.w3.org/2000/svg" width="92.489" height="80.085" viewBox="0 0 92.489 80.085">
  <g id="Grupo_11" data-name="Grupo 11" transform="translate(-2 -994.362)">
    <path id="Caminho_129" data-name="Caminho 129" d="M36.309,1064.642H2.5v-69.78H39.974l7.495,7.753v29.3" fill="none"/>
    <path id="Caminho_130" data-name="Caminho 130" d="M36.309,1063.265H2.5l41.222-65.9,3.747,3.877v62.02Z" transform="translate(0 1.377)" fill="none"/>
    <rect id="Retângulo_29" data-name="Retângulo 29" width="6.203" height="6.203" transform="translate(7.152 1007.267)" fill="none"/>
    <rect id="Retângulo_30" data-name="Retângulo 30" width="6.203" height="6.203" transform="translate(7.152 1021.223)" fill="none"/>
    <rect id="Retângulo_31" data-name="Retângulo 31" width="6.203" height="6.203" transform="translate(7.152 1035.179)" fill="none"/>
    <g id="Grupo_9" data-name="Grupo 9" transform="translate(50.57 1005.717)">
      <rect id="Retângulo_32" data-name="Retângulo 32" width="43.418" height="7.753" fill="none"/>
      <rect id="Retângulo_33" data-name="Retângulo 33" width="1.551" height="3.101" transform="translate(2.326 5.427)" fill="none"/>
      <rect id="Retângulo_34" data-name="Retângulo 34" width="1.551" height="4.652" transform="translate(5.427 3.877)" fill="none"/>
      <rect id="Retângulo_35" data-name="Retângulo 35" width="1.551" height="3.101" transform="translate(8.529 5.427)" fill="none"/>
      <rect id="Retângulo_36" data-name="Retângulo 36" width="1.551" height="4.652" transform="translate(11.63 3.877)" fill="none"/>
      <rect id="Retângulo_37" data-name="Retângulo 37" width="1.551" height="3.101" transform="translate(14.731 5.427)" fill="none"/>
      <rect id="Retângulo_38" data-name="Retângulo 38" width="1.551" height="4.652" transform="translate(17.833 3.877)" fill="none"/>
      <rect id="Retângulo_39" data-name="Retângulo 39" width="1.551" height="3.101" transform="translate(20.934 5.427)" fill="none"/>
      <rect id="Retângulo_40" data-name="Retângulo 40" width="1.551" height="4.652" transform="translate(24.035 3.877)" fill="none"/>
      <rect id="Retângulo_41" data-name="Retângulo 41" width="1.551" height="3.101" transform="translate(27.137 5.427)" fill="none"/>
      <rect id="Retângulo_42" data-name="Retângulo 42" width="1.551" height="4.652" transform="translate(30.238 3.877)" fill="none"/>
      <rect id="Retângulo_43" data-name="Retângulo 43" width="1.551" height="3.101" transform="translate(33.339 5.427)" fill="none"/>
      <rect id="Retângulo_44" data-name="Retângulo 44" width="1.551" height="4.652" transform="translate(36.44 3.877)" fill="none"/>
      <rect id="Retângulo_45" data-name="Retângulo 45" width="1.551" height="3.101" transform="translate(39.542 5.427)" fill="none"/>
    </g>
    <path id="Caminho_131" data-name="Caminho 131" d="M77.222,1037.684v20.034a3.006,3.006,0,0,1-3.013,3.013h-46.7a3.006,3.006,0,0,1-3.013-3.013v-20.034m7.753-18.822h3.1a1.547,1.547,0,0,1,1.551,1.551v1.551H30.7v-1.551A1.547,1.547,0,0,1,32.253,1018.862Zm34.114,0h3.1a1.547,1.547,0,0,1,1.551,1.551v1.551h-6.2v-1.551A1.547,1.547,0,0,1,66.368,1018.862Z" transform="translate(12.114 13.216)" fill="none"/>
    <path id="Caminho_132" data-name="Caminho 132" d="M54.108,1023.065v-3.1a3.129,3.129,0,0,0-3.1-3.1H38.6a3.129,3.129,0,0,0-3.1,3.1v3.1m3.1,0v-3.1H51.007v3.1" transform="translate(18.172 12.115)" fill="none"/>
    <path id="Caminho_133" data-name="Caminho 133" d="M771.822,759.148l-12.045,23.045H792a3,3,0,0,0,3.013-3.01V759.148Z" transform="translate(-705.676 291.752)" fill="none"/>
    <g id="Grupo_10" data-name="Grupo 10" transform="translate(93.989 1024.314) rotate(180)">
      <path id="Caminho_134" data-name="Caminho 134" d="M0,6.2H3.1A1.547,1.547,0,0,0,4.652,4.652v-3.1A1.547,1.547,0,0,0,3.1,0H0" transform="translate(38.767)" fill="none"/>
      <path id="Caminho_135" data-name="Caminho 135" d="M0,6.2H3.118V0H0Z" transform="translate(35.614)" fill="none"/>
      <path id="Caminho_136" data-name="Caminho 136" d="M0,6.2H27.861V0H0Z" transform="translate(7.753)" fill="none"/>
      <path id="Caminho_137" data-name="Caminho 137" d="M7.753,6.2V0L0,3.1Z" fill="none"/>
      <path id="Caminho_138" data-name="Caminho 138" d="M27.912,0V6.2M0,6.2H31.013V0H0Zm31.013,0h3.1a1.547,1.547,0,0,0,1.551-1.551v-3.1A1.547,1.547,0,0,0,34.114,0h-3.1" transform="translate(7.753)" fill="none" stroke="#f7a600" stroke-linecap="round" stroke-linejoin="round" stroke-width="1"/>
      <path id="Caminho_139" data-name="Caminho 139" d="M0,0H27.912" transform="translate(7.753 3.101)" fill="none" stroke="#f7a600" stroke-width="1"/>
      <path id="Caminho_140" data-name="Caminho 140" d="M7.753,6.2V0L0,3.1Z" fill="none" stroke="#f7a600" stroke-linecap="round" stroke-linejoin="round" stroke-width="1"/>
    </g>
    <path id="Caminho_141" data-name="Caminho 141" d="M5.5,1029.862h6.2v6.2H5.5Z" transform="translate(1.652 19.273)" fill="none"/>
    <path id="Caminho_142" data-name="Caminho 142" d="M36.309,1064.642H2.5v-69.78H39.974l7.495,7.753v29.3" fill="none" stroke="#f7a600" stroke-linecap="round" stroke-linejoin="round" stroke-width="1"/>
    <path id="Caminho_143" data-name="Caminho 143" d="M26.5,994.862l7.753,7.753H26.5Z" transform="translate(13.216 0)" fill="none"/>
    <path id="Caminho_144" data-name="Caminho 144" d="M26.5,994.862l7.753,7.753H26.5Z" transform="translate(13.216 0)" fill="none" stroke="#f7a600" stroke-linecap="round" stroke-linejoin="round" stroke-width="1"/>
    <rect id="Retângulo_46" data-name="Retângulo 46" width="6.203" height="6.203" transform="translate(7.152 1007.267)" fill="none" stroke="#f7a600" stroke-linecap="round" stroke-linejoin="round" stroke-width="1"/>
    <rect id="Retângulo_47" data-name="Retângulo 47" width="17.057" height="3.101" transform="translate(16.456 999.514)" fill="none"/>
    <rect id="Retângulo_48" data-name="Retângulo 48" width="17.057" height="3.101" transform="translate(16.456 999.514)" fill="none" stroke="#f7a600" stroke-linecap="round" stroke-linejoin="round" stroke-width="1"/>
    <rect id="Retângulo_49" data-name="Retângulo 49" width="6.203" height="6.203" transform="translate(7.152 1021.223)" fill="none" stroke="#f7a600" stroke-linecap="round" stroke-linejoin="round" stroke-width="1"/>
    <rect id="Retângulo_50" data-name="Retângulo 50" width="6.203" height="6.203" transform="translate(7.152 1035.179)" fill="none" stroke="#f7a600" stroke-linecap="round" stroke-linejoin="round" stroke-width="1"/>
    <path id="Caminho_145" data-name="Caminho 145" d="M734.134,758.01l-3.88,6.2h5.034v-6.2Z" transform="translate(-721.933 291.125)" fill="none"/>
    <rect id="Retângulo_51" data-name="Retângulo 51" width="6.203" height="6.203" transform="translate(7.152 1049.135)" fill="none" stroke="#f7a600" stroke-linecap="round" stroke-linejoin="round" stroke-width="1"/>
    <rect id="Retângulo_52" data-name="Retângulo 52" width="9.304" height="3.101" transform="translate(18.007 1007.267)" fill="none"/>
    <rect id="Retângulo_53" data-name="Retângulo 53" width="9.304" height="3.101" transform="translate(18.007 1007.267)" fill="none" stroke="#f7a600" stroke-linecap="round" stroke-linejoin="round" stroke-width="1"/>
    <rect id="Retângulo_54" data-name="Retângulo 54" width="10.855" height="3.101" transform="translate(18.007 1021.223)" fill="none"/>
    <rect id="Retângulo_55" data-name="Retângulo 55" width="26.361" height="1.551" rx="0.5" transform="translate(17.231 1012.695)" fill="none"/>
    <rect id="Retângulo_56" data-name="Retângulo 56" width="9.304" height="3.101" transform="translate(18.007 1035.179)" fill="none"/>
    <rect id="Retângulo_57" data-name="Retângulo 57" width="17.057" height="1.551" rx="0.5" transform="translate(17.231 1015.796)" fill="none"/>
    <rect id="Retângulo_58" data-name="Retângulo 58" width="10.855" height="3.101" transform="translate(18.007 1049.135)" fill="none"/>
    <rect id="Retângulo_59" data-name="Retângulo 59" width="10.855" height="3.101" transform="translate(18.007 1021.223)" fill="none" stroke="#f7a600" stroke-linecap="round" stroke-linejoin="round" stroke-width="1"/>
    <rect id="Retângulo_60" data-name="Retângulo 60" width="26.361" height="1.551" rx="0.5" transform="translate(17.231 1026.65)" fill="none"/>
    <rect id="Retângulo_61" data-name="Retângulo 61" width="15.507" height="1.551" rx="0.5" transform="translate(17.231 1029.752)" fill="none"/>
    <path id="Caminho_146" data-name="Caminho 146" d="M736.5,749.01v3.1h.981l1.941-3.1Z" transform="translate(-718.493 286.169)" fill="none"/>
    <rect id="Retângulo_62" data-name="Retângulo 62" width="9.304" height="3.101" transform="translate(18.007 1035.179)" fill="none" stroke="#f7a600" stroke-linecap="round" stroke-linejoin="round" stroke-width="1"/>
    <rect id="Retângulo_63" data-name="Retângulo 63" width="18.608" height="1.551" rx="0.5" transform="translate(17.231 1040.606)" fill="none"/>
    <rect id="Retângulo_64" data-name="Retângulo 64" width="12.405" height="1.551" rx="0.5" transform="translate(17.231 1043.708)" fill="none"/>
    <rect id="Retângulo_65" data-name="Retângulo 65" width="10.855" height="3.101" transform="translate(18.007 1049.135)" fill="none" stroke="#f7a600" stroke-linecap="round" stroke-linejoin="round" stroke-width="1"/>
    <rect id="Retângulo_66" data-name="Retângulo 66" width="20.159" height="1.679" rx="0.5" transform="translate(17.231 1054.562)" fill="none"/>
    <rect id="Retângulo_67" data-name="Retângulo 67" width="17.057" height="1.551" rx="0.5" transform="translate(17.231 1057.664)" fill="none"/>
    <path id="Caminho_147" data-name="Caminho 147" d="M54.108,1023.065v-3.1a3.129,3.129,0,0,0-3.1-3.1H38.6a3.129,3.129,0,0,0-3.1,3.1v3.1m3.1,0v-3.1H51.007v3.1" transform="translate(18.172 12.115)" fill="none" stroke="#f7a600" stroke-linecap="round" stroke-linejoin="round" stroke-width="1"/>
    <path id="Caminho_148" data-name="Caminho 148" d="M30.051,1018.862h3.1a1.547,1.547,0,0,1,1.551,1.551v1.551H28.5v-1.551A1.547,1.547,0,0,1,30.051,1018.862Z" transform="translate(14.317 13.216)" fill="none" stroke="#f7a600" stroke-linecap="round" stroke-linejoin="round" stroke-width="1"/>
    <path id="Caminho_149" data-name="Caminho 149" d="M51.5,1033l3.1-.685v21.015H51.5Z" transform="translate(26.982 20.621)" fill="none"/>
    <path id="Caminho_150" data-name="Caminho 150" d="M77.222,1031v20.034a3.006,3.006,0,0,1-3.013,3.013h-46.7a3.006,3.006,0,0,1-3.013-3.013V1031" transform="translate(12.114 19.9)" fill="none" stroke="#f7a600" stroke-linecap="round" stroke-linejoin="round" stroke-width="1"/>
    <path id="Caminho_151" data-name="Caminho 151" d="M29.5,1032.311l3.1.685v20.33H29.5Z" transform="translate(14.868 20.621)" fill="none"/>
    <path id="Caminho_152" data-name="Caminho 152" d="M51.5,1033l3.1-.685v21.015H51.5Z" transform="translate(26.982 20.621)" fill="none" stroke="#f7a600" stroke-linecap="round" stroke-linejoin="round" stroke-width="1"/>
    <path id="Caminho_153" data-name="Caminho 153" d="M29.5,1032.311l3.1.685v20.33H29.5Z" transform="translate(14.868 20.621)" fill="none" stroke="#f7a600" stroke-linecap="round" stroke-linejoin="round" stroke-width="1"/>
    <path id="Caminho_154" data-name="Caminho 154" d="M25.009,1020.863H77.815a1.527,1.527,0,0,1,1.509,1.551v12.405a1.527,1.527,0,0,1-1.509,1.551l-26.4,6.2-26.4-6.2c-.814-.191-1.509-.692-1.509-1.551v-12.405a1.527,1.527,0,0,1,1.509-1.551Z" transform="translate(11.564 14.318)" fill="none"/>
    <path id="Caminho_155" data-name="Caminho 155" d="M776.87,749.01l-11.339,21.7,26.355-6.191a1.526,1.526,0,0,0,1.508-1.551V750.56a1.526,1.526,0,0,0-1.508-1.551Z" transform="translate(-702.507 286.169)" fill="none"/>
    <rect id="Retângulo_68" data-name="Retângulo 68" width="12.405" height="6.203" transform="translate(56.773 1041.383)" fill="none"/>
    <rect id="Retângulo_69" data-name="Retângulo 69" width="12.405" height="6.203" transform="translate(56.773 1041.383)" fill="none" stroke="#f7a600" stroke-linecap="round" stroke-linejoin="round" stroke-width="1"/>
    <path id="Caminho_156" data-name="Caminho 156" d="M25.009,1020.863H77.815a1.527,1.527,0,0,1,1.509,1.551v12.405a1.527,1.527,0,0,1-1.509,1.551l-26.4,6.2-26.4-6.2c-.814-.191-1.509-.692-1.509-1.551v-12.405a1.527,1.527,0,0,1,1.509-1.551Z" transform="translate(11.564 14.318)" fill="none" stroke="#f7a600" stroke-linecap="round" stroke-linejoin="round" stroke-width="1"/>
    <rect id="Retângulo_70" data-name="Retângulo 70" width="43.418" height="7.753" transform="translate(50.57 1005.717)" fill="none" stroke="#f7a600" stroke-linecap="round" stroke-linejoin="round" stroke-width="1"/>
    <rect id="Retângulo_71" data-name="Retângulo 71" width="1.551" height="3.101" transform="translate(52.896 1011.144)" fill="none"/>
    <rect id="Retângulo_72" data-name="Retângulo 72" width="1.551" height="4.652" transform="translate(55.998 1009.593)" fill="none"/>
    <rect id="Retângulo_73" data-name="Retângulo 73" width="1.551" height="3.101" transform="translate(59.099 1011.144)" fill="none"/>
    <rect id="Retângulo_74" data-name="Retângulo 74" width="1.551" height="4.652" transform="translate(62.2 1009.593)" fill="none"/>
    <rect id="Retângulo_75" data-name="Retângulo 75" width="1.551" height="3.101" transform="translate(65.302 1011.144)" fill="none"/>
    <rect id="Retângulo_76" data-name="Retângulo 76" width="1.551" height="4.652" transform="translate(68.403 1009.593)" fill="none"/>
    <rect id="Retângulo_77" data-name="Retângulo 77" width="1.551" height="3.101" transform="translate(71.504 1011.144)" fill="none"/>
    <rect id="Retângulo_78" data-name="Retângulo 78" width="1.551" height="4.652" transform="translate(74.606 1009.593)" fill="none"/>
    <rect id="Retângulo_79" data-name="Retângulo 79" width="1.551" height="3.101" transform="translate(77.707 1011.144)" fill="none"/>
    <rect id="Retângulo_80" data-name="Retângulo 80" width="1.551" height="4.652" transform="translate(80.808 1009.593)" fill="none"/>
    <rect id="Retângulo_81" data-name="Retângulo 81" width="1.551" height="3.101" transform="translate(83.91 1011.144)" fill="none"/>
    <rect id="Retângulo_82" data-name="Retângulo 82" width="1.551" height="4.652" transform="translate(87.011 1009.593)" fill="none"/>
    <rect id="Retângulo_83" data-name="Retângulo 83" width="1.551" height="3.101" transform="translate(90.112 1011.144)" fill="none"/>
    <path id="Caminho_157" data-name="Caminho 157" d="M52.051,1018.862h3.1a1.547,1.547,0,0,1,1.551,1.551v1.551H50.5v-1.551A1.547,1.547,0,0,1,52.051,1018.862Z" transform="translate(26.432 13.216)" fill="none" stroke="#f7a600" stroke-linecap="round" stroke-linejoin="round" stroke-width="1"/>
  </g>
</svg>
