<svg xmlns="http://www.w3.org/2000/svg" width="79.727" height="86.438" viewBox="0 0 79.727 86.438">
  <g id="Grupo_6" data-name="Grupo 6" transform="translate(-530.798 -1855.591)">
    <path id="Caminho_78" data-name="Caminho 78" d="M566.9,1900.645l10.766,5.34c2.163,1.073,4.346,1.985,4.346,4.45v13.531H542.9v-13.531c0-2.466,2.607-3.56,4.346-4.45s10.766-5.34,10.766-5.34" transform="translate(4.491 17.563)" fill="#12263a"/>
    <path id="Caminho_79" data-name="Caminho 79" d="M557.427,1902.223c.249.2,4.382-1.533,4.382-1.533l4.625,2.473s10.043,5.418,10.043,6.607v14.178H556.938" transform="translate(10.026 17.58)" fill="#12263a"/>
    <path id="Caminho_80" data-name="Caminho 80" d="M554.422,1900.644l4.548,2.021-3.638,3.537-3.591-4.168" transform="translate(7.977 17.562)" fill="#12263a"/>
    <path id="Caminho_81" data-name="Caminho 81" d="M553.664,1902.183v-4.742h9.1v4.742L558.212,1904Z" transform="translate(8.735 16.3)" fill="#12263a"/>
    <path id="Caminho_82" data-name="Caminho 82" d="M561.474,1900.644l-4.548,2.021,3.638,3.537,3.577-4.152" transform="translate(10.021 17.562)" fill="#12263a"/>
    <path id="Caminho_83" data-name="Caminho 83" d="M553.664,1902.183v-4.742h9.1Z" transform="translate(8.735 16.3)" fill="#12263a"/>
    <path id="Caminho_84" data-name="Caminho 84" d="M566.26,1886.59v9.572a7.277,7.277,0,1,1-14.553,0v-9.572" transform="translate(7.963 12.022)" fill="#12263a"/>
    <path id="Caminho_85" data-name="Caminho 85" d="M581.265,1904.372l-2.9,2.9a2.274,2.274,0,1,0-2.57,2.57l-2.9,2.9,8.365,8.365,8.365-8.365-2.9-2.9a2.276,2.276,0,1,1-2.57-2.57l-2.9-2.9Z" transform="translate(16.317 19.032)" fill="#12263a"/>
    <path id="Caminho_86" data-name="Caminho 86" d="M540.188,1856.091l-.741,2.766a4.918,4.918,0,0,0-1.125.153l-1.435-2.484-2.317,1.337,1.432,2.478a4.9,4.9,0,0,0-.689.9l-2.769-.741-.694,2.584,2.767.741a4.917,4.917,0,0,0,.153,1.128l-2.483,1.432,1.34,2.317,2.478-1.432a4.9,4.9,0,0,0,.9.692l-.743,2.769,2.584.692.743-2.766a4.911,4.911,0,0,0,1.125-.153l1.435,2.484,2.317-1.337-1.432-2.481a4.9,4.9,0,0,0,.689-.9l2.769.743.692-2.584-2.764-.741a4.906,4.906,0,0,0-.152-1.127l2.483-1.432-1.34-2.317-2.478,1.43a4.9,4.9,0,0,0-.9-.689l.741-2.77-2.584-.692Zm-.632,5.577a2.149,2.149,0,1,1-2.056,1.591,2.161,2.161,0,0,1,2.056-1.591Z" transform="translate(0.136 0)" fill="#12263a"/>
    <g id="Grupo_2" data-name="Grupo 2" transform="translate(572.122 1856.483)">
      <circle id="Elipse_21" data-name="Elipse 21" cx="2.437" cy="2.437" r="2.437" transform="matrix(0.966, -0.259, 0.259, 0.966, 4.001, 22.335)" fill="#12263a"/>
      <circle id="Elipse_22" data-name="Elipse 22" cx="1.624" cy="1.624" r="1.624" transform="matrix(0.966, -0.259, 0.259, 0.966, 0, 27.906)" fill="#12263a"/>
      <path id="Caminho_87" data-name="Caminho 87" d="M124.9,1013.868a7.21,7.21,0,0,0-2.254.269,7.649,7.649,0,0,0-4.554,3.636,5.894,5.894,0,0,0-3.086.032,6.514,6.514,0,0,0-4.592,6.44,4.577,4.577,0,0,0-2.333.043,5.133,5.133,0,0,0-3.415,6.241,4.841,4.841,0,0,0,5.3,3.732,5.349,5.349,0,0,0,.131.766,4.809,4.809,0,0,0,5.914,3.6,4.693,4.693,0,0,0,.928-.379,6.979,6.979,0,0,0,6.856,1.841,7.472,7.472,0,0,0,5.167-5.584,6.55,6.55,0,0,0,2.374-.214,7.332,7.332,0,0,0,4.877-8.917,7.162,7.162,0,0,0-4.129-4.882q-.057-.351-.142-.7a7.688,7.688,0,0,0-7.04-5.931Z" transform="translate(-98.558 -1013.862)" fill="#12263a"/>
      <path id="Caminho_88" data-name="Caminho 88" d="M121.174,1030.575v-3.01a5.416,5.416,0,1,0-5.054,0v3.01" transform="translate(-95.117 -1012.483)" fill="#12263a"/>
      <path id="Caminho_89" data-name="Caminho 89" d="M124.9,1013.868a7.21,7.21,0,0,0-2.254.269,7.649,7.649,0,0,0-4.554,3.636,5.894,5.894,0,0,0-3.086.032,6.514,6.514,0,0,0-4.592,6.44,4.577,4.577,0,0,0-2.333.043,5.133,5.133,0,0,0-3.415,6.241,4.841,4.841,0,0,0,5.3,3.732,5.349,5.349,0,0,0,.131.766,4.809,4.809,0,0,0,5.914,3.6,4.693,4.693,0,0,0,.928-.379,6.979,6.979,0,0,0,6.856,1.841,7.472,7.472,0,0,0,5.167-5.584,6.55,6.55,0,0,0,2.374-.214,7.332,7.332,0,0,0,4.877-8.917,7.162,7.162,0,0,0-4.129-4.882q-.057-.351-.142-.7a7.688,7.688,0,0,0-7.04-5.931Z" transform="translate(-98.558 -1013.862)" fill="#12263a" stroke="#f7a600" stroke-width="1"/>
      <circle id="Elipse_23" data-name="Elipse 23" cx="2.437" cy="2.437" r="2.437" transform="matrix(0.966, -0.259, 0.259, 0.966, 4.001, 22.335)" fill="#12263a" stroke="#f7a600" stroke-width="1"/>
      <circle id="Elipse_24" data-name="Elipse 24" cx="1.624" cy="1.624" r="1.624" transform="matrix(0.966, -0.259, 0.259, 0.966, 0, 27.906)" fill="#12263a" stroke="#f7a600" stroke-width="1"/>
      <path id="Caminho_90" data-name="Caminho 90" d="M121.174,1030.575v-3.01a5.416,5.416,0,1,0-5.054,0v3.01m2.366-5.535v5.055" transform="translate(-95.117 -1012.483)" fill="#12263a" stroke="#f7a600" stroke-linecap="round" stroke-linejoin="round" stroke-width="1"/>
      <rect id="Retângulo_21" data-name="Retângulo 21" width="6.971" height="2.788" transform="translate(19.884 18.124)" fill="#12263a"/>
      <path id="Caminho_91" data-name="Caminho 91" d="M116.894,1029.169v1.241a.7.7,0,0,1-1.394,0v-1.241a.7.7,0,0,1,1.394,0Z" transform="translate(-94.222 -1008.103)" fill="#12263a"/>
      <rect id="Retângulo_22" data-name="Retângulo 22" width="6.971" height="2.788" transform="translate(19.884 18.124)" fill="#12263a" stroke="#f7a600" stroke-linecap="round" stroke-linejoin="round" stroke-width="1"/>
      <path id="Caminho_92" data-name="Caminho 92" d="M118.539,1022.862h-2.4" transform="translate(-93.97 -1010.314)" fill="#12263a" stroke="#f7a600" stroke-linecap="round" stroke-linejoin="round" stroke-width="1"/>
      <path id="Caminho_93" data-name="Caminho 93" d="M118.894,1029.169v1.241a.7.7,0,0,1-1.394,0v-1.241a.7.7,0,0,1,1.394,0Z" transform="translate(-93.434 -1008.103)" fill="#12263a"/>
    </g>
    <path id="Caminho_94" data-name="Caminho 94" d="M544.91,1866.89v4.477a7.661,7.661,0,0,0-1.639.686l-3.17-3.17-2.957,2.957,3.164,3.164a7.677,7.677,0,0,0-.675,1.645H535.15v4.183h4.477a7.656,7.656,0,0,0,.686,1.639l-3.169,3.17,2.957,2.957,3.164-3.164a7.662,7.662,0,0,0,1.645.675v4.482h4.183v-4.477a7.653,7.653,0,0,0,1.639-.686l3.17,3.17,2.957-2.957-3.164-3.164a7.656,7.656,0,0,0,.675-1.645h4.482v-4.183h-4.477a7.667,7.667,0,0,0-.683-1.642l3.167-3.167-2.957-2.957-3.164,3.164a7.667,7.667,0,0,0-1.645-.675v-4.482H544.91Zm2.091,8.365a3.485,3.485,0,1,1-3.485,3.485A3.485,3.485,0,0,1,547,1875.255Z" transform="translate(1.437 4.257)" fill="#12263a"/>
    <path id="Caminho_95" data-name="Caminho 95" d="M546.211,1871.146v4.477a7.659,7.659,0,0,0-1.639.686l-3.17-3.17-2.957,2.957,3.164,3.164a7.678,7.678,0,0,0-.675,1.645h-4.482v4.182h4.477a7.651,7.651,0,0,0,.686,1.639l-3.169,3.17,2.957,2.957,3.164-3.164a7.655,7.655,0,0,0,1.645.675v4.482h4.183v-4.477a7.648,7.648,0,0,0,1.639-.686l3.17,3.17,2.957-2.957L555,1886.733a7.66,7.66,0,0,0,.675-1.645h4.482v-4.182h-4.477a7.662,7.662,0,0,0-.683-1.642l3.167-3.167-2.957-2.957-3.164,3.164a7.673,7.673,0,0,0-1.645-.675v-4.482h-4.183Zm2.091,8.365a3.485,3.485,0,1,1-3.485,3.485A3.485,3.485,0,0,1,548.3,1879.511Zm-8.115-23.421-.741,2.766a4.918,4.918,0,0,0-1.125.153l-1.435-2.484-2.317,1.337,1.432,2.478a4.9,4.9,0,0,0-.689.9l-2.769-.741-.694,2.584,2.767.741a4.917,4.917,0,0,0,.153,1.128l-2.483,1.432,1.34,2.317,2.478-1.432a4.9,4.9,0,0,0,.9.692l-.743,2.769,2.584.692.743-2.766a4.911,4.911,0,0,0,1.125-.153l1.435,2.484,2.317-1.337-1.432-2.481a4.9,4.9,0,0,0,.689-.9l2.769.743.692-2.584-2.764-.741a4.906,4.906,0,0,0-.152-1.127l2.483-1.432-1.34-2.317-2.478,1.43a4.9,4.9,0,0,0-.9-.689l.741-2.77-2.584-.692Zm-.632,5.577a2.149,2.149,0,1,1-2.056,1.591,2.161,2.161,0,0,1,2.056-1.591Z" transform="translate(0.136 0)" fill="#12263a" stroke="#f7a600" stroke-linecap="round" stroke-linejoin="round" stroke-width="1"/>
    <path id="Caminho_96" data-name="Caminho 96" d="M566.47,1886.59v2.34l-15.294,7.232.741-9.572" transform="translate(7.754 12.022)" fill="#12263a"/>
    <ellipse id="Elipse_25" data-name="Elipse 25" cx="0.696" cy="0.697" rx="0.696" ry="0.697" transform="translate(569.399 1905.266)" fill="#12263a"/>
    <ellipse id="Elipse_26" data-name="Elipse 26" cx="0.696" cy="0.697" rx="0.696" ry="0.697" transform="translate(563.033 1905.266)" fill="#12263a"/>
    <path id="Caminho_97" data-name="Caminho 97" d="M566.9,1900.645l10.766,5.34c2.163,1.073,4.346,1.985,4.346,4.45v13.531H542.9v-13.531c0-2.466,2.607-3.56,4.346-4.45s10.766-5.34,10.766-5.34" transform="translate(4.491 17.563)" fill="#12263a" stroke="#f7a600" stroke-width="1"/>
    <path id="Caminho_98" data-name="Caminho 98" d="M558.34,1893.32v1.821m-5-3.551a2.139,2.139,0,0,1,3.632,0m2.735,0a2.139,2.139,0,0,1,3.632,0m-.452,8.864v4.157m-9.1,0v-4.157" transform="translate(8.607 13.596)" fill="#12263a" stroke="#f7a600" stroke-linecap="round" stroke-linejoin="round" stroke-width="1"/>
    <path id="Caminho_99" data-name="Caminho 99" d="M566.26,1891.5v2.733a7.277,7.277,0,1,1-14.553,0V1891.5" transform="translate(7.963 13.956)" fill="#12263a" stroke="#f7a600" stroke-width="1"/>
    <path id="Caminho_100" data-name="Caminho 100" d="M559.335,1904.308l1.675,12.346-3.183,4.41-3.184-4.41,1.674-12.343" transform="translate(9.121 19.006)" fill="#12263a" stroke="#f7a600" stroke-linecap="round" stroke-linejoin="round" stroke-width="1"/>
    <rect id="Retângulo_23" data-name="Retângulo 23" width="1.394" height="9.111" transform="translate(553.303 1932.828)" fill="#12263a"/>
    <rect id="Retângulo_24" data-name="Retângulo 24" width="1.394" height="9.111" transform="translate(579.681 1932.828)" fill="#12263a"/>
    <path id="Caminho_101" data-name="Caminho 101" d="M555.3,1904.405l2.274-2.389,2.274,2.389-.761.8h-3.028Z" transform="translate(9.378 18.103)" fill="#12263a" stroke="#f7a600" stroke-linecap="round" stroke-linejoin="round" stroke-width="1"/>
    <path id="Caminho_102" data-name="Caminho 102" d="M554.515,1904.5l4.455,2.129-3.638,3.537L551.741,1906m11.777-1.5-4.548,2.129,3.638,3.537,3.577-4.152m-7.215-12.7v1.821m-5-3.551a2.139,2.139,0,0,1,3.632,0m2.735,0a2.139,2.139,0,0,1,3.632,0m-2.785,6.273a3.18,3.18,0,0,1-4.429.043" transform="translate(7.977 13.596)" fill="#12263a" stroke="#f7a600" stroke-linecap="round" stroke-linejoin="round" stroke-width="1"/>
    <g id="Grupo_3" data-name="Grupo 3" transform="translate(557.851 1891.875)">
      <path id="Caminho_103" data-name="Caminho 103" d="M288.327,139.84a9.1,9.1,0,0,0-7.277,14.562v-3.738a11.54,11.54,0,0,0,11.03-3.989,5.435,5.435,0,0,0,3.523,2.194v5.53a9.1,9.1,0,0,0-7.277-14.559Z" transform="translate(-279.232 -139.84)" fill="#12263a"/>
      <path id="Caminho_104" data-name="Caminho 104" d="M288.327,139.84a9.1,9.1,0,0,0-7.277,14.562v-3.738a11.54,11.54,0,0,0,11.03-3.989,5.435,5.435,0,0,0,3.523,2.194v5.53a9.1,9.1,0,0,0-7.277-14.559Z" transform="translate(-279.232 -139.84)" fill="#12263a" stroke="#f7a600" stroke-linecap="round" stroke-linejoin="round" stroke-width="1"/>
    </g>
    <path id="Caminho_105" data-name="Caminho 105" d="M595.283,1904.372l-2.9,2.9a2.274,2.274,0,1,0-2.57,2.57l-2.9,2.9,8.365,8.365,8.365-8.365-2.9-2.9a2.276,2.276,0,1,1-2.57-2.57l-2.9-2.9Zm-57.947,8.946h2.788m-1.394-1.394v2.788" transform="translate(2.299 19.032)" fill="#12263a" stroke="#f7a600" stroke-linecap="round" stroke-linejoin="round" stroke-width="1"/>
    <circle id="Elipse_27" data-name="Elipse 27" cx="1.394" cy="1.394" r="1.394" transform="translate(540.76 1903.545) rotate(30)" fill="#12263a" stroke="#f7a600" stroke-linecap="round" stroke-linejoin="round" stroke-width="1"/>
    <path id="Caminho_106" data-name="Caminho 106" d="M531.505,1899.652l.986.986m1.979,1.979.986.986m0-3.95-.986.986m-1.979,1.979-.986.986" transform="translate(0 17.171)" fill="#12263a" stroke="#f7a600" stroke-linecap="round" stroke-linejoin="round" stroke-width="1"/>
    <g id="Grupo_4" data-name="Grupo 4" transform="translate(585.343 1899.924)">
      <path id="Caminho_107" data-name="Caminho 107" d="M29.068,746.805v-1.013m0,0a1.987,1.987,0,0,1,1.181-1.716,1.572,1.572,0,0,0,.623-1.835,1.407,1.407,0,0,0-1.578-.977,1.494,1.494,0,0,0-1.171,1.5m.945,6.07h0" transform="translate(-28.124 -741.242)" fill="#12263a" stroke="#f7a600" stroke-linecap="round" stroke-linejoin="round" stroke-width="1"/>
    </g>
    <g id="Grupo_5" data-name="Grupo 5" transform="translate(606.788 1917.383) rotate(45)">
      <path id="Caminho_108" data-name="Caminho 108" d="M.945,5.563V4.551m0,0A1.987,1.987,0,0,1,2.126,2.835,1.572,1.572,0,0,0,2.749,1,1.407,1.407,0,0,0,1.171.023,1.494,1.494,0,0,0,0,1.519m.945,6.07h0" transform="translate(0 0)" fill="#12263a" stroke="#f7a600" stroke-linecap="round" stroke-linejoin="round" stroke-width="1"/>
    </g>
  </g>
</svg>
