<svg xmlns="http://www.w3.org/2000/svg" width="95.397" height="94.957" viewBox="0 0 95.397 94.957">
  <g id="Grupo_14" data-name="Grupo 14" transform="translate(-512.249 -1789.161)">
    <path id="Caminho_173" data-name="Caminho 173" d="M512.875,1853.109s5.419-23.86,14.388-24.705c6.342-.224,11.257,5.4,10.6,10.6-.892,8.978-24.992,14.1-24.992,14.1Z" transform="translate(0 30.508)" fill="none"/>
    <path id="Caminho_338" data-name="Caminho 338" d="M1.788,0A1.788,1.788,0,1,1,0,1.788,1.788,1.788,0,0,1,1.788,0Z" transform="translate(542.603 1813.967) rotate(45)" fill="none"/>
    <path id="Caminho_337" data-name="Caminho 337" d="M1.788,0A1.788,1.788,0,1,1,0,1.788,1.788,1.788,0,0,1,1.788,0Z" transform="matrix(-0.966, -0.259, 0.259, -0.966, 592.13, 1841.917)" fill="none"/>
    <path id="Caminho_174" data-name="Caminho 174" d="M535.09,1830a13.453,13.453,0,0,1,3.22,6.124l-2.844,1.5-4.42-4.36m-2.366-2.334-4.8-4.737,1.3-3.041a15.605,15.605,0,0,1,6.649,3.592" transform="translate(8.665 26.38)" fill="none"/>
    <path id="Caminho_175" data-name="Caminho 175" d="M536.844,1850.772a18.019,18.019,0,0,1,3.833,7.424c18.96-6.32,49.3-26.545,49.3-64.465h0c-37.921,0-58.145,30.336-64.465,49.3a17.986,17.986,0,0,1,7.393,3.808" transform="translate(9.951 3.205)" fill="none"/>
    <path id="Caminho_336" data-name="Caminho 336" d="M6.128,0A6.128,6.128,0,1,1,0,6.128,6.128,6.128,0,0,1,6.128,0Z" transform="matrix(0.259, 0.966, -0.966, 0.259, 580.123, 1813.336)" fill="none"/>
    <path id="Caminho_176" data-name="Caminho 176" d="M540.023,1812.413c-3.25,5.252-6.937,12.01-8.561,17.565-1.3-.515-1.251-1.276-3.784-1.287s-6.448,3.647-9.672,5.471c2.1-8.045,7.252-23.183,11.047-23.633,2.533-.775,8.845.528,10.97,1.884Z" transform="translate(4.041 16.253)" fill="none"/>
    <path id="Caminho_177" data-name="Caminho 177" d="M543.451,837.1s-16.068,7.98-13.7,9.892l3.942,3.935a18.022,18.022,0,0,1,3.834,7.423c14.029-4.676,34.274-16.972,43.861-38.409L543.451,837.1Z" transform="translate(13.103 1003.046)" fill="none"/>
    <path id="Caminho_178" data-name="Caminho 178" d="M559.385,1830.326c-5.157,3.112-12.021,6.917-17.58,8.531.513,1.3,1.264,1.264,1.281,3.786s-3.658,6.442-5.487,9.663c8.049-2.09,23.195-7.213,23.652-11.007.779-2.532-.513-8.846-1.866-10.973Zm-15.077-5.262c1.514-1.976,3.033-6.826,3.033-6.826s-4.847,1.522-6.825,3.034c-6.9,5.276-16.453,20.2-16.453,20.2s14.961-9.517,20.245-16.412Z" transform="translate(8.813 22.507)" fill="none"/>
    <circle id="Elipse_68" data-name="Elipse 68" cx="6.128" cy="6.128" r="6.128" transform="matrix(0.259, 0.966, -0.966, 0.259, 580.123, 1813.336)" fill="none" stroke="#f7a600" stroke-linecap="round" stroke-linejoin="round" stroke-width="1"/>
    <path id="Caminho_179" data-name="Caminho 179" d="M533.912,806.51a.894.894,0,1,0,0,1.788h.908a.894.894,0,0,1-.025,1.788h-2.681a.894.894,0,1,0,0,1.788h3.624a.894.894,0,0,1-.025,1.788H533.9a.894.894,0,1,0,0,1.788h5.349a.894.894,0,1,0,0-1.788h-.063a.894.894,0,0,1,.028-1.788h5.4a.894.894,0,1,0,0-1.788h-.971a.894.894,0,0,1,.028-1.788h2.73a.894.894,0,0,0,0-1.788H533.912ZM538.3,808.3h1.9a.894.894,0,0,1-.024,1.788h-1.9a.894.894,0,0,1,.028-1.788Z" transform="translate(14.439 992.466)" fill="none"/>
    <path id="Caminho_180" data-name="Caminho 180" d="M530.121,1794.873a.894.894,0,1,0,0,1.788h1.788a.894.894,0,1,0,0-1.788Zm14.276,7.15a.894.894,0,1,0,0,1.788h0a.894.894,0,1,0,0-1.788Z" transform="translate(12.869 4.104)" fill="none"/>
    <path id="Caminho_181" data-name="Caminho 181" d="M512.875,1853.109s5.419-23.86,14.388-24.705c6.342-.224,11.257,5.4,10.6,10.6-.892,8.978-24.992,14.1-24.992,14.1Z" transform="translate(0 30.508)" fill="none" stroke="#f7a600" stroke-width="1"/>
    <path id="Caminho_182" data-name="Caminho 182" d="M519.073,1841.651s.563-12.117,6.182-12.647c3.974-.139,7.053,3.383,6.644,6.644C531.34,1841.274,519.073,1841.651,519.073,1841.651Z" transform="translate(4.881 30.984)" fill="none"/>
    <path id="Caminho_183" data-name="Caminho 183" d="M519.073,1841.651s.563-12.117,6.182-12.647c3.974-.139,7.053,3.383,6.644,6.644C531.34,1841.274,519.073,1841.651,519.073,1841.651Z" transform="translate(4.881 30.984)" fill="none" stroke="#f7a600" stroke-width="1"/>
    <path id="Caminho_184" data-name="Caminho 184" d="M589.974,1793.73c-37.921,0-58.145,30.336-64.465,49.3a17.986,17.986,0,0,1,7.393,3.808m3.943,3.937a18.02,18.02,0,0,1,3.833,7.424c18.96-6.32,49.3-26.544,49.3-64.465h0" transform="translate(9.951 3.205)" fill="none" stroke="#f7a600" stroke-linecap="round" stroke-linejoin="round" stroke-width="1"/>
    <path id="Caminho_185" data-name="Caminho 185" d="M540.023,1812.413c-3.25,5.252-6.937,12.01-8.561,17.565-1.3-.515-1.251-1.276-3.784-1.287s-6.448,3.647-9.672,5.471c2.1-8.045,7.252-23.183,11.047-23.633,2.533-.775,8.845.528,10.97,1.884Zm24.134,24.167c-5.157,3.112-12.021,6.917-17.58,8.531.513,1.3,1.264,1.264,1.281,3.786s-3.658,6.442-5.487,9.663c8.049-2.09,23.195-7.213,23.652-11.007.779-2.532-.513-8.846-1.866-10.973Zm-24.443,3.55a13.453,13.453,0,0,1,3.22,6.124l-2.844,1.5-4.42-4.36m-2.366-2.334-4.8-4.737,1.3-3.041a15.605,15.605,0,0,1,6.649,3.592" transform="translate(4.041 16.253)" fill="none" stroke="#f7a600" stroke-linecap="round" stroke-linejoin="round" stroke-width="1"/>
    <path id="Caminho_186" data-name="Caminho 186" d="M551.082,1795.776c-1.238.441-2.458.906-3.642,1.415l20.19,20.19c.509-1.183.973-2.4,1.415-3.642Z" transform="translate(27.224 4.816)" fill="none"/>
    <path id="Caminho_187" data-name="Caminho 187" d="M569.493,1795.776c-1.238.441-2.458.906-3.642,1.415l20.19,20.19c.509-1.183.973-2.4,1.415-3.642Zm-25.184,46.979c1.514-1.976,3.033-6.826,3.033-6.826s-4.847,1.522-6.825,3.034c-6.9,5.276-16.453,20.2-16.453,20.2s14.961-9.517,20.245-16.412Z" transform="translate(8.813 4.816)" fill="none" stroke="#f7a600" stroke-linecap="round" stroke-linejoin="round" stroke-width="1"/>
    <g id="Grupo_13" data-name="Grupo 13" transform="translate(579.24 1851.332)">
      <path id="Caminho_188" data-name="Caminho 188" d="M554.61,835.8a.895.895,0,1,0,.091,1.788h.9a.894.894,0,0,1-.024,1.787H552.9a.894.894,0,1,0,0,1.788h3.624a.894.894,0,0,1-.024,1.787H554.69a.894.894,0,1,0,0,1.788h5.349a.894.894,0,1,0,0-1.788h-.063a.894.894,0,0,1,.024-1.788h5.4a.894.894,0,1,0,0-1.788h-.971a.894.894,0,0,1,.024-1.788h2.73a.894.894,0,0,0,0-1.788H554.7a.867.867,0,0,0-.091,0Zm4.473,1.788h1.9a.894.894,0,0,1-.024,1.787h-1.9a.894.894,0,0,1,.024-1.788Z" transform="translate(-548.431 -835.798)" fill="none"/>
      <path id="Caminho_189" data-name="Caminho 189" d="M79.921,1215.362a.894.894,0,1,0,0,1.788h1.788a.894.894,0,1,0,0-1.788Zm14.276,7.15a.894.894,0,1,0,0,1.788h0a.894.894,0,1,0,0-1.788Z" transform="translate(-79.014 -1215.361)" fill="none"/>
    </g>
    <path id="Caminho_190" data-name="Caminho 190" d="M553.25,1791.449h3.575m-1.788-1.788v3.575m-30.743,3.051,2.528-2.528m-2.528,0,2.528,2.528" transform="translate(8.994)" fill="none" stroke="#f7a600" stroke-linecap="round" stroke-linejoin="round" stroke-width="1"/>
    <circle id="Elipse_69" data-name="Elipse 69" cx="1.788" cy="1.788" r="1.788" transform="translate(542.603 1813.967) rotate(45)" fill="none" stroke="#f7a600" stroke-linecap="round" stroke-linejoin="round" stroke-width="1"/>
    <path id="Caminho_191" data-name="Caminho 191" d="M555.6,1842.19l-3.1,1.788m2.442.654-1.788-3.1m22.564-17.294-2.528,2.528m2.528,0-2.528-2.528" transform="translate(31.214 27.236)" fill="none" stroke="#f7a600" stroke-linecap="round" stroke-linejoin="round" stroke-width="1"/>
    <circle id="Elipse_70" data-name="Elipse 70" cx="1.788" cy="1.788" r="1.788" transform="matrix(-0.966, -0.259, 0.259, -0.966, 592.13, 1841.917)" fill="none" stroke="#f7a600" stroke-linecap="round" stroke-linejoin="round" stroke-width="1"/>
    <path id="Caminho_192" data-name="Caminho 192" d="M564.625,1799.633q-2.553,1.4-4.913,2.984t-4.532,3.328q-2.171,1.74-4.156,3.612t-3.786,3.834l-1.681,1.963m-1.74,2.031q-.405.506-.8,1.017m-1.531,2.048q-.372.514-.732,1.03m-19.187,12.674q.267-.7.541-1.389m1.292-3.036q.292-.64.587-1.243l1.469-2.694c1.133-1.827,2.253-3.014,3.276-3.136a9.569,9.569,0,0,1,3.328-.171" transform="translate(6.848 7.854)" fill="none" stroke="#f7a600" stroke-linecap="round" stroke-linejoin="round" stroke-width="1"/>
  </g>
</svg>
