<svg xmlns="http://www.w3.org/2000/svg" viewBox="0 0 55.363 64">
  <path id="Caminho_344" data-name="Caminho 344" d="M41.55,20.1a1.185,1.185,0,0,0,1.17-.39,1.225,1.225,0,0,0,.16-1.3L34.1,1.72A1.192,1.192,0,0,0,33,1a1.171,1.171,0,0,0-1.07.65l-8.8,16.78a1.2,1.2,0,0,0,.13,1.26,1.172,1.172,0,0,0,1.18.42l4.7-1.04V31.71a22.674,22.674,0,0,0-8.17-4.55l2.26-2.98A1.161,1.161,0,0,0,23.27,23a1.2,1.2,0,0,0-1.04-.62L6.34,25.37a1.19,1.19,0,0,0-.96.78,1.16,1.16,0,0,0,.27,1.2L16.12,39.39l.08.09a1.178,1.178,0,0,0,1.97-.81l.08-4.25a13.968,13.968,0,0,1,9.4,7.67,15.78,15.78,0,0,1,1.48,6.86v8.66H24.57V65H41.43V57.61H36.87V48.94a16.165,16.165,0,0,1,1.47-6.86,13.924,13.924,0,0,1,9.39-7.67l.09,4.32a1.146,1.146,0,0,0,.73.97,1.164,1.164,0,0,0,1.23-.23L60.34,27.35a1.168,1.168,0,0,0-.69-1.98L43.98,22.41l-.19-.02a1.181,1.181,0,0,0-.98,1.87l2.21,2.91a22.692,22.692,0,0,0-8.16,4.54V19.07ZM36.61,34.74a20.67,20.67,0,0,1,10.35-6.03l1.49-.36-2.72-3.58,12.21,2.31-8.15,9.37-.09-4.49-1.17.23a16.043,16.043,0,0,0-11.99,9.04,18.079,18.079,0,0,0-1.66,7.71V59.61h4.56V63H26.58V59.61h4.56V48.95a17.743,17.743,0,0,0-1.67-7.72,15.983,15.983,0,0,0-11.99-9.04l-1.17-.23-.09,4.49L8.07,27.08l12.2-2.3-2.72,3.58,1.49.36A20.686,20.686,0,0,1,29.4,34.76l1.73,1.87V16.58l-5.4,1.19L33,3.92l7.28,13.86-5.41-1.19V36.62Z" transform="translate(-5.314 -1)" fill="#f7a600"/>
</svg>
