<svg xmlns="http://www.w3.org/2000/svg" viewBox="0 0 65.885 65">
  <g id="Grupo_31" data-name="Grupo 31" transform="translate(-3.103 -3.5)">
    <path id="Caminho_346" data-name="Caminho 346" d="M67.625,56.738c-.033-.05.035.049,0,0l-19.8-28.571V5.42c0-1.105-.539-1.92-1.643-1.92h-19c-1.1,0-1.356.816-1.356,1.92v22.1L4.9,56.764c-.035.049-.217.277-.248.33-1.688,2.926-2.078,5.621-.785,7.86C5.177,67.215,7.786,68.5,11.218,68.5H60.669c3.429,0,6.118-1.287,7.424-3.551C69.389,62.7,69.313,59.666,67.625,56.738ZM29.137,29.3c.237-.338.687-.74.687-1.152V7.5h14V28.8c0,.412-.194.824.044,1.161l9.19,13.262c-3.056,1.232-6.822,2.05-14.531-2.557-5.585-3.337-12.5-2.048-17.2-.449L29.137,29.3ZM64.55,62.949c-.554.96-1.969,1.551-3.88,1.551H11.219c-1.915,0-3.33-.589-3.883-1.547-.532-.922-.324-2.391.571-3.975L19.194,43.2c3.942-1.7,12.219-4.454,18.308-.816,4.852,2.9,8.367,3.814,11.116,3.814a13.836,13.836,0,0,0,5.607-1.291L63.98,58.984C64.877,60.568,65.085,62.023,64.55,62.949Z" fill="#f7a600"/>
    <path id="Caminho_347" data-name="Caminho 347" d="M22.026,50.969A5.471,5.471,0,1,0,27.5,56.44a5.476,5.476,0,0,0-5.471-5.471Zm0,8.942A3.472,3.472,0,1,1,25.5,56.439,3.476,3.476,0,0,1,22.026,59.911Z" fill="#f7a600"/>
    <path id="Caminho_348" data-name="Caminho 348" d="M50.775,52.469A4.721,4.721,0,1,0,55.5,57.19a4.726,4.726,0,0,0-4.722-4.721Zm0,7.442A2.722,2.722,0,1,1,53.5,57.189,2.725,2.725,0,0,1,50.775,59.911Z" fill="#f7a600"/>
    <path id="Caminho_349" data-name="Caminho 349" d="M35.077,45.469A4.021,4.021,0,1,0,39.1,49.49,4.025,4.025,0,0,0,35.077,45.469Zm0,6.043A2.021,2.021,0,1,1,37.1,49.491,2.024,2.024,0,0,1,35.077,51.512Z" fill="#f7a600"/>
    <path id="Caminho_350" data-name="Caminho 350" d="M40.824,22.42a1,1,0,0,0,1-1v-11a1,1,0,0,0-2,0v11A1,1,0,0,0,40.824,22.42Z" fill="#f7a600"/>
    <path id="Caminho_351" data-name="Caminho 351" d="M40.824,27.42a1,1,0,0,0,1-1v-1a1,1,0,1,0-2,0v1A1,1,0,0,0,40.824,27.42Z" fill="#f7a600"/>
  </g>
</svg>
