<svg xmlns="http://www.w3.org/2000/svg" viewBox="0 0 84 66.015">
  <g id="Grupo_30" data-name="Grupo 30" transform="translate(-43 43)">
    <g id="_x37_7_Essential_Icons" transform="translate(35 -60)">
      <path id="Conversation" d="M90,17H42a2.006,2.006,0,0,0-2,2V33H10a2.006,2.006,0,0,0-2,2V67a2.006,2.006,0,0,0,2,2h8V81c0,3,2.9,1.9,3.4,1.4L34.8,69H58a2.006,2.006,0,0,0,2-2V53h5.3L78.6,66.4A1.991,1.991,0,0,0,82,65V53h8a2.006,2.006,0,0,0,2-2V19a2.006,2.006,0,0,0-2-2ZM56,65H34a1.974,1.974,0,0,0-1.4.6L22,76.2V67a2.006,2.006,0,0,0-2-2H12V37H40V51a2.006,2.006,0,0,0,2,2H56ZM88,49H80a2.006,2.006,0,0,0-2,2v9.2L67.5,49.6a1.974,1.974,0,0,0-1.4-.6H44V21H88Z" fill="#f7a600"/>
    </g>
  </g>
</svg>
