<svg xmlns="http://www.w3.org/2000/svg" width="32.356" height="32.355" viewBox="0 0 32.356 32.355">
  <path id="Icon_awesome-linkedin" data-name="Icon awesome-linkedin" d="M30.044,2.25H2.3A2.321,2.321,0,0,0,0,4.583v27.69a2.321,2.321,0,0,0,2.3,2.333H30.044a2.327,2.327,0,0,0,2.311-2.333V4.583A2.327,2.327,0,0,0,30.044,2.25ZM9.779,29.983h-4.8V14.542h4.8V29.983Zm-2.4-17.55a2.781,2.781,0,1,1,2.781-2.781,2.782,2.782,0,0,1-2.781,2.781Zm20.374,17.55h-4.8V22.472c0-1.791-.036-4.095-2.492-4.095-2.5,0-2.882,1.95-2.882,3.965v7.641h-4.8V14.542h4.6v2.109h.065A5.051,5.051,0,0,1,22,14.159c4.853,0,5.756,3.2,5.756,7.359Z" transform="translate(0 -2.25)" fill="#fff"/>
</svg>
