<svg xmlns="http://www.w3.org/2000/svg" viewBox="0 0 69.595 69.6">
  <path id="Caminho_355" data-name="Caminho 355" d="M68.385,1a1.143,1.143,0,0,0-.179.022,45.334,45.334,0,0,0-17.4,3.54q-.045.016-.089.036c-.049.021-.1.033-.152.054a1.143,1.143,0,0,0-.272.165c-.432.2-.907.449-1.415.728q-.045.018-.089.04c-.055.028-.106.061-.161.089-.22.122-.348.186-.558.3A61.4,61.4,0,0,0,29.3,21.6a11.416,11.416,0,0,0-3-.839v0c-3.855-.475-8.048.919-11.945,3.647C9.158,28.045,4.348,34.083,1.092,41.7a1.143,1.143,0,0,0,1.75,1.353c4.716-3.658,8.383-5.63,10.95-6.093a4.913,4.913,0,0,1,3.08.277A4.751,4.751,0,0,1,18.765,39c-.147.341-.329.686-.469,1.027a1.143,1.143,0,0,0,.25,1.245L21,43.728C18.87,46.94,16.674,50.6,14.3,54.7c0,0-.009,0-.013.022l-.027.049-.013.031-.009.022q-.02.044-.036.089l-.009.022q-.013.042-.022.085t-.022.112q-.005.033-.009.067t0,.045,0,.027a1.143,1.143,0,0,0,0,.116q0,.045.009.089l0,.022a1.143,1.143,0,0,0,.027.112q.015.052.036.1t.036.085q.022.048.049.094h0l.013.022q.025.037.054.071l.013.022q.03.037.062.071t.058.054l.022.027.018.022q.035.028.071.054l.018.022q.039.028.08.054a1.142,1.142,0,0,0,.1.054l.054.022.049.022h.022q.044.013.089.022t.08.022h.054q.047,0,.094,0h.018a1.142,1.142,0,0,0,.228-.022q.054-.011.107-.027a1.094,1.094,0,0,0,.237-.1.408.408,0,0,1,.071-.045C20,53.887,23.642,51.7,26.844,49.571l2.37,2.37a1.143,1.143,0,0,0,1.245.25c.334-.137.674-.316,1.009-.46,1.838,1.2,2.492,2.61,2.085,5-.441,2.591-2.384,6.277-6.04,10.99a1.143,1.143,0,0,0,1.353,1.75c7.619-3.255,13.656-8.066,17.293-13.262,3.471-4.959,4.739-10.389,2.79-15A61.191,61.191,0,0,0,64.523,22.8c.159-.278.256-.463.429-.763.36-.627.674-1.214.933-1.759a1.143,1.143,0,0,0,.1-.183s0-.009,0-.013c.019-.043.058-.1.076-.143a1.143,1.143,0,0,0,.076-.268A45.826,45.826,0,0,0,69.563,2.143,1.143,1.143,0,0,0,68.416,1h-.031ZM67.153,3.415a43.374,43.374,0,0,1-2.687,13.914L53.306,6.174A42.731,42.731,0,0,1,67.153,3.415ZM50.824,7.129l12.7,12.731c-.1.2-.221.415-.335.625l0,0a1.143,1.143,0,0,0-.1.17c-.2.386-.415.754-.62,1.134S62,22.6,61.845,22.9a1.146,1.146,0,0,0-.058.138C54.47,35.716,41.96,44.781,30.25,49.745l-1.5-1.5a55.492,55.492,0,0,0,5.183-4.009c4.294-3.865,6.729-7.975,6.187-12.664a1.143,1.143,0,0,0-.054-.246l-.022-.054a1.143,1.143,0,0,0-.487-.6l-.089-.054a1.143,1.143,0,0,0-.46-.161v-.022c-4.688-.542-8.806,1.895-12.673,6.187a55.381,55.381,0,0,0-4.017,5.191l-1.58-1.58c4.958-11.689,14-24,26.671-31.3a1.143,1.143,0,0,0,.147-.062C48.406,8.441,49.843,7.635,50.824,7.129Zm-2.888,9.856a5.64,5.64,0,1,0,4,1.647A5.642,5.642,0,0,0,47.936,16.985Zm0,2.272a3.368,3.368,0,1,1-2.384.991A3.352,3.352,0,0,1,47.936,19.257ZM23.97,23.033a12.346,12.346,0,0,1,3.576.714c-.374.509-.736,1.046-1.1,1.571-.028.039-.052.081-.08.121-.893,1.282-1.767,2.6-2.607,3.982-.708,1.146-1.354,2.3-1.986,3.455-.111.207-.225.407-.335.616-.619,1.161-1.2,2.316-1.741,3.477a6.782,6.782,0,0,0-1.839-1.8,7.289,7.289,0,0,0-4.468-.46c-2.221.4-4.858,1.816-7.745,3.687,2.89-5.125,6.3-9.513,10.021-12.119a18.1,18.1,0,0,1,7.031-3.138A6.75,6.75,0,0,1,23.97,23.033Zm13.673,9.892c-.029,3.311-1.622,6.344-5.236,9.6-3.242,2.918-8.126,6.021-13.735,9.37,3.346-5.612,6.446-10.5,9.365-13.74C31.292,34.539,34.328,32.952,37.642,32.925ZM46.82,43c1.121,3.55.424,7.679-2.531,11.9-2.61,3.729-7.01,7.143-12.146,10.035,1.873-2.909,3.282-5.571,3.665-7.816a6.835,6.835,0,0,0-2.317-6.312c1.2-.559,2.4-1.154,3.6-1.794.059-.031.115-.063.174-.094,1.06-.568,2.121-1.119,3.174-1.75A75.366,75.366,0,0,0,46.82,43ZM16.591,48.553,7.677,57.472l1.08,1.085,4.727-4.727C14.549,51.992,15.583,50.226,16.591,48.553Zm5.334,5.495c-1.674,1.009-3.439,2.044-5.276,3.111l-5.727,5.727,1.085,1.08ZM13.2,56.276,6.592,62.887l1.085,1.08,6.611-6.611a.217.217,0,0,1-.085-.036l-.027-.022-.107-.067.013.022c-.043-.025-.084-.055-.125-.085s-.1-.073-.143-.112l-.027-.027q-.028-.024-.054-.049h-.018l-.013-.022c-.016-.023-.034-.022-.049-.045l-.018-.027c-.019-.023-.04-.031-.058-.054-.034-.037-.067-.073-.1-.112l-.009-.027c-.04-.05-.071-.106-.107-.161a1.143,1.143,0,0,1-.138-.219A.2.2,0,0,0,13.2,56.276ZM6.592,58.557l-1.085,1.08,1.085,1.085,1.08-1.085Zm-1.085,5.41-1.08,1.085,1.08,1.08,1.085-1.08Zm4.33,0-1.08,1.085,1.08,1.08,1.085-1.08Z" transform="translate(-0.468 -0.5)" fill="#f7a600" stroke="#f7a600" stroke-width="1"/>
</svg>
