<svg xmlns="http://www.w3.org/2000/svg" viewBox="0 0 71 64.138">
  <path id="Caminho_354" data-name="Caminho 354" d="M5.622,64.543l17,6.947c.012.005.026,0,.038.007a.9.9,0,0,0,.68,0c.012,0,.026,0,.038-.007L40,64.7,56.622,71.49c.012.005.026,0,.038.007a.9.9,0,0,0,.68,0c.012,0,.026,0,.038-.007l17-6.947A1,1,0,0,0,75,63.617V44.169a.991.991,0,0,0-.05-.3c-.007-.023-.017-.043-.025-.066a.993.993,0,0,0-.158-.274c-.007-.008-.011-.017-.018-.025a1,1,0,0,0-.192-.17.968.968,0,0,0-.087-.044c-.012-.006-.019-.018-.031-.023L58,35.21V17.772a.991.991,0,0,0-.05-.3c-.007-.023-.017-.043-.025-.066a.993.993,0,0,0-.158-.274c-.007-.008-.011-.017-.018-.025a1,1,0,0,0-.192-.17c-.027-.018-.057-.028-.086-.043-.012-.006-.019-.018-.031-.024l-17-8.337a1,1,0,0,0-.881,0l-17,8.337c-.012.006-.019.017-.03.023a.963.963,0,0,0-.087.044,1,1,0,0,0-.192.17c-.007.008-.011.017-.018.025a.993.993,0,0,0-.158.274c-.009.022-.018.043-.025.066a.991.991,0,0,0-.05.3V35.21L5.56,43.271c-.012.006-.018.017-.03.023a.967.967,0,0,0-.087.044,1,1,0,0,0-.192.17c-.007.008-.011.017-.018.025a.993.993,0,0,0-.158.274c-.009.022-.018.043-.025.066a.991.991,0,0,0-.05.3V63.617A1,1,0,0,0,5.622,64.543ZM23,36.946l.756.371,13.8,6.769L23,50.036,8.44,44.086Zm34,13.09-14.56-5.95,13.8-6.769L57,36.946l14.56,7.14ZM56,35.21l-.254.124L41,42.563V25.392l15-6.13ZM39,42.563,24.254,35.334,24,35.21V19.262l15,6.13ZM7,45.658l15,6.13V69.075L7,62.945Zm17,6.13,15-6.13V62.945l-15,6.13Zm17-6.13,15,6.13V69.075l-15-6.13ZM73,62.945l-15,6.13V51.788l15-6.13ZM40,10.55l14.56,7.14L40,23.64l-14.56-5.95Z" transform="translate(-4.5 -7.927)" fill="#f7a600" stroke="#f7a600" stroke-width="1"/>
</svg>
