<svg xmlns="http://www.w3.org/2000/svg" width="39.699" height="32.242" viewBox="0 0 39.699 32.242">
  <path id="Icon_awesome-twitter" data-name="Icon awesome-twitter" d="M35.618,11.416c.025.353.025.705.025,1.058,0,10.756-8.187,23.149-23.149,23.149A22.993,22.993,0,0,1,0,31.971a16.831,16.831,0,0,0,1.965.1,16.3,16.3,0,0,0,10.1-3.476,8.151,8.151,0,0,1-7.607-5.642A10.261,10.261,0,0,0,6,23.079,8.605,8.605,0,0,0,8.136,22.8a8.137,8.137,0,0,1-6.524-7.985v-.1A8.194,8.194,0,0,0,5.29,15.749,8.148,8.148,0,0,1,2.771,4.867a23.127,23.127,0,0,0,16.776,8.514,9.185,9.185,0,0,1-.2-1.864A8.144,8.144,0,0,1,33.427,5.95a16.019,16.019,0,0,0,5.164-1.965,8.114,8.114,0,0,1-3.577,4.484A16.311,16.311,0,0,0,39.7,7.21a17.49,17.49,0,0,1-4.081,4.207Z" transform="translate(0 -3.381)" fill="#fff"/>
</svg>
