<svg xmlns="http://www.w3.org/2000/svg"  viewBox="0 0 49.975 66.88">
  <g id="_18-check_list" data-name="18-check list" transform="translate(-9.4 -4.513)">
    <path id="Caminho_352" data-name="Caminho 352" d="M59.358,16.026a1.95,1.95,0,0,0-.1-.428v-.154a1.438,1.438,0,0,0-.308-.479L49.38,4.867h0l-.137-.1a1.318,1.318,0,0,0-.359-.24H48.7a1.711,1.711,0,0,0-.411,0H11.111A1.711,1.711,0,0,0,9.4,6.237V69.682a1.711,1.711,0,0,0,1.711,1.711H57.664a1.711,1.711,0,0,0,1.711-1.711V16.146A.607.607,0,0,1,59.358,16.026Zm-9.567-5.682,3.885,4.09H49.791ZM12.823,67.97V7.76H46.368v8.386a1.711,1.711,0,0,0,1.711,1.711h7.873V67.97Z" transform="translate(0 0)" fill="#f7a600"/>
    <path id="Caminho_353" data-name="Caminho 353" d="M25.641,28.021h-9.79a1.711,1.711,0,0,0-1.711,1.711v9.755A1.711,1.711,0,0,0,15.851,41.2h9.79a1.711,1.711,0,0,0,1.711-1.711V29.732A1.711,1.711,0,0,0,25.641,28.021ZM23.93,37.793H17.563v-6.35H23.93Zm8.8-17.235H46.419a1.711,1.711,0,0,0,0-3.423H32.727a1.711,1.711,0,1,0,0,3.423ZM46.419,32.881H32.727a1.711,1.711,0,0,0,0,3.423H46.419a1.711,1.711,0,0,0,0-3.423ZM25.641,43.938h-9.79a1.711,1.711,0,0,0-1.711,1.711V55.4a1.711,1.711,0,0,0,1.711,1.711h9.79A1.711,1.711,0,0,0,27.353,55.4V45.649A1.711,1.711,0,0,0,25.641,43.938ZM23.93,53.71H17.563V47.36H23.93Zm24.2-4.895h-15.4a1.711,1.711,0,1,0,0,3.423h15.4a1.711,1.711,0,1,0,0-3.423ZM30.913,11.693a1.711,1.711,0,0,0-2.413-.12l-8.677,7.89-2.4-2.516a1.711,1.711,0,0,0-2.482,2.345L18.47,23.04a1.719,1.719,0,0,0,2.4.086l9.944-9a1.711,1.711,0,0,0,.1-2.43Z" transform="translate(3.372 4.71)" fill="#f7a600"/>
  </g>
</svg>
