<svg xmlns="http://www.w3.org/2000/svg" width="39.129" height="24.625" viewBox="0 0 39.129 24.625">
  <path id="Icon_zocial-email" data-name="Icon zocial-email" d="M.072,26.512V6.249q0-.035.113-.668l12.791,10.2L.223,27.216a2.8,2.8,0,0,1-.151-.7ZM1.77,4.174a1.731,1.731,0,0,1,.641-.106h34.45a2.278,2.278,0,0,1,.679.106L24.711,14.411l-1.7,1.266-3.358,2.568L16.3,15.677l-1.7-1.266Zm.038,24.414,12.867-11.5,4.981,3.764,4.981-3.764L37.5,28.588a1.93,1.93,0,0,1-.641.106H2.411a1.819,1.819,0,0,1-.6-.106ZM26.334,15.783l12.754-10.2a1.97,1.97,0,0,1,.113.668V26.512a2.527,2.527,0,0,1-.113.7Z" transform="translate(-0.072 -4.068)" fill="#fff"/>
</svg>
