<svg xmlns="http://www.w3.org/2000/svg" viewBox="0 0 50 40.88">
  <path id="Caminho_343" data-name="Caminho 343" d="M49.382,25.234c-1.56-4.591-5.915-7.331-11.652-7.331-.225,0-.44.005-.655.016l-.04-5.548,8.812-1.632c.287-.051.332-.32.272-.621s-.417-2.375-.47-2.625c-.068-.352-.255-.342-.517-.293s-8.125,1.24-8.125,1.24L36.974,2.85c0-.336-.172-.425-.485-.42l-2.562.043c-.262.005-.41.132-.4.4l.082,6.2s-7.652,1.417-7.86,1.46-.425.143-.377.385.475,2.942.52,3.152a.346.346,0,0,0,.47.288l7.31-1.355.088,5.427a11.631,11.631,0,0,0-5.64,3.5A12.181,12.181,0,0,0,25.1,29.906c0,4.265,2.427,6.8,5.82,7.248,7.9,1.041,12.8-8.23,14.422-12.681,2.742,4.05.64,11.71-5.235,16.083a.418.418,0,0,0-.083.557l1.547,2.033a.458.458,0,0,0,.64.062c6.275-4.653,9.152-12.143,7.172-17.974ZM30.917,33.808c-2.415-.325-2.36-2.458-2.36-3.908a8.981,8.981,0,0,1,2.19-5.8,7.994,7.994,0,0,1,3.072-2.149l.2,11.5a6.473,6.473,0,0,1-3.107.352Zm6.067-1.487L37.1,21.27c.21-.011.415-.027.63-.027a10.114,10.114,0,0,1,4.712.971C43.419,22.8,39.884,29.51,36.984,32.321ZM14.61,11.7a.5.5,0,0,0-.49-.39H9.245a.491.491,0,0,0-.485.387L.02,41.39c-.042.137-.027.2.155.2H4.507c.187,0,.247-.062.285-.194l2.52-8.924h8.74l2.52,8.924c.04.132.1.194.282.194H23.19c.18,0,.195-.067.155-.2S15.637,15.192,14.61,11.7ZM8.065,28.69l3.617-14.12L15.3,28.69H8.065Z" transform="translate(0 -2.43)" fill="#f7a600"/>
</svg>
