<svg version="1.2" xmlns="http://www.w3.org/2000/svg" viewBox="0 0 842 392" width="842" height="392">
	<title>NeuralShift_logo_vH04-ai</title>
	<style>
		.s0 { fill: #fafafa } 
		.s1 { fill: none } 
	</style>
	<g id="Layer 1">
		<g id="&lt;Group&gt;">
			<path id="&lt;Compound Path&gt;" fillRule="evenodd" class="s0" d="m308.9 274.8v-15.1h38.4l-39.4-42.8q0-10.6 10.5-10.6h51.3v15h-38.6l39.6 42.8q0.1 10.7-10.6 10.7zm273.8-54.6h-20.9v-13.9h56.8v13.9h-20.8v39.7q0 14.9-15.1 14.9zm-67.6-0.3v14.8h32.7v13.6h-32.7v26.5h-15.1v-68.5h52.2v13.6zm-33.7-13.6v68.5h-15.1v-68.5zm-34.8 0v68.5h-15.1h-6.6v-27.5h6.6v-41zm-21.7 27.1v13.9h-21.1v27.5h-15v-68.5h15v27.1zm174.6-48.4h-17.5l-14.7-21.9h-11.8v21.9h-15v-68.3h31.2q13 0 19.9 6.9q5.9 5.8 5.9 15.6v0.2q0 8.3-4.1 13.5q-4 5.3-10.6 7.7zm-17.2-45q0-4.9-3.2-7.3q-3.1-2.5-8.7-2.5h-14.9v19.6h15.2q5.6 0 8.6-2.6q3-2.6 3-7zm96.7 45h-22.4l-6.5-15.3h-22l-6.2 15.3h-15.4l29.3-68.8h13.9zm-21.8-15.4l-6.3-15l-8.3-20.4l-9.1 22.1h11l5.6 13.3zm33.4-38.4q0-15 15-15.1v55.3h34.1v13.6h-49.1zm-197.1 54.8q-13.8 0-21.7-7.6q-7.9-7.6-7.9-22.8v-39h15v38.6q0 8.4 3.9 12.7q3.9 4.2 10.9 4.2q6.9 0 10.8-4.1q3.9-4.1 3.9-12.3v-39.1h15v38.5q0 7.9-2.1 13.6q-2.1 5.8-6 9.6q-3.9 3.9-9.4 5.8q-5.6 1.9-12.4 1.9zm-46.9-28.3h-57.8v-13.9h57.8zm0 27.3h-57.8v-15h57.8zm0-53.4h-57.8v-15h57.8zm-137.7-1.8q0-13.7 13.9-13.7l32 43v-42.6h14.9v56q0 12.8-12.8 12.8l-33.1-44.4v44h-14.9z" />
			<path id="&lt;Compound Path&gt;" fillRule="evenodd" class="s0" d="m228.5 206.4q0 50.8 0 55.4c0 0.4 0 0.9-0.1 1.3q-0.6 2-2.6 2.5q-4.3 1.2-8.5 2.3q-24.9 6.7-49.8 13.4q-15.4 4.1-30.8 8.3c-2.2 0.5-4-0.5-4.6-2c-0.2-0.6-0.4-1.3-0.4-1.9q0-11.5 0-23v-1c-0.2 0-0.4 0.1-0.6 0.1q-12.2 3.2-24.3 6.5c-1 0.3-1.9 0.3-2.8-0.1c-1.2-0.5-1.9-1.5-2.1-2.8q-0.1-0.6-0.1-1.3c0-9.6 0-69.9 0-90.3q0-0.5 0-0.9c0.1-1.8 1.1-3 2.8-3.5q2.7-0.7 5.3-1.4q17.2-4.6 52.5-14q0-16.7 0-24.6c0-0.5 0-1 0.1-1.5c0.4-1.4 1.4-2.3 2.8-2.6c2.1-0.6 81.6-21.9 88.9-23.9c0.7-0.2 1.4-0.3 2.1-0.1c1.5 0.4 2.4 1.3 2.8 2.8c0.1 0.4 0.1 1 0.1 1.4q0 44.8 0 89.6q0 0.4 0 0.7c-0.1 1.8-1.1 3.1-2.9 3.6q-4.6 1.2-27.8 7zm-7.4 31.3l-22.1 5.9v21.6l22.1-5.9zm-51.3-16.5v22.7l21.8-5.8v-22.7zm-38.1 10c-7.6 2-15 4-22.5 6v22.8c7.6-2 15-4 22.5-6zm7.5-2v22.7l23-6.1v-22.5zm-0.1 52l52.5-14.1v-21.6l-52.5 14.1zm-7.4-57.6v-1q0-14.1 0-28.1c0-2.1 1-3.4 3-4q13.4-3.6 26.8-7.1q0.4-0.2 0.9-0.3q0-0.4 0-0.8q0-10.3-0.1-20.6q0 0 0 0q0-0.1-0.1-0.1q-26.5 7.1-53 14.1v53.9c7.5-2 15-4 22.5-6zm89.4-48.6c-27.4 7.3-54.7 14.6-82 22v24.5c0.2 0 0.4-0.1 0.6-0.1c9-2.3 18-4.6 27-6.9c6.6-1.8 13.2-3.6 19.9-5.4c2.6-0.7 5.2-1.4 7.9-2.1c1.8-0.4 3.6 0.6 4.2 2.4c0.1 0.4 0.2 1 0.2 1.5q0 12 0 24.1v1c7.5-2 14.9-4 22.2-6zm-29.5 0.3q0-24.7 0-26c0-0.4 0-0.8 0.1-1.2c0.4-1.6 1.5-2.4 3-2.8q13.7-3.7 27.3-7.4c0.8-0.2 1.6-0.4 2.4-0.5c2.1-0.3 3.9 1.2 4.1 3.3q0 0.4 0 58.1l23.2-5.9v-83.3l-81.9 22v49.6zm29.5-29.6l-22.2 6v21.6l22.2-5.9z" />
			<path id="&lt;Compound Path&gt;" fillRule="evenodd" class="s1" d="m191.6 175.4q-14.5 3.9-21.8 5.8v-49.5l82-22v83.2l-23.3 6q0-57.8 0-58.1c-0.1-2.1-1.9-3.7-4-3.4c-0.9 0.1-1.7 0.3-2.5 0.6q-13.6 3.7-27.3 7.4c-1.5 0.4-2.6 1.2-3 2.7c-0.1 0.4-0.1 0.8-0.1 1.2q0 8.4 0 26.1zm29.5 62.3v21.6l-22.1 5.9v-21.6zm-51.3-16.4l21.8-5.9v22.7l-21.8 5.8zm-38.1 10v22.8c-7.5 2-14.9 4-22.5 6.1v-22.8c7.5-2 15-4 22.5-6.1zm7.5-1.9l23-6v22.5l-23 6.2zm-0.1 52v-21.6l52.5-14.1v21.6zm-7.4-57.7c-7.5 2-14.9 4-22.5 6.1v-53.9q26.6-7.1 53-14.1c0.1 0 0.1 0 0.1 0q0.1 0.1 0.1 0.1q0 10.3 0 20.6q0 0.3 0 0.8q-0.4 0.1-0.8 0.2q-13.4 3.6-26.8 7.2c-2.1 0.6-3.1 1.9-3.1 4q0 14 0 28zm89.4-48.5v55l-22.1 6q-0.1-24.5-0.1-25.1c0-0.5 0-1.1-0.2-1.6c-0.5-1.7-2.4-2.7-4.2-2.3c-2.6 0.7-5.3 1.4-7.9 2.1c-6.6 1.8-13.2 3.6-19.9 5.4c-9 2.3-18 4.6-27 6.9c-0.2 0-0.3 0.1-0.6 0.1v-24.5zm0-29.3v21.7l-22.1 5.9v-21.5z" />
		</g>
	</g>
	<g id="Layer 2">
	</g>
</svg>