<svg xmlns="http://www.w3.org/2000/svg" xmlns:xlink="http://www.w3.org/1999/xlink" width="702" height="491" viewBox="0 0 702 491">
  <defs>
    <filter id="Retângulo_162" x="-9" y="-6" width="720" height="509" filterUnits="userSpaceOnUse">
      <feOffset dy="3" input="SourceAlpha"/>
      <feGaussianBlur stdDeviation="3" result="blur"/>
      <feFlood flood-opacity="0.161"/>
      <feComposite operator="in" in2="blur"/>
      <feComposite in="SourceGraphic"/>
    </filter>
    <clipPath id="clip-path">
      <g transform="matrix(1, 0, 0, 1, 0, 0)" filter="url(#Retângulo_162)">
        <rect id="Retângulo_162-2" data-name="Retângulo 162" width="702" height="491" rx="35" transform="translate(279 4185)" fill="rgba(255,25,25,0.67)"/>
      </g>
    </clipPath>
  </defs>
  <g id="Grupo_de_máscara_7" data-name="Grupo de máscara 7" transform="translate(-279 -4185)" clip-path="url(#clip-path)">
    <g id="Layer_1" data-name="Layer 1" transform="translate(735.207 4448.859)">
      <g id="_Group_" data-name="&lt;Group&gt;" transform="translate(4.778 1.141)">
        <path id="_Compound_Path_" data-name="&lt;Compound Path&gt;" d="M263.36,215.862V328.928a11.638,11.638,0,0,1-.2,2.653,6.994,6.994,0,0,1-5.306,5.1q-8.776,2.449-17.348,4.694L138.865,368.725q-31.43,8.368-62.86,16.939c-4.49,1.02-8.164-1.02-9.388-4.082a13.176,13.176,0,0,1-.816-3.878V328.724c-.408,0-.816.2-1.225.2q-24.9,6.531-49.594,13.266a7.861,7.861,0,0,1-5.715-.2,7,7,0,0,1-4.286-5.715,16.164,16.164,0,0,1-.2-2.653V147.492a7.419,7.419,0,0,1,5.715-7.143q5.51-1.429,10.817-2.857,35.1-9.388,107.147-28.573V58.712a15.447,15.447,0,0,1,.2-3.061,7.25,7.25,0,0,1,5.715-5.306c4.286-1.225,166.537-44.7,181.436-48.778a7.678,7.678,0,0,1,4.286-.2,7.452,7.452,0,0,1,5.715,5.715,13.473,13.473,0,0,1,.2,2.857V194.228a7.614,7.614,0,0,1-5.919,7.347q-9.388,2.449-56.737,14.286Zm-15.1,63.88-45.1,12.041v44.083l45.1-12.041Zm-104.7-33.675V292.4l44.492-11.837V234.23ZM65.8,266.476c-15.511,4.082-30.614,8.164-45.92,12.245v46.533c15.511-4.082,30.614-8.164,45.92-12.245Zm15.307-4.082v46.328l46.941-12.449v-45.92Zm-.2,106.127,107.147-28.777V295.661L80.9,324.438ZM65.8,250.965v-59.39c0-4.286,2.041-6.939,6.123-8.164q27.348-7.347,54.7-14.49a7.286,7.286,0,0,1,1.837-.612v-1.633q0-21.021-.2-42.043h0a.18.18,0,0,0-.2-.2Q73.964,138.92,19.88,153.206v110Zm182.456-99.188q-83.881,22.348-167.354,44.9v50c.408,0,.816-.2,1.225-.2l55.1-14.082c13.47-3.674,26.94-7.347,40.614-11.021,5.306-1.429,10.613-2.857,16.123-4.286a7.312,7.312,0,0,1,8.572,4.9,13.886,13.886,0,0,1,.408,3.061v51.227q22.96-6.123,45.308-12.245Zm-60.207.612V99.326a9.937,9.937,0,0,1,.2-2.449c.816-3.265,3.061-4.9,6.123-5.715q27.96-7.551,55.717-15.1a41.8,41.8,0,0,1,4.9-1.02,7.328,7.328,0,0,1,8.368,6.735V200.351l47.349-12.041V18.3L143.559,63.2V164.431Zm60.207-60.411-45.308,12.245v44.083l45.308-12.041Z" transform="translate(-4.778 -1.141)" fill="rgba(0,0,0,0.64)"/>
        <path id="_Compound_Path_2" data-name="&lt;Compound Path&gt;" d="M217.143,186.046q-29.593,7.96-44.492,11.837V96.858L340,51.958v169.8l-47.553,12.245V115.43a7.2,7.2,0,0,0-8.164-6.939,20.724,20.724,0,0,0-5.1,1.225q-27.756,7.551-55.717,15.1c-3.061.816-5.306,2.449-6.123,5.51a9.937,9.937,0,0,0-.2,2.449Zm60.207,127.148v44.083l-45.1,12.041V325.235Zm-104.7-33.471,44.492-12.041V314.01l-44.492,11.837ZM94.893,300.132v46.533c-15.307,4.082-30.409,8.164-45.92,12.449V312.581C64.279,308.5,79.586,304.418,94.893,300.132Zm15.307-3.878,46.941-12.245v45.92L110.2,342.583ZM110,402.381V358.3l107.147-28.777V373.6Zm-15.1-117.76c-15.307,4.082-30.409,8.164-45.92,12.45v-110q54.288-14.49,108.168-28.777h.2l.2.2v43.675l-1.633.408-54.7,14.694c-4.286,1.225-6.327,3.878-6.327,8.164v59.186Zm182.456-98.984v112.25l-45.1,12.245q-.2-50-.2-51.227a8.988,8.988,0,0,0-.408-3.265,7.267,7.267,0,0,0-8.572-4.694c-5.306,1.429-10.817,2.857-16.123,4.286-13.47,3.674-26.94,7.347-40.614,11.021l-55.1,14.082c-.408,0-.612.2-1.225.2v-50Zm0-59.8v44.288l-45.1,12.041V138.289Z" transform="translate(-33.87 -34.592)" fill="none"/>
      </g>
    </g>
  </g>
</svg>
