<svg xmlns="http://www.w3.org/2000/svg" xmlns:xlink="http://www.w3.org/1999/xlink" width="553.7" height="377.358" viewBox="0 0 553.7 377.358">
  <defs>
    <linearGradient id="linear-gradient" x1="0.5" y1="1" x2="0.5" gradientUnits="objectBoundingBox">
      <stop offset="0" stop-color="gray" stop-opacity="0.251"/>
      <stop offset="0.54" stop-color="gray" stop-opacity="0.122"/>
      <stop offset="1" stop-color="gray" stop-opacity="0.102"/>
    </linearGradient>
    <linearGradient id="linear-gradient-2" x1="0.502" y1="1" x2="0.502" y2="0" xlink:href="#linear-gradient"/>
  </defs>
  <g id="Grupo_24" data-name="Grupo 24" transform="translate(0.045)">
    <path id="Caminho_227" data-name="Caminho 227" d="M1085.712,364.35H1038.44v57.3h43.817c.113.591.226,1.183.35,1.774H1038.44v46.2l.221-.072c1.25-.437,2.489-.9,3.717-1.4l.8-.319q1.882-.787,3.717-1.661c.432-.2.864-.411,1.291-.627a77.121,77.121,0,0,0,18.6-12.854c.159-.134.308-.283.458-.422.751-.725,1.491-1.465,2.211-2.221.267-.278.514-.555.792-.843.848-.92,1.666-1.872,2.463-2.828.118-.144.231-.288.35-.422a59.6,59.6,0,0,0,8.011-12.885c.067-.134.123-.283.185-.422.648-1.45,1.229-2.92,1.733-4.417.211-.627.417-1.26.6-1.892.067-.19.118-.38.175-.566,2.617-9.173,2.92-18.715,2.92-28.2v-3.316c0-3.831-.057-7.687-.124-11.538,0-1-.051-1.995-.072-3-.067-2.54-.154-5.09-.278-7.63-.031-.7-.067-1.414-.108-2.113,0-.406-.041-.812-.072-1.219Q1085.882,366.54,1085.712,364.35Z" transform="translate(-535.955 -219.459)" fill="#6c63ff" opacity="0.1"/>
    <path id="Caminho_228" data-name="Caminho 228" d="M1038.44,212.733h25.934a176.584,176.584,0,0,0-13.795-16.885c-3.851-4.206-7.9-8.309-12.139-12.258Z" transform="translate(-535.955 -131.638)" fill="#6c63ff" opacity="0.1"/>
    <path id="Caminho_229" data-name="Caminho 229" d="M1038.44,243.715v60.249h47.123a1.881,1.881,0,0,0-.046-.514c-.041-.478-.082-.951-.128-1.424-.046-.555-.108-1.116-.165-1.671s-.129-1.208-.2-1.81-.134-1.208-.211-1.81-.149-1.2-.231-1.8-.159-1.2-.247-1.794c-.072-.514-.144-.992-.221-1.486-.108-.7-.221-1.4-.339-2.1a2.024,2.024,0,0,0-.051-.309,130.174,130.174,0,0,0-3.471-15.127,103.56,103.56,0,0,0-5.846-15.348,110.535,110.535,0,0,0-8.792-15.06Z" transform="translate(-535.955 -160.847)" fill="#6c63ff" opacity="0.1"/>
    <path id="Caminho_230" data-name="Caminho 230" d="M490.549,231.966v57.3H591.52v-57.3Zm0,59.067v38.8c11.754-3.758,25.194-2.237,37.379.848,9.435,2.391,18.628,5.656,28.047,8a101.934,101.934,0,0,0,12.787,2.417l1.059.118,1.542.139,1.542.113a.859.859,0,0,1,.159,0,5.178,5.178,0,0,1,.689.031h.237c.278,0,.555.031.833.031h0c.4,0,.8,0,1.2.036h3.3a8.719,8.719,0,0,0,.9-.031c.483,0,.967-.041,1.455-.072h0l.9-.062c.37,0,.746-.051,1.111-.087.787-.062,1.542-.139,2.339-.236.308-.036.622-.072.931-.118l.458-.057c.776-.1,1.542-.221,2.319-.355.571-.087,1.141-.19,1.717-.3V291.033Zm75.1-122.884v1.769h-75.1v60.275H591.52V169.938h-5.064V168.17h5.064V129.232c-19.641-15.826-42.6-28.217-68.167-33.934a145.3,145.3,0,0,0-32.8-3.424v76.3ZM334.79,167.81l.355.339H479.253V92.4c-25.656,2.134-50.675,10.751-70.846,25.029-9.692,6.854-18.4,14.983-29.271,20.237a45.837,45.837,0,0,1-18.3,4.73Zm-.992-31.076v17.147l13.923-13.589a62.833,62.833,0,0,0-13.944-3.537Zm-.463,215.72h.463v37.59q7.882-.591,15.7-1.615a281.427,281.427,0,0,0,67.987-17.615h0Q421,369.4,424.469,367.9q2.309-1.028,4.591-2.057,3.424-1.573,6.8-3.234a238.452,238.452,0,0,0,28.736-16.679c.571-.391,1.147-.782,1.712-1.177q1.7-1.183,3.388-2.386c.56-.406,1.121-.807,1.676-1.219l1.157-.853c1.152-.859,2.3-1.717,3.46-2.571h0c1.075-.771,2.159-1.543,3.26-2.262V291.038H363.47c.082-.257.159-.514.247-.787-.093.262-.175.514-.252.787H333.777v61.406Zm.463-182.526v60.265H479.253V169.938Zm0,62.028v57.308H479.253v-57.3ZM304.717,138.5l17.769,17.343V136.667Q313.555,137.222,304.717,138.5ZM180.974,231.966v57.3H322.486v-57.3Zm34.2,141.517a262.815,262.815,0,0,0,66.7,15.826h.1q6.468.684,12.983,1.059h.159c9.1.514,18.227.632,27.343.293V291.033H180.974l.514,65.977m-39.7-67.746H169.7v-57.3H158.66c-1.147,2.01-2.257,4.041-3.311,6.093-.566,1.1-1.116,2.206-1.65,3.316C146.433,256.466,141.816,273.032,141.79,289.264Zm0,1.769a72.458,72.458,0,0,0,8.6,33.626A82.807,82.807,0,0,0,169.678,347.8V291.033Zm17.9-60.84H169.7V215.282a159.723,159.723,0,0,0-10.006,14.911Zm62.671-62.023h96.785l.35-.339-.514-.514h0L291.77,140.78a219.8,219.8,0,0,0-23.9,6.391c-.74.242-1.481.514-2.216.746a216.975,216.975,0,0,0-43.287,20.253Zm-41.39,33.611v28.412h141.5V171.578l-1.985-1.614H219.536a194.392,194.392,0,0,0-38.562,31.816Z" transform="translate(-100.325 -87.075)" fill="#6c63ff" opacity="0.1"/>
    <path id="Caminho_231" data-name="Caminho 231" d="M1038.44,302.83v29.857h47.123a1.88,1.88,0,0,0-.046-.514c-.041-.478-.082-.951-.128-1.424-.046-.555-.108-1.116-.165-1.671s-.129-1.208-.2-1.81-.134-1.208-.211-1.81-.149-1.2-.231-1.8-.159-1.2-.247-1.794c-.072-.514-.144-.992-.221-1.486-.108-.7-.221-1.4-.339-2.1a2.023,2.023,0,0,0-.051-.308,130.173,130.173,0,0,0-3.471-15.127Z" transform="translate(-535.955 -189.57)" fill="#015eed" opacity="0.1"/>
    <path id="Caminho_232" data-name="Caminho 232" d="M1085.712,364.35H1038.44v57.3h43.817c.113.591.226,1.183.35,1.774H1038.44v46.2l.221-.072c1.25-.437,2.489-.9,3.717-1.4l.8-.319q1.882-.787,3.717-1.661c.432-.2.864-.411,1.291-.627a77.121,77.121,0,0,0,18.6-12.854c.159-.134.308-.283.458-.422.751-.725,1.491-1.465,2.211-2.221.267-.278.514-.555.792-.843.848-.92,1.666-1.872,2.463-2.828.118-.144.231-.288.35-.422a59.6,59.6,0,0,0,8.011-12.885c.067-.134.123-.283.185-.422.648-1.45,1.229-2.92,1.733-4.417.211-.627.417-1.26.6-1.892.067-.19.118-.38.175-.566,2.617-9.173,2.92-18.715,2.92-28.2v-3.316c0-3.831-.057-7.687-.124-11.538,0-1-.051-1.995-.072-3-.067-2.54-.154-5.09-.278-7.63-.031-.7-.067-1.414-.108-2.113,0-.406-.041-.812-.072-1.219Q1085.882,366.54,1085.712,364.35Z" transform="translate(-535.955 -219.459)" fill="#015eed" opacity="0.1"/>
    <path id="Caminho_233" data-name="Caminho 233" d="M885.8,160.961v51.627h35.544V160.961h-5.064V143.48H895.471v17.481Z" transform="translate(-430.144 -69.466)" fill="#015eed" opacity="0.1"/>
    <rect id="Retângulo_124" data-name="Retângulo 124" width="35.544" height="57.298" transform="translate(455.656 144.891)" fill="#015eed" opacity="0.1"/>
    <path id="Caminho_234" data-name="Caminho 234" d="M982.9,479.24H947.36v47.642a102.781,102.781,0,0,0,12.782,2.417l1.064.118,1.542.139c.514.041,1.028.082,1.542.113h.159a5.184,5.184,0,0,1,.689.031h.237c.278,0,.56.026.838.031h0c.4,0,.8,0,1.2.031h3.3l.9-.031c.478,0,.967-.041,1.45-.072h0l.895-.062,1.116-.087c.782-.062,1.542-.144,2.334-.237l.931-.118.458-.057c.776-.1,1.542-.221,2.319-.355.576-.087,1.147-.2,1.722-.3Z" transform="translate(-491.704 -275.277)" fill="#015eed" opacity="0.1"/>
    <rect id="Retângulo_125" data-name="Retângulo 125" width="29.312" height="57.719" transform="translate(233.457 85.398)" fill="#6c63ff" opacity="0.1"/>
    <path id="Caminho_235" data-name="Caminho 235" d="M453.64,281.33v57.3H599.116v-24.71H521.627v14.576h-38.68V281.33Z" transform="translate(-220.183 -136.439)" fill="#015eed" opacity="0.1"/>
    <path id="Caminho_236" data-name="Caminho 236" d="M514.29,539.929h.463V577.5q7.882-.591,15.7-1.615a281.242,281.242,0,0,0,68.039-17.62q9.373-3.753,18.371-8.2a239.961,239.961,0,0,0,28.711-16.684q3.434-2.329,6.771-4.776c1.542-1.131,3.085-2.293,4.627-3.414,1.075-.776,2.16-1.542,3.265-2.267V478.492H544.476c.082-.267.159-.514.242-.792-.087.262-.17.514-.247.792H514.753V539.9Z" transform="translate(-281.301 -274.529)" fill="#015eed" opacity="0.1"/>
    <path id="Caminho_237" data-name="Caminho 237" d="M366.52,220.428h19.1v-5.28H377.05V199.43c-.74.247-1.486.514-2.221.746v14.972H366.52Z" transform="translate(-209.508 -139.334)" fill="#6c63ff" opacity="0.1"/>
    <path id="Caminho_238" data-name="Caminho 238" d="M277,303.969H388.177V246.25h-4.926v42.675h-22.52V263.664H342.123V243.72h-19.1v19.944h-18.6v25.25H277Z" transform="translate(-166.016 -160.852)" fill="#015eed" opacity="0.1"/>
    <path id="Caminho_239" data-name="Caminho 239" d="M248.335,364.35v57.3H359.512v-57.3Zm3.882,141.517a262.807,262.807,0,0,0,66.7,15.826h.1q6.468.684,12.983,1.059h.159c9.1.514,18.227.632,27.343.293V423.417H248.335v20.314H218l.159,45.359" transform="translate(-137.351 -219.459)" fill="#015eed" opacity="0.1"/>
    <path id="Caminho_240" data-name="Caminho 240" d="M167.759,479.24H141.83a72.439,72.439,0,0,0,8.607,33.616,82.355,82.355,0,0,0,19.281,23.137V499.549h-1.959Z" transform="translate(-100.345 -275.277)" fill="#6c63ff" opacity="0.1"/>
    <path id="Caminho_241" data-name="Caminho 241" d="M141.8,430.539h25.944V382.65H153.728C146.443,397.741,141.821,414.312,141.8,430.539Z" transform="translate(-100.33 -228.35)" fill="#6c63ff" opacity="0.1"/>
    <rect id="Retângulo_126" data-name="Retângulo 126" width="15.702" height="18.098" transform="translate(233.457 101.445)" fill="#6c63ff" opacity="0.1"/>
    <rect id="Retângulo_127" data-name="Retângulo 127" width="15.702" height="4.165" transform="translate(233.457 138.953)" fill="#6c63ff" opacity="0.1"/>
    <rect id="Retângulo_128" data-name="Retângulo 128" width="15.702" height="12.16" transform="translate(233.457 144.891)" fill="#6c63ff" opacity="0.1"/>
    <rect id="Retângulo_129" data-name="Retângulo 129" width="15.702" height="18.098" transform="translate(233.457 176.466)" fill="#6c63ff" opacity="0.1"/>
    <rect id="Retângulo_130" data-name="Retângulo 130" width="15.702" height="18.098" transform="translate(233.457 213.979)" fill="#6c63ff" opacity="0.1"/>
    <path id="Caminho_242" data-name="Caminho 242" d="M514.753,585.557l-.463.026h.463v4.2h15.7V571.67h-15.7Z" transform="translate(-281.301 -320.183)" fill="#6c63ff" opacity="0.1"/>
    <path id="Caminho_243" data-name="Caminho 243" d="M515.19,644.61v13.98q7.882-.591,15.7-1.614v-12.34Z" transform="translate(-281.738 -355.621)" fill="#6c63ff" opacity="0.1"/>
    <rect id="Retângulo_131" data-name="Retângulo 131" width="67.293" height="1.327" transform="translate(311.64 200.863)" fill="#6c63ff" opacity="0.1"/>
    <rect id="Retângulo_132" data-name="Retângulo 132" width="67.293" height="5.095" transform="translate(311.64 203.963)" fill="#6c63ff" opacity="0.1"/>
    <rect id="Retângulo_133" data-name="Retângulo 133" width="67.293" height="8.196" transform="translate(311.64 225.758)" fill="#6c63ff" opacity="0.1"/>
    <path id="Caminho_244" data-name="Caminho 244" d="M667.25,570v8.227h52.64q3.435-2.329,6.771-4.776c1.542-1.131,3.085-2.288,4.627-3.414Z" transform="translate(-355.615 -319.372)" fill="#6c63ff" opacity="0.1"/>
    <path id="Caminho_245" data-name="Caminho 245" d="M667.25,618.45v8.2h5.558q9.378-3.753,18.371-8.2Z" transform="translate(-355.615 -342.911)" fill="#6c63ff" opacity="0.1"/>
    <rect id="Retângulo_134" data-name="Retângulo 134" width="13.245" height="11.779" transform="translate(194.818 162.224) rotate(180)" fill="#6c63ff" opacity="0.1"/>
    <rect id="Retângulo_135" data-name="Retângulo 135" width="13.245" height="11.779" transform="translate(481.657 107.337) rotate(180)" fill="#6c63ff" opacity="0.1"/>
    <rect id="Retângulo_136" data-name="Retângulo 136" width="13.245" height="11.779" transform="translate(481.657 134.701) rotate(180)" fill="#6c63ff" opacity="0.1"/>
    <rect id="Retângulo_137" data-name="Retângulo 137" width="13.245" height="11.779" transform="translate(481.657 162.059) rotate(180)" fill="#6c63ff" opacity="0.1"/>
    <rect id="Retângulo_138" data-name="Retângulo 138" width="13.245" height="11.779" transform="translate(481.657 189.423) rotate(180)" fill="#6c63ff" opacity="0.1"/>
    <rect id="Retângulo_139" data-name="Retângulo 139" width="13.245" height="11.779" transform="translate(481.657 216.786) rotate(180)" fill="#6c63ff" opacity="0.1"/>
    <rect id="Retângulo_140" data-name="Retângulo 140" width="13.245" height="11.779" transform="translate(481.657 244.144) rotate(180)" fill="#6c63ff" opacity="0.1"/>
    <rect id="Retângulo_141" data-name="Retângulo 141" width="13.245" height="11.779" transform="translate(144.245 162.224) rotate(180)" fill="#6c63ff" opacity="0.1"/>
    <rect id="Retângulo_142" data-name="Retângulo 142" width="13.245" height="11.779" transform="translate(194.818 191.279) rotate(180)" fill="#6c63ff" opacity="0.1"/>
    <rect id="Retângulo_143" data-name="Retângulo 143" width="13.245" height="11.779" transform="translate(144.245 191.279) rotate(180)" fill="#6c63ff" opacity="0.1"/>
    <rect id="Retângulo_144" data-name="Retângulo 144" width="13.245" height="11.779" transform="translate(194.818 220.334) rotate(180)" fill="#6c63ff" opacity="0.1"/>
    <rect id="Retângulo_145" data-name="Retângulo 145" width="13.245" height="11.779" transform="translate(144.245 220.334) rotate(180)" fill="#6c63ff" opacity="0.1"/>
    <rect id="Retângulo_146" data-name="Retângulo 146" width="13.245" height="11.779" transform="translate(194.818 249.394) rotate(180)" fill="#6c63ff" opacity="0.1"/>
    <rect id="Retângulo_147" data-name="Retângulo 147" width="13.245" height="11.779" transform="translate(144.245 249.394) rotate(180)" fill="#6c63ff" opacity="0.1"/>
    <rect id="Retângulo_148" data-name="Retângulo 148" width="13.245" height="11.779" transform="translate(194.818 278.449) rotate(180)" fill="#6c63ff" opacity="0.1"/>
    <rect id="Retângulo_149" data-name="Retângulo 149" width="13.245" height="11.779" transform="translate(144.245 278.449) rotate(180)" fill="#6c63ff" opacity="0.1"/>
    <path id="Caminho_246" data-name="Caminho 246" d="M365.985,582.279v-7.6H352.74v6.52Z" transform="translate(-171.162 -278.96)" fill="#6c63ff" opacity="0.1"/>
    <path id="Caminho_247" data-name="Caminho 247" d="M1038.44,332.24v6.741h45.333V332.24Zm40.819.427h3.717v5.892h-3.717Zm-4.514,0h3.717v5.892h-3.717Zm-4.5,0h3.717v5.892h-3.717Zm-4.514,0h3.717v5.892h-3.717Zm-4.509,0h3.733v5.892h-3.717Zm-4.514,0h3.717v5.892h-3.7Zm-4.514,0h3.717v5.892h-3.717Zm-4.509,0h3.717v5.892h-3.717Zm-4.509,0h3.717v5.892h-3.717Zm-4.509,0h3.717v5.892h-3.717Z" transform="translate(-535.955 -203.858)" fill="#6c63ff" opacity="0.1"/>
    <path id="Caminho_248" data-name="Caminho 248" d="M1038.44,370.4v6.741h45.333V370.4Zm40.819.427h3.717v5.887h-3.717Zm-4.514,0h3.717v5.887h-3.717Zm-4.5,0h3.717v5.887h-3.717Zm-4.514,0h3.717v5.887h-3.717Zm-4.509,0h3.733v5.887h-3.717Zm-4.514,0h3.717v5.887h-3.7Zm-4.514,0h3.717v5.887h-3.717Zm-4.509,0h3.717v5.887h-3.717Zm-4.509,0h3.717v5.887h-3.717Zm-4.509,0h3.717v5.887h-3.717Z" transform="translate(-535.955 -222.398)" fill="#6c63ff" opacity="0.1"/>
    <path id="Caminho_249" data-name="Caminho 249" d="M1038.44,408.56V415.3h45.333V408.56Zm40.819.422h3.717v5.887h-3.717Zm-4.514,0h3.717v5.887h-3.717Zm-4.5,0h3.717v5.887h-3.717Zm-4.514,0h3.717v5.887h-3.717Zm-4.509,0h3.733v5.887h-3.717Zm-4.514,0h3.717v5.887h-3.7Zm-4.514,0h3.717v5.887h-3.717Zm-4.509,0h3.717v5.887h-3.717Zm-4.509,0h3.717v5.887h-3.717Zm-4.509,0h3.717v5.887h-3.717Z" transform="translate(-535.955 -240.938)" fill="#6c63ff" opacity="0.1"/>
    <path id="Caminho_250" data-name="Caminho 250" d="M1038.44,446.71v6.73h45.333v-6.73Zm40.819.416h3.717v5.9h-3.717Zm-4.514,0h3.717v5.9h-3.717Zm-4.5,0h3.717v5.9h-3.717Zm-4.514,0h3.717v5.9h-3.717Zm-4.509,0h3.733v5.9h-3.717Zm-4.514,0h3.717v5.9h-3.7Zm-4.514,0h3.717v5.9h-3.717Zm-4.509,0h3.717v5.9h-3.717Zm-4.509,0h3.717v5.9h-3.717Zm-4.509,0h3.717v5.9h-3.717Z" transform="translate(-535.955 -259.473)" fill="#6c63ff" opacity="0.1"/>
    <path id="Caminho_251" data-name="Caminho 251" d="M1038.44,484.85v6.761h42.624c.062-.134.123-.283.18-.422h-1.985v-5.913h3.717v1.47c.216-.627.422-1.26.6-1.9Zm36.3.427h3.717v5.887h-3.717Zm-4.5,0h3.717v5.887h-3.717Zm-4.514,0h3.717v5.887h-3.717Zm-4.509,0h3.733v5.887h-3.717Zm-4.514,0h3.717v5.887h-3.7Zm-4.514,0h3.717v5.887h-3.717Zm-4.509,0h3.717v5.887h-3.717Zm-4.509,0h3.717v5.887h-3.717Zm-4.509,0h3.717v5.887h-3.717Z" transform="translate(-535.955 -278.003)" fill="#6c63ff" opacity="0.1"/>
    <path id="Caminho_252" data-name="Caminho 252" d="M1038.44,523v6.735h28.335c.165-.139.308-.283.458-.422h-1.507v-5.887h3.717v3.687l.8-.848v-2.828h2.463c.118-.144.231-.288.35-.422Zm22.777.422h3.733v5.892h-3.717Zm-4.514,0h3.717v5.892h-3.7Zm-4.514,0h3.717v5.892h-3.717Zm-4.509,0h3.717v5.892h-3.717Zm-4.509,0h3.717v5.892h-3.717Zm-4.509,0h3.717v5.892h-3.717Z" transform="translate(-535.955 -296.537)" fill="#6c63ff" opacity="0.1"/>
    <path id="Caminho_253" data-name="Caminho 253" d="M1038.44,561.16v4.077l.221-.072v-3.6h3.717v2.19l.792-.329v-1.836h3.718v.206c.437-.2.869-.411,1.3-.627Z" transform="translate(-535.955 -315.077)" fill="#6c63ff" opacity="0.1"/>
    <path id="Caminho_254" data-name="Caminho 254" d="M459.35,302.3ZM487.6,424.575h0Zm30.15-61.442h0c.082-.257.159-.514.247-.787C517.908,362.609,517.825,362.876,517.748,363.133Zm-58.4-60.83ZM719.931,240.27v1.769h20.808V240.27ZM487.6,424.575h0Zm30.15-61.442h0c.082-.257.159-.514.247-.787C517.908,362.609,517.825,362.876,517.748,363.133Zm-58.4-60.83ZM487.6,424.575h0Zm30.15-61.442h0c.082-.257.159-.514.247-.787C517.908,362.609,517.825,362.876,517.748,363.133Z" transform="translate(-254.609 -159.176)" fill="#6c63ff" opacity="0.1"/>
    <rect id="Retângulo_150" data-name="Retângulo 150" width="515.12" height="18.212" transform="translate(38.534 359.146)" fill="#6c63ff" opacity="0.1"/>
    <rect id="Retângulo_151" data-name="Retângulo 151" width="2.607" height="58.624" transform="translate(54.077 243.363)" fill="#535461"/>
    <path id="Caminho_255" data-name="Caminho 255" d="M169.816,665.828l-.165,2.643-.226,3.728-.1,1.542-.231,3.728-.1,1.542-.231,3.723-2.627,42.392a7.2,7.2,0,0,1-7.162,6.751H145.327a7.2,7.2,0,0,1-7.162-6.735l-2.632-42.392-.226-3.723-.1-1.542-.237-3.728-.093-1.543-.231-3.728-.165-2.643A3.718,3.718,0,0,1,138.2,661.9h27.914a3.707,3.707,0,0,1,3.707,3.928Z" transform="translate(-96.772 -364.021)" fill="#3f3d56"/>
    <path id="Caminho_256" data-name="Caminho 256" d="M108.264,591.66l-.231,3.728H73.486l-.226-3.728Z" transform="translate(-35.379 -287.21)" fill="#9d9cb5"/>
    <path id="Caminho_257" data-name="Caminho 257" d="M108.246,601.93l-.231,3.733H74.121l-.231-3.733Z" transform="translate(-35.685 -292.199)" fill="#9d9cb5"/>
    <path id="Caminho_258" data-name="Caminho 258" d="M108.223,612.21,108,615.938H74.761l-.231-3.728Z" transform="translate(-35.996 -297.194)" fill="#9d9cb5"/>
    <path id="Caminho_259" data-name="Caminho 259" d="M95.461,587.649c15.163,10.967,21.476,28.13,21.476,28.13s-18.273-.627-33.42-11.6S62,576.05,62,576.05,80.294,576.677,95.461,587.649Z" transform="translate(-61.56 -322.311)" fill="#015eed"/>
    <path id="Caminho_260" data-name="Caminho 260" d="M62,576.05s18.967,10.53,25.05,19.245,29.867,20.484,29.867,20.484" transform="translate(-61.56 -322.311)" fill="none" stroke="#535461" stroke-width="2"/>
    <path id="Caminho_261" data-name="Caminho 261" d="M128.916,549.654a36.744,36.744,0,0,1,11.692,15.312,36.82,36.82,0,0,1-18.2-6.314A36.707,36.707,0,0,1,110.72,543.34,36.734,36.734,0,0,1,128.916,549.654Z" transform="translate(-85.23 -306.419)" fill="#015eed"/>
    <path id="Caminho_262" data-name="Caminho 262" d="M110.72,543.34s10.319,5.733,13.635,10.473,16.253,11.152,16.253,11.152" transform="translate(-85.23 -306.419)" fill="none" stroke="#535461" stroke-width="2"/>
    <path id="Caminho_263" data-name="Caminho 263" d="M181.326,571.527c-9.481,10.422-11.486,24.037-11.486,24.037s13.368-3.28,22.849-13.7,11.486-24.032,11.486-24.032S190.807,561.105,181.326,571.527Z" transform="translate(-113.953 -313.459)" fill="#015eed"/>
    <path id="Caminho_264" data-name="Caminho 264" d="M204.176,557.83s-12.34,10.679-15.492,18.042-18.844,19.692-18.844,19.692" transform="translate(-113.953 -313.459)" fill="none" stroke="#535461" stroke-width="2"/>
    <circle id="Elipse_73" data-name="Elipse 73" cx="10.175" cy="10.175" r="10.175" transform="translate(198.941 19.318)" fill="none" stroke="#6c63ff" stroke-width="1" opacity="0.2"/>
    <circle id="Elipse_74" data-name="Elipse 74" cx="18.391" cy="18.391" r="18.391" transform="translate(190.725 11.102)" fill="none" stroke="#6c63ff" stroke-width="1" opacity="0.2"/>
    <circle id="Elipse_75" data-name="Elipse 75" cx="28.993" cy="28.993" r="28.993" transform="translate(180.123 0.5)" fill="none" stroke="#6c63ff" stroke-width="1" opacity="0.2"/>
    <path id="Caminho_265" data-name="Caminho 265" d="M490.708,483.023a17.116,17.116,0,0,0-1.666-4.627l-7.44-10.875h.067s-1.177-5.465,0-8.139-4.185-9.286-4.185-9.286-.653-1.656,1.028-3.692-1.028-8.011-1.028-8.011-1.311-12.468-1.44-14.4-1.177-12.463-1.177-12.463l-2.489-22.392-4.422-59.334-.082-1.111c.55-.262.838-.427.838-.427l-.926-32.788.766-.674c6.684-5.9,22.063-19.538,21.913-19.852-.2-.38-1.866-22.8-2.057-28.433a33.271,33.271,0,0,0-2.627-11.635c-.386-.751-1.5-5.656-1.959-7.754l-.2-.931s-4.514-8.4-4.113-12.211,1.177-6.684-8.443-8.016c0,0-8.113-1.177-12.89-4.391a37.37,37.37,0,0,0-9.224-4.514s-1.769-3.085-3.491-2.489v-6.55a7.131,7.131,0,0,0,4.53-6.561V157.879a7.229,7.229,0,0,0-7.327-7.126H422.206a7.156,7.156,0,0,0-.884.077v-10.8a1.147,1.147,0,0,0-.36-.833,1.224,1.224,0,0,0-.859-.35,1.2,1.2,0,0,0-1.219,1.183V151.6a7.09,7.09,0,0,0-3.81,6.232v23.595a7.131,7.131,0,0,0,4.525,6.561v6.226c-.828-.1-2.057.473-3.455,3.321,0,0-7,3.944-9.424,4.391s-10.993,3.368-10.993,3.368a7.712,7.712,0,0,1-4.447,1.4c-2.684,0-4.91,5.728-4.581,8.844s-.2,5.4-2.684,5.532-1.126,5.106-1.116,5.142c-.031.139-.113.514-.231,1.059-.483,2.175-1.542,6.838-1.913,7.568a33.147,33.147,0,0,0-2.653,11.635c-.2,5.656-1.866,28.053-2.057,28.433-.123.252,10.417,9.666,17.836,16.242l1.069.946-3.409,31.122a8.219,8.219,0,0,0,3.507,6.1,10.248,10.248,0,0,1-.041,1.111c-.149,3.6-.447,8.047-1.028,9.2-1.028,2.057-.787,12.972-.787,12.972s-1.028,22.268-2.355,24.68-1.573,7.507-1.177,8.525-1.311,27.734-1.311,27.734l-1.311,11.954s.4,11.45-.782,11.707-1.836,8.139-1.836,8.139-4.185,5.6-2.355,7.635-.272,2.926-.463,3.435-3.99,2.417-1.239,9.538c.026.072.062.134.093.2-2.571,3.481-10.73,14.751-10.237,16.453a4.581,4.581,0,0,0,2.18,2.571c1.918,1.121,5.214,1.64,10.448,0,8.7-2.735,8.052-4.71,8.052-4.71a3.634,3.634,0,0,1,3.666-3.435c3.6-.257,6.283-3.5,6.283-3.5l-.422-1.542-.581-2.124c.072-.632.514-1.671,2.5-2.262,3.013-.889,2.226-6.484,2.226-6.484s-.262-5.856,1.028-6.617.782-10.432.782-10.432a70.284,70.284,0,0,1,3.537-11.707c2.093-4.71,4.581-32.69,4.581-32.69s1.7-13.738,3.27-17.682,3.013-15.013,3.013-15.013,9.687-18.319,9.815-22.392c0,0,1.255-3.815,2.463.386s4.735,14.247,4.735,14.247l3.4,12.34L445.261,390l2.617,15.522s-.386,5.913.658,7.969,2.489,6.741,1.7,7.635,1.573,5.085,2.226,5.975,0,19.723,0,19.723,3.008,16.026,7.327,18.823a5.711,5.711,0,0,0,.956.483c-.062,1.738-.123,4.062-.041,5.275a2.055,2.055,0,0,0,.134.8c.391.514,4.843,3.938,5.759,3.938s4.185,2.231,4.319,3.311,9.569,5.656,10.9,5.789,7.815,1.27,8.741-.514A2.879,2.879,0,0,0,490.708,483.023ZM467.529,253.785l.674.566s.684,5.25,1.177,6.818-.1,4.627-.1,4.627a10.454,10.454,0,0,0,.684,3.337c.586,1.141-1.152,3.63-1.152,3.63h-1.594l-.514-19.651Zm-70.872,16.967a2.149,2.149,0,0,1-.1-1.62,4.776,4.776,0,0,0,.334-.895,13.36,13.36,0,0,0,.355-2.442.1.1,0,0,0,0-.026,12.829,12.829,0,0,1-.093-4.627c.463-1.542,1.177-6.818,1.177-6.818l.447-.375,1.028-.864s.031-.329.072-.869c.221,4.627.4,9.687.113,9.964-.514.514-2.422,5.471-1.964,5.656a22.827,22.827,0,0,1-.4,4.72,9.456,9.456,0,0,1-.967-1.8Z" transform="translate(-211.295 -109.902)" fill="url(#linear-gradient)"/>
    <path id="Caminho_266" data-name="Caminho 266" d="M467.915,141.083v15.594a1.183,1.183,0,0,1-2.365,0V141.083a1.183,1.183,0,0,1,2.365,0Z" transform="translate(-257.621 -110.412)" fill="#6f758d"/>
    <path id="Caminho_267" data-name="Caminho 267" d="M491.986,216.376v24.232a7.327,7.327,0,0,1-7.306,7.306H474.211a7.327,7.327,0,0,1-7.311-7.306V216.376a7.332,7.332,0,0,1,7.311-7.306H484.68A7.327,7.327,0,0,1,491.986,216.376Z" transform="translate(-258.277 -144.017)" fill="#6f758d"/>
    <path id="Caminho_268" data-name="Caminho 268" d="M410.871,354.7l-2,24.68s-3-2.72-6.89-6.268c-7.2-6.566-17.43-15.97-17.312-16.217.19-.38,1.81-22.772,2-28.392a34.084,34.084,0,0,1,2.571-11.625c.36-.725,1.388-5.378,1.856-7.553.149-.679.237-1.116.237-1.116l3.337-1.337s14.006,15.625,14.006,15.913-.951,12.288-.951,12.288l-1,.869-.432.37s-.668,5.244-1.147,6.813a13.077,13.077,0,0,0,.093,4.6v.026a13.572,13.572,0,0,1-.35,2.437,4.979,4.979,0,0,1-.319.9,2.211,2.211,0,0,0,.1,1.614A9.8,9.8,0,0,0,405.7,354.7Z" transform="translate(-218.325 -191.533)" fill="#3f3d56"/>
    <path id="Caminho_269" data-name="Caminho 269" d="M575.961,356.883c.149.3-14.792,13.934-21.266,19.821l-2.936,2.663-2-24.68H554.9s1.717-2.478,1.147-3.6a10.637,10.637,0,0,1-.668-3.337,13.3,13.3,0,0,0,.1-4.627c-.473-1.578-1.147-6.813-1.147-6.813l-.653-.586-.776-.679s-.962-11.985-.962-12.273,14.006-15.913,14.006-15.913l3.332,1.337s.077.36.2.931c.453,2.057,1.542,6.993,1.9,7.738a33.995,33.995,0,0,1,2.571,11.625C574.152,334.11,575.771,356.5,575.961,356.883Z" transform="translate(-298.534 -191.528)" fill="#3f3d56"/>
    <path id="Caminho_270" data-name="Caminho 270" d="M573.432,791.887c-.889,1.779-7.2.638-8.473.514s-10.453-4.7-10.581-5.779-3.306-3.306-4.19-3.306-5.208-3.429-5.594-3.938a2.157,2.157,0,0,1-.129-.792c-.134-2.088.129-7.466.129-7.466l18.422,1.028,8.957,13.45a17.116,17.116,0,0,1,1.614,4.627,2.977,2.977,0,0,1-.154,1.661Z" transform="translate(-295.942 -417.084)" fill="#3f3d56"/>
    <path id="Caminho_271" data-name="Caminho 271" d="M573.432,791.887c-.889,1.779-7.2.638-8.473.514s-10.453-4.7-10.581-5.779-3.306-3.306-4.19-3.306-5.208-3.429-5.594-3.938a2.157,2.157,0,0,1-.129-.792c-.134-2.088.129-7.466.129-7.466l18.422,1.028,8.957,13.45a17.116,17.116,0,0,1,1.614,4.627,2.977,2.977,0,0,1-.154,1.661Z" transform="translate(-295.942 -417.084)" opacity="0.1"/>
    <path id="Caminho_272" data-name="Caminho 272" d="M573.467,798.941c-.889,1.779-7.2.638-8.473.514s-10.453-4.7-10.581-5.779-3.306-3.306-4.19-3.306-5.208-3.429-5.594-3.938a2.155,2.155,0,0,1-.129-.792l5.975,3.784s3.81,2.417,4.828,3.877,9.029,4.447,9.692,4.5c.514.051,5.759-.956,8.628-.514A2.977,2.977,0,0,1,573.467,798.941Z" transform="translate(-295.978 -424.139)" opacity="0.1"/>
    <path id="Caminho_273" data-name="Caminho 273" d="M403.364,781.325s-2.607,3.239-6.1,3.491a3.6,3.6,0,0,0-3.558,3.429s.638,1.974-7.81,4.7c-5.085,1.645-8.283,1.126-10.149,0a4.509,4.509,0,0,1-2.108-2.571c-.571-2.031,10.669-17.481,10.669-17.481l10.227-.638,7.306,3.306,1.116,4.18Z" transform="translate(-212.957 -417.638)" fill="#3f3d56"/>
    <path id="Caminho_274" data-name="Caminho 274" d="M403.364,781.325s-2.607,3.239-6.1,3.491a3.6,3.6,0,0,0-3.558,3.429s.638,1.974-7.81,4.7c-5.085,1.645-8.283,1.126-10.149,0a4.509,4.509,0,0,1-2.108-2.571c-.571-2.031,10.669-17.481,10.669-17.481l10.227-.638,7.306,3.306,1.116,4.18Z" transform="translate(-212.957 -417.638)" opacity="0.1"/>
    <path id="Caminho_275" data-name="Caminho 275" d="M405.375,788.437s-2.607,3.239-6.1,3.491a3.6,3.6,0,0,0-3.558,3.429s.638,1.974-7.81,4.7c-5.085,1.645-8.283,1.126-10.15,0,4.8-.514,15.389-3.527,16.453-4.576,1.27-1.275,2.859-4.766,3.938-4.828.746-.046,4.55-2.339,6.833-3.758Z" transform="translate(-214.969 -424.751)" fill="none"/>
    <path id="Caminho_276" data-name="Caminho 276" d="M405.375,788.437s-2.607,3.239-6.1,3.491a3.6,3.6,0,0,0-3.558,3.429s.638,1.974-7.81,4.7c-5.085,1.645-8.283,1.126-10.15,0,4.8-.514,15.389-3.527,16.453-4.576,1.27-1.275,2.859-4.766,3.938-4.828.746-.046,4.55-2.339,6.833-3.758Z" transform="translate(-214.969 -424.751)" opacity="0.1"/>
    <path id="Caminho_277" data-name="Caminho 277" d="M490.194,625.381c-1.141,2.669,0,8.129,0,8.129s-17.024.895-21.214-1.9-7.116-18.8-7.116-18.8.632-18.8,0-19.692-2.92-5.08-2.159-5.964-.638-5.594-1.65-7.625-.638-7.877-.638-7.877l-2.54-15.5-3.938-18.422-3.3-12.34s-3.429-10.036-4.6-14.232-2.391-.38-2.391-.38c-.123,4.067-9.527,22.361-9.527,22.361s-1.4,11.049-2.926,14.988-3.172,17.661-3.172,17.661-2.411,27.945-4.447,32.644a69.181,69.181,0,0,0-3.393,11.708s.514,9.656-.761,10.417-1.028,6.607-1.028,6.607.761,5.589-2.165,6.484-2.411,2.792-2.411,2.792-16.258,2.653-18.931-4.448,1.028-9.018,1.2-9.527,2.231-1.393.447-3.43,2.288-7.625,2.288-7.625.638-7.872,1.779-8.129.761-11.687.761-11.687l1.27-11.939s1.656-26.68,1.275-27.7-.129-6.1,1.141-8.509,2.278-24.644,2.278-24.644-.257-10.926.761-12.957c.576-1.152.864-5.579,1.028-9.193.1-2.751.134-5.034.134-5.034l14.222-5.337,18.3-5.841,15.373,7.363,22.484,4.319.283,3.882,4.273,59.277,2.417,22.361s1.028,10.54,1.147,12.443,1.393,14.36,1.393,14.36,2.668,5.969,1.028,8a3.976,3.976,0,0,0-1.028,3.687S491.356,622.713,490.194,625.381Z" transform="translate(-221.363 -275.86)" fill="#3f3d56"/>
    <path id="Caminho_278" data-name="Caminho 278" d="M429.124,181.419l-5.841,104.107-31.765-6.669-6.288-41.734,6.226-56.023,4.689.6,8.273,1.054,8.191.509,8.874-.992Z" transform="translate(-186.947 -87.743)" opacity="0.1"/>
    <path id="Caminho_279" data-name="Caminho 279" d="M429.124,182.909l-5.841,104.1-31.765-6.669-6.288-41.734,6.226-56.018,4.689.6,8.273,1.054,8.191.509,8.874-.992Z" transform="translate(-186.947 -88.467)" fill="#015eed"/>
    <path id="Caminho_280" data-name="Caminho 280" d="M481.38,271.66l11.435.38-3.214,4.5s.226,9.09,1.753,11.7,1.08,42.876,1.08,42.876l-3.023,5.779-5.208-6.478.062-53.164Z" transform="translate(-265.312 -174.426)" fill="#3f3d56"/>
    <path id="Caminho_281" data-name="Caminho 281" d="M481.38,271.66l11.435.38-3.214,4.5s.226,9.09,1.753,11.7,1.08,42.876,1.08,42.876l-3.023,5.779-5.208-6.478.062-53.164Z" transform="translate(-265.312 -174.426)" opacity="0.1"/>
    <path id="Caminho_282" data-name="Caminho 282" d="M444.579,165.66,433.91,177.475l6.1,6.35,10.1-9.841Z" transform="translate(-210.598 -80.242)" opacity="0.1"/>
    <path id="Caminho_283" data-name="Caminho 283" d="M505.43,248.442l-9.97,11.034,6.1,6.355,10.119-9.846-4.941-7.445a.812.812,0,0,0-1.306-.1Z" transform="translate(-272.153 -163.008)" fill="#015eed"/>
    <path id="Caminho_284" data-name="Caminho 284" d="M413.975,177.327l-10.8-10.8-1.018,5.651,4.956,12.386Z" transform="translate(-195.172 -80.664)" opacity="0.1"/>
    <path id="Caminho_285" data-name="Caminho 285" d="M414.715,175.842l-10.8-10.8L402.9,170.7l4.957,12.386Z" transform="translate(-195.532 -79.94)" fill="#015eed"/>
    <path id="Caminho_286" data-name="Caminho 286" d="M491.259,496a52.634,52.634,0,0,1-16.417,4.777c-10.478,1.337-17.337-12-17.337-12l-4,5.208c-1.27,5.527-20.649,6.921-28.52,4.823a12.479,12.479,0,0,1-4.514-2.139c.1-2.751.134-5.034.134-5.034l14.227-5.357,18.3-5.841,15.373,7.363,22.484,4.319Z" transform="translate(-235.719 -275.86)" opacity="0.1"/>
    <path id="Caminho_287" data-name="Caminho 287" d="M490.679,265.885l-5.841,104.1-31.76-6.684-6.288-41.729,6.226-56.043,4.689.6a56.863,56.863,0,0,1-.689,6.072c-.761,3.558,3.938,28.839,3.938,28.839s8.931,28.346,12.957,24.263,9.718-25.662,9.718-25.662c3.877-8.005.067-30.423-.221-30.9a9.074,9.074,0,0,1-.365-2.057Z" transform="translate(-248.507 -171.448)" opacity="0.1"/>
    <path id="Caminho_288" data-name="Caminho 288" d="M554.429,411.7l.267,10.2-2.936,2.663-2-24.68h4.381Z" transform="translate(-298.534 -236.721)" opacity="0.1"/>
    <path id="Caminho_289" data-name="Caminho 289" d="M424.258,386.31v.026a13.572,13.572,0,0,1-.35,2.437c0-.226,0-.355-.041-.37C423.682,388.32,423.9,387.39,424.258,386.31Z" transform="translate(-237.337 -230.128)" opacity="0.1"/>
    <path id="Caminho_290" data-name="Caminho 290" d="M427.23,398l-2,24.68s-3-2.72-6.89-6.268l.463-4.37s1.64-10.746,2.237-16.042a9.8,9.8,0,0,0,1.028,2.005Z" transform="translate(-234.685 -234.836)" opacity="0.1"/>
    <path id="Caminho_291" data-name="Caminho 291" d="M434.044,248.118s-1.9-2.792-4.5,2.607c0,0-6.8,3.938-9.147,4.381s-10.669,3.368-10.669,3.368a7.352,7.352,0,0,1-4.324,1.4c-2.6,0-4.761,5.712-4.442,8.828s-.19,5.4-2.607,5.527-1.08,5.142-1.08,5.142l16.073,18.422s1.028,16.967.514,17.481-2.355,5.46-1.908,5.656-2.417,18.931-2.417,18.931l-3.877,36.387s0,6.093,7.877,8.191,27.25.7,28.52-4.828l4-5.208s6.859,13.368,17.337,12.006a51.236,51.236,0,0,0,17.152-5.142L479.4,337.628l-.761-31.441,16.386-26.865s-4.381-8.386-4-12.2,1.147-6.684-8.191-8.005c0,0-7.877-1.172-12.515-4.381a35.671,35.671,0,0,0-8.957-4.509s-2.108-3.8-3.928-2.159c0,0,1.327,5.841,1.167,6.89a25.714,25.714,0,0,0,.571,6.17c.288.483,4.113,22.9.221,30.9,0,0-5.692,21.595-9.718,25.657s-12.957-24.263-12.957-24.263-4.7-25.276-3.938-28.834S434.044,248.118,434.044,248.118Z" transform="translate(-224.27 -162.638)" fill="#3f3d56"/>
    <circle id="Elipse_76" data-name="Elipse 76" cx="2.797" cy="2.797" r="2.797" transform="translate(220.577 163.164)" fill="#3f3d56"/>
    <circle id="Elipse_77" data-name="Elipse 77" cx="2.797" cy="2.797" r="2.797" transform="translate(220.577 176.342)" fill="#3f3d56"/>
    <circle id="Elipse_78" data-name="Elipse 78" cx="2.797" cy="2.797" r="2.797" transform="translate(220.577 163.164)" opacity="0.1"/>
    <circle id="Elipse_79" data-name="Elipse 79" cx="2.797" cy="2.797" r="2.797" transform="translate(220.577 176.342)" opacity="0.1"/>
    <path id="Caminho_292" data-name="Caminho 292" d="M544.43,754.93s11.471.89,12.617,1.779S544.43,754.93,544.43,754.93Z" transform="translate(-295.944 -409.219)" opacity="0.1"/>
    <path id="Caminho_293" data-name="Caminho 293" d="M411.58,737.39s2.417,3.049,1.4,4.447S411.58,737.39,411.58,737.39Z" transform="translate(-231.4 -400.697)" opacity="0.1"/>
    <path id="Caminho_294" data-name="Caminho 294" d="M417.26,757.186s4.447-2.92,6.226-.977S417.26,757.186,417.26,757.186Z" transform="translate(-234.16 -409.516)" opacity="0.1"/>
    <path id="Caminho_295" data-name="Caminho 295" d="M491.986,216.376v7.337a7.249,7.249,0,0,1-2.91.612H469.82a7.2,7.2,0,0,1-2.92-.617v-7.332a7.332,7.332,0,0,1,7.311-7.306H484.68A7.332,7.332,0,0,1,491.986,216.376Z" transform="translate(-258.277 -144.017)" opacity="0.1"/>
    <path id="Caminho_296" data-name="Caminho 296" d="M467.915,162v5.419a1.183,1.183,0,0,1-2.365,0v-4.561a6.977,6.977,0,0,1,2.365-.859Z" transform="translate(-257.621 -121.149)" opacity="0.1"/>
    <rect id="Retângulo_152" data-name="Retângulo 152" width="33.873" height="37.744" rx="12" transform="translate(204.232 41.345)" fill="#dcdfed"/>
    <path id="Caminho_297" data-name="Caminho 297" d="M491.82,210.576v15.389H472.58v-15.42a7.26,7.26,0,0,1,4.391-1.476h10.468a7.291,7.291,0,0,1,4.381,1.506Z" transform="translate(-261.037 -144.017)" opacity="0.1"/>
    <rect id="Retângulo_153" data-name="Retângulo 153" width="19.852" height="39.359" transform="translate(211.158 41.345)" opacity="0.1"/>
    <rect id="Retângulo_154" data-name="Retângulo 154" width="19.255" height="39.359" transform="translate(211.543 41.345)" fill="#6f758d"/>
    <rect id="Retângulo_155" data-name="Retângulo 155" width="6.226" height="1.152" transform="translate(212.957 54.924)" fill="#dcdfed"/>
    <rect id="Retângulo_156" data-name="Retângulo 156" width="6.226" height="1.152" transform="translate(223.312 54.924)" fill="#dcdfed"/>
    <rect id="Retângulo_157" data-name="Retângulo 157" width="10.509" height="0.689" transform="translate(215.914 67.644)" fill="#dcdfed"/>
    <path id="Caminho_298" data-name="Caminho 298" d="M748.291,243.48l7.445,36.783a1.954,1.954,0,0,0,1.728,1.543l4.962.483a20.91,20.91,0,0,1,.992,1.98c.884,2.057,1.46,4.525,3.368,5.743,1.028,1.028,3.347.848,4.674.853a11.944,11.944,0,0,1,4.113.571,2,2,0,0,0-.463,0,17.852,17.852,0,0,1,2.5,1.234c.062.082.129.165.18.247.211.324.38.715.735.874-.1.206.386.211,1.167.1a.855.855,0,0,1,.221.072,1.7,1.7,0,0,1,.514.54c1.291,1.717,3.687,2.144,5.846,2.2s4.442-.093,6.345.931c.452.242.874.545,1.347.751a2.267,2.267,0,0,0,.026.674,11.867,11.867,0,0,0,.864,2.057,2.463,2.463,0,0,1,.051,2.17c-.159.278-.416.514-.581.771A3.138,3.138,0,0,0,794,305.5a20.742,20.742,0,0,0,.345,6.977c.37,1.311,1,2.674.586,3.969a12.592,12.592,0,0,0-.946,2.257,6.042,6.042,0,0,0,.73,2.483c.715,1.938.324,4.262-.17,6.262a.844.844,0,0,0,.1.046,5.977,5.977,0,0,0-.895,1.414,12.1,12.1,0,0,0-.679,5.5,42.012,42.012,0,0,0,1.2,10.407,7.057,7.057,0,0,1,.339,1.476,5.936,5.936,0,0,1-.123,1.414c-.231,1.347-.514,2.689-.848,4.016a4.626,4.626,0,0,0-.221,1.764,8.043,8.043,0,0,0,.91,2.17c1.29,2.869-.1,6.4,1.157,9.286.3.684.735,1.3.992,2,.566,1.542.247,3.208.437,4.813a26.824,26.824,0,0,0,.833,3.352c.91,3.568-.6,7.373.283,10.952a41.416,41.416,0,0,1,1.542,9.311c.046,2.2-.257,4.391,0,6.571a6.4,6.4,0,0,0,6.273,6.545c2.211,11.5,2.082,23.358,4.005,34.922.386,2.334.859,4.627,1.1,7.008,1.1,11-3.013,21.682-5.332,32.556l-.37.226c-2.854,1.779-5.892,3.784-7.023,6.931a2.662,2.662,0,0,0,.35,2.895,6.272,6.272,0,0,1,.823.638c.622.751.077,2.1.828,2.715a11.923,11.923,0,0,0,1.486.154q-.514,1.224-1.028,2.453a3.642,3.642,0,0,0-.437,2.283,6.135,6.135,0,0,0,.715,1.373,7.892,7.892,0,0,1,.73,3.7,1.687,1.687,0,0,0,.324,1.188,1.569,1.569,0,0,0,.483.3,14.273,14.273,0,0,0,14.15-1.542,1.6,1.6,0,0,0,.483-.483,1.894,1.894,0,0,0,.139-.416c.324-1.332.653-2.663.977-4,.041-.154.077-.314.118-.468.38-1.573.766-3.142,1.152-4.715.514-2.211,1.075-4.427,1.45-6.684v8.149a18.66,18.66,0,0,0,.067,1.938h1.62a.216.216,0,0,0,.206-.087,1.167,1.167,0,0,0,.1-.514q.118-2.406.17-4.823c.067-2.818.077-5.656.026-8.463a26.752,26.752,0,0,0-.041-2.828,14.037,14.037,0,0,0,.658-1.918c.262-.884.514-1.779.73-2.679a3.7,3.7,0,0,1,1.028,0,78.506,78.506,0,0,1-1.506,15.466c1,.931,2.761.391,3.563-.72a7.756,7.756,0,0,0,1.028-3.908c.375-4.463,1.1-8.89,1.82-13.312a6.137,6.137,0,0,1,.643-2.185c.344-.586.884-1.028,1.188-1.656a4.561,4.561,0,0,0,.278-2.468,10.612,10.612,0,0,0-1.861-5.5,5.494,5.494,0,0,0-4.807-2.247l-.113-.206c-1.059-2.123-.951-4.627-.817-6.972q.221-4,.452-8c.437-2.941.782-5.882.987-8.828.514-1.892,1.208-3.733,1.671-5.656,0-1.866.663-3.81.684-5.728a37.888,37.888,0,0,0-.447-5.959c-.586-4.052-1.645-8.016-2.524-12.006-.144-.674-.237-1.388-.334-2.093a8.186,8.186,0,0,0,1.635-1.255c-.9-6.993-1.717-14.5,1.594-20.731.982-1.841,2.324-3.6,2.669-5.656.087-.514.113-1.059.221-1.578a9.086,9.086,0,0,1,.643-1.779l6.55-14.833,1.059-2.386c1.136-2.571,2.273-5.142,3.244-7.8,1.141-3.085,2.057-6.288,2.915-9.471a21.126,21.126,0,0,0,.992-5.825,14.475,14.475,0,0,0-1.219-5.08c-.154-.365-.319-.725-.514-1.085.2-.062.4-.108.591-.17.437-3.111.807-6.54-.946-9.142a5.14,5.14,0,0,1-.818-1.378c-.314-1.064.365-2.149.581-3.239.442-2.226-1.059-4.319-2.345-6.2a2.847,2.847,0,0,1-.453-.833c-.237-.854.283-1.8.293-2.668a1.507,1.507,0,0,0-.149-.663c4.962.288,9.857,1.584,14.834,1.774,3.152.123,6.684-.37,8.684-2.776a9.488,9.488,0,0,0,1.861-5.558c.226-3.656-.514-7.3-1.131-10.91-.4-2.453-.72-4.92-.972-7.4.514.046,1.028.072,1.542.072a15.148,15.148,0,0,0,8.448-2.057c2.437-1.625,4.067-4.725,3.3-7.548-.432-1.594-1.542-2.91-2.355-4.345-2.869-5.064-2.057-11.507.411-16.787,1.157-2.5,2.689-5.09,2.226-7.8-.658-3.8-4.756-5.784-7.831-8.149a20.566,20.566,0,0,1-7.795-17.852c.236-2.5.92-5.142-.082-7.45-1.08-2.473-3.748-3.774-6-5.275a24.025,24.025,0,0,1-8.16-9.332c-1.147-2.345-2.093-4.494-4.8-5.3a14.1,14.1,0,0,0-6.648-.123l.453-.216c-.206.036-.411.077-.607.123l-.319.087a14.4,14.4,0,0,0-6.283.036c-4.18,1-8.741,4.005-12.165,6.478a16.679,16.679,0,0,0-2.807,2.463c-.087.1-.185.185-.273.283a6.55,6.55,0,0,0-1.028,1.517,5.929,5.929,0,0,0-.4,1.255,10.623,10.623,0,0,0-.427,3.661,7.631,7.631,0,0,0-.514.787,16.062,16.062,0,0,0,4.247,21.631,28.608,28.608,0,0,1-2.175,4.041c-.884,1.429-1.82,2.833-2.777,4.216L802.159,237.3c-.648.206-1.3.406-1.918.668a8.938,8.938,0,0,0-2.1,1.255,7.563,7.563,0,0,0-2.818,6.931c.046.267.108.514.17.792-.309,1.573-.545,3.172-.782,4.761-.308,2.144-.617,4.288-.9,6.437a13.221,13.221,0,0,0-1.337,6.874,33.973,33.973,0,0,0,.375,4.278c-.036,1.26-.051,2.519,0,3.779a39.287,39.287,0,0,1,0,4.8,29.426,29.426,0,0,1-.854,4.319.931.931,0,0,1-.38.653l-.118.031-.689-.067-.761-.087a2.418,2.418,0,0,0-.026-.324l-8.108-39.667a1.954,1.954,0,0,0-1.923-1.542H750.209a1.949,1.949,0,0,0-1.918,2.293Zm94.359,47.359a4.008,4.008,0,0,1,.221-.478c.3-.514.746-.936,1.028-1.455a2.124,2.124,0,0,0,0-1.882c-.293-.514.514-1,.751-1.542a3.487,3.487,0,0,0,.077-1.332,4.206,4.206,0,0,1,.838-2.057c.566-.895,1.136-1.779,1.717-2.663.17-.267.35-.514.514-.792a5.436,5.436,0,0,0,.314.514,4.736,4.736,0,0,1,.946,1.635,7.466,7.466,0,0,1,0,1.27c0,1.316.833,2.473,1.465,3.635s1.1,2.617.437,3.764c-.231.4-.514,1.028-.118,1.213.221.1.514,0,.7.144.267.242-.1.648-.432.8a8.812,8.812,0,0,1-6.982,0C843.667,291.369,843.164,291.091,842.65,290.839Zm-63.242-6.879,8.227.807a4.489,4.489,0,0,1-2.2.452l-1.995-.6a1.414,1.414,0,0,1-.067.36c-.375-.1-.756-.19-1.131-.278-.961-.226-1.908-.478-2.848-.746Z" transform="translate(-394.973 -133.495)" fill="url(#linear-gradient-2)"/>
    <path id="Caminho_299" data-name="Caminho 299" d="M898.9,196.568a23.847,23.847,0,0,0,8.062,9.255c2.226,1.5,4.859,2.792,5.928,5.25,1,2.293.319,4.92.087,7.414a20.474,20.474,0,0,0,7.712,17.754c3.039,2.35,7.1,4.324,7.743,8.108.463,2.7-1.028,5.28-2.2,7.764-2.417,5.255-3.244,11.661-.406,16.695a20.114,20.114,0,0,1,2.329,4.324c.761,2.812-.853,5.877-3.265,7.512a14.761,14.761,0,0,1-8.35,2.057c-2.118,0-4.412-.319-5.913-1.8a9.265,9.265,0,0,1-1.985-3.717l-3.681-10.407a13.853,13.853,0,0,0-2.761-5.234c-2.951-3.013-7.774-2.694-11.99-2.643a55.243,55.243,0,0,1-18.284-2.884c-3.445-1.162-7.2-3.142-8-6.684-.787-3.465,1.584-6.766,3.671-9.64q2.345-3.213,4.432-6.607a19.024,19.024,0,0,0,3.028-7.07c.622-4.247-1.368-8.37-2.91-12.376s-2.617-8.741-.375-12.4a13.256,13.256,0,0,1,3.635-3.6c3.368-2.463,7.892-5.445,12.026-6.448a13.97,13.97,0,0,1,6.725.093C896.83,192.084,897.766,194.218,898.9,196.568Z" transform="translate(-451.098 -135.15)" fill="#3f3d56"/>
    <path id="Caminho_300" data-name="Caminho 300" d="M823.876,298.46a52.021,52.021,0,0,0-1.753,8.617c-1.028,7.049-2.057,14.139-1.861,21.255a40,40,0,0,1,0,4.777,29.742,29.742,0,0,1-.843,4.293.911.911,0,0,1-.38.648c-.242.118-.514,0-.8-.031-.915-.113-1.589.771-2.3,1.368a4.36,4.36,0,0,1-4.951.365,5.522,5.522,0,0,1-2.113,5.656,7.445,7.445,0,0,1-6.108,1.147,2.879,2.879,0,0,1,2.653,1.476c.206.324.37.71.72.869s.962-.041,1.373.175a1.741,1.741,0,0,1,.514.514c1.275,1.712,3.645,2.134,5.779,2.19s4.391-.087,6.273.925q.672.423,1.383.776a4.275,4.275,0,0,0,4.4-1.1,9.5,9.5,0,0,0,2.262-4.17c1.9-6.17,1.542-12.808,1.141-19.266C828.643,318.677,827.336,308.162,823.876,298.46Z" transform="translate(-421.457 -187.447)" fill="#454b69"/>
    <path id="Caminho_301" data-name="Caminho 301" d="M823.876,298.46a52.021,52.021,0,0,0-1.753,8.617c-1.028,7.049-2.057,14.139-1.861,21.255a40,40,0,0,1,0,4.777,29.742,29.742,0,0,1-.843,4.293.911.911,0,0,1-.38.648c-.242.118-.514,0-.8-.031-.915-.113-1.589.771-2.3,1.368a4.36,4.36,0,0,1-4.951.365,5.522,5.522,0,0,1-2.113,5.656,7.445,7.445,0,0,1-6.108,1.147,2.879,2.879,0,0,1,2.653,1.476c.206.324.37.71.72.869s.962-.041,1.373.175a1.741,1.741,0,0,1,.514.514c1.275,1.712,3.645,2.134,5.779,2.19s4.391-.087,6.273.925q.672.423,1.383.776a4.275,4.275,0,0,0,4.4-1.1,9.5,9.5,0,0,0,2.262-4.17c1.9-6.17,1.542-12.808,1.141-19.266C828.643,318.677,827.336,308.162,823.876,298.46Z" transform="translate(-421.457 -187.447)" opacity="0.1"/>
    <path id="Caminho_302" data-name="Caminho 302" d="M882.37,635.515c-.514,2.226-1.414,4.365-1.892,6.607a38.821,38.821,0,0,0-.627,5.831l-.55,9.913c-.134,2.35-.242,4.823.8,6.931.725,1.46,1.98,2.684,2.339,4.278.555,2.494-1.229,4.843-2.895,6.782l-8.227,9.517c-2.571,2.982-5.383,6.118-9.193,7.131a3.084,3.084,0,0,1-1.758.062,2.494,2.494,0,0,1-1.424-2.746,7.047,7.047,0,0,1,1.46-2.982c2.149-3.018,4.458-5.99,5.856-9.424,1.774-4.365,1.954-9.2,1.846-13.918-.406-19.219-5.255-38.217-4.7-57.421,4.2-.319,8.556-1.028,12.756-.977,3.748.041,3.3,3.861,3.954,6.864.869,3.974,1.913,7.913,2.5,11.944a38.138,38.138,0,0,1,.437,5.928C883.028,631.726,882.37,633.659,882.37,635.515Z" transform="translate(-448.735 -336.422)" fill="#fbbebe"/>
    <path id="Caminho_303" data-name="Caminho 303" d="M882.37,635.515c-.514,2.226-1.414,4.365-1.892,6.607a38.821,38.821,0,0,0-.627,5.831l-.55,9.913c-.134,2.35-.242,4.823.8,6.931.725,1.46,1.98,2.684,2.339,4.278.555,2.494-1.229,4.843-2.895,6.782l-8.227,9.517c-2.571,2.982-5.383,6.118-9.193,7.131a3.084,3.084,0,0,1-1.758.062,2.494,2.494,0,0,1-1.424-2.746,7.047,7.047,0,0,1,1.46-2.982c2.149-3.018,4.458-5.99,5.856-9.424,1.774-4.365,1.954-9.2,1.846-13.918-.406-19.219-5.255-38.217-4.7-57.421,4.2-.319,8.556-1.028,12.756-.977,3.748.041,3.3,3.861,3.954,6.864.869,3.974,1.913,7.913,2.5,11.944a38.138,38.138,0,0,1,.437,5.928C883.028,631.726,882.37,633.659,882.37,635.515Z" transform="translate(-448.735 -336.422)" opacity="0.05"/>
    <path id="Caminho_304" data-name="Caminho 304" d="M873.968,721.612a5.319,5.319,0,0,1,5.085,2.2,10.625,10.625,0,0,1,1.841,5.471,4.567,4.567,0,0,1-.272,2.453c-.3.6-.833,1.064-1.177,1.645a6.171,6.171,0,0,0-.638,2.175c-.709,4.4-1.424,8.8-1.8,13.24a7.462,7.462,0,0,1-1.028,3.887c-.807,1.1-2.53,1.645-3.517.715a78.771,78.771,0,0,0,1.486-15.379c-2.242-.308-4.19,1.455-5.656,3.178a50.034,50.034,0,0,0-4.113,5.573,35.044,35.044,0,0,1-3.6,5.229,13.183,13.183,0,0,1-11.635,3.98c-.74-.612-.2-1.954-.818-2.7a6.159,6.159,0,0,0-.792-.653,2.647,2.647,0,0,1-.344-2.874c1.121-3.136,4.113-5.142,6.941-6.895,5.111-3.208,10.283-6.37,15.425-9.481a10.179,10.179,0,0,0,4.252-5.208C873.793,727.627,874.6,721.4,873.968,721.612Z" transform="translate(-442.817 -392.991)" fill="#3f3d56"/>
    <path id="Caminho_305" data-name="Caminho 305" d="M873.968,721.612a5.319,5.319,0,0,1,5.085,2.2,10.625,10.625,0,0,1,1.841,5.471,4.567,4.567,0,0,1-.272,2.453c-.3.6-.833,1.064-1.177,1.645a6.171,6.171,0,0,0-.638,2.175c-.709,4.4-1.424,8.8-1.8,13.24a7.462,7.462,0,0,1-1.028,3.887c-.807,1.1-2.53,1.645-3.517.715a78.771,78.771,0,0,0,1.486-15.379c-2.242-.308-4.19,1.455-5.656,3.178a50.034,50.034,0,0,0-4.113,5.573,35.044,35.044,0,0,1-3.6,5.229,13.183,13.183,0,0,1-11.635,3.98c-.74-.612-.2-1.954-.818-2.7a6.159,6.159,0,0,0-.792-.653,2.647,2.647,0,0,1-.344-2.874c1.121-3.136,4.113-5.142,6.941-6.895,5.111-3.208,10.283-6.37,15.425-9.481a10.179,10.179,0,0,0,4.252-5.208C873.793,727.627,874.6,721.4,873.968,721.612Z" transform="translate(-442.817 -392.991)" opacity="0.05"/>
    <path id="Caminho_306" data-name="Caminho 306" d="M880.608,629.953c1.028,12.854-1.851,25.626-4.411,38.248a14.2,14.2,0,0,0-.391,3.085,23.082,23.082,0,0,0,.622,3.81c.967,5.208-.273,10.551-1.5,15.708-.859,3.568-2.057,7.6-5.388,9.157-2.35,1.1-5.1.622-7.64.118a4.544,4.544,0,0,1-2.309-.925c-.915-.864-.951-2.288-.874-3.543.884-14.175,8.062-27.765,6.684-41.9-.231-2.339-.7-4.653-1.085-6.972-1.985-12.026-1.748-24.371-4.262-36.294a2.211,2.211,0,0,1,0-1.265,2.134,2.134,0,0,1,.982-.931,20.427,20.427,0,0,1,7.486-3,9.236,9.236,0,0,1,6.489,1.234c1.846,1.363,1.969,4.293,2.509,6.432A106.853,106.853,0,0,1,880.608,629.953Z" transform="translate(-448.624 -336.439)" fill="#fbbebe"/>
    <path id="Caminho_307" data-name="Caminho 307" d="M892.912,777.6a1.138,1.138,0,0,1-.1.514.216.216,0,0,1-.2.092h-1.6a18.48,18.48,0,0,1-.072-1.933v-4.365c0-3.465,0-6.936.154-10.381a1.169,1.169,0,0,1,.057-.37.345.345,0,0,1,.175-.17c.381-.18,1.27-.735,1.6-.093s.18,2.648.2,3.486c.051,2.8.046,5.615,0,8.417Q893.025,775.2,892.912,777.6Z" transform="translate(-464.291 -411.97)" fill="#3f3d56"/>
    <path id="Caminho_308" data-name="Caminho 308" d="M838.781,476.83a5.947,5.947,0,0,1-.123,1.409c-.231,1.337-.514,2.668-.838,3.99a4.68,4.68,0,0,0-.221,1.758,8.091,8.091,0,0,0,.9,2.154c1.275,2.854-.1,6.37,1.147,9.255.293.679.725,1.3.982,1.99.56,1.512.242,3.188.432,4.787a26.112,26.112,0,0,0,.823,3.337c.9,3.548-.591,7.332.278,10.895a42.162,42.162,0,0,1,1.542,9.255c.041,2.18-.257,4.365,0,6.535a7.424,7.424,0,0,0,3,5.558,9.32,9.32,0,0,0,4.987,1.028c3.316.062,6.648-.036,9.959-.293s6.874-.8,9.209-3.152c-.889-6.957-1.7-14.422,1.578-20.623.967-1.83,2.293-3.553,2.638-5.6.082-.514.108-1.054.216-1.573a8.923,8.923,0,0,1,.638-1.764L882.4,491.02l1.028-2.375c1.121-2.571,2.247-5.142,3.214-7.759,1.126-3.085,2.021-6.252,2.879-9.419a20.382,20.382,0,0,0,.977-5.8,14.312,14.312,0,0,0-1.2-5.054c-.386-.931-.828-1.846-1.285-2.74a135.311,135.311,0,0,0-39.23-3.357,21.71,21.71,0,0,0-6.17,1.028,9.1,9.1,0,0,0-3.6,2.334,6.364,6.364,0,0,0-1.1,1.656,12.209,12.209,0,0,0-.668,5.476,42.045,42.045,0,0,0,1.188,10.35,7.411,7.411,0,0,1,.35,1.47Z" transform="translate(-438.192 -263.144)" fill="#3f3d56"/>
    <path id="Caminho_309" data-name="Caminho 309" d="M854.458,760.012a14.557,14.557,0,0,0,6.653,2.8,8.078,8.078,0,0,0,6.17-1.249c1.933-1.542,2.571-4.113,3.147-6.519l.735-3.2c.267-1.152.514-2.3.735-3.465a37.1,37.1,0,0,0,.514-9.3c1.743.679,2.792,2.756,2.905,4.627a16.267,16.267,0,0,1-.992,5.5,10.541,10.541,0,0,1-.956,2.5,18.284,18.284,0,0,0-.987,1.542,7.714,7.714,0,0,0-.566,2.571,71.46,71.46,0,0,1-1.717,8.561l-1.141,4.689-.113.468-1,3.949a1.5,1.5,0,0,1-.139.411,1.541,1.541,0,0,1-.473.483,14.047,14.047,0,0,1-14,1.512,1.7,1.7,0,0,1-.478-.3,1.681,1.681,0,0,1-.314-1.183,7.923,7.923,0,0,0-.725-3.681,6.058,6.058,0,0,1-.7-1.368,3.629,3.629,0,0,1,.427-2.267l2.36-5.527A5.141,5.141,0,0,1,854.458,760.012Z" transform="translate(-444.866 -401.513)" fill="#3f3d56"/>
    <path id="Caminho_310" data-name="Caminho 310" d="M867.94,294.584a14.731,14.731,0,0,0,.715,3.6,5.075,5.075,0,0,0,1.465,2.17c1.1-1.486,3.085-1.995,4.545-3.085a16.44,16.44,0,0,0,3.162-3.6c1.892-2.53,4.113-4.823,6.17-7.239.309-.365.612-.73.91-1.105a32.383,32.383,0,0,0,2.833-4.041c1.707-2.936,2.874-6.314,5.44-8.54,1.4-1.208,3.152-2.01,4.4-3.383a11.312,11.312,0,0,1-1.455-4.211,43.122,43.122,0,0,1-.73-4.3c-.046-.38-.072-.766-.087-1.152a3.6,3.6,0,0,0-.026-.514c0-1.177.761-3.2-.442-3.866a9.484,9.484,0,0,0-4.221-.6H890.4a15.5,15.5,0,0,0-8.489,2.632,5.316,5.316,0,0,0-1.47,1.342,5.752,5.752,0,0,0-.658,3.491c0,.283.026.56.046.833v.411a5,5,0,0,1-1.028,3.779c-1.028,1.028-2.663,1.075-4.057,1.512-.231.072-.452.154-.668.242a8.987,8.987,0,0,0-3.779,3.2,15.536,15.536,0,0,0-2.19,5.27,29.816,29.816,0,0,0-.73,5.142A70.706,70.706,0,0,0,867.94,294.584Z" transform="translate(-452.805 -166.193)" fill="#fbbebe"/>
    <path id="Caminho_311" data-name="Caminho 311" d="M891.569,263.012v.411c1.707.622,5.861-1.126,7.784-1.126,3.815,0,4.993.756,7.754-1.47-.062-.545-.1-1.1-.113-1.645,0-1.177.761-3.2-.442-3.867s-3.131-.617-4.432-.6a15.5,15.5,0,0,0-8.489,2.632,5.317,5.317,0,0,0-1.47,1.342C891.353,259.922,891.481,261.541,891.569,263.012Z" transform="translate(-464.567 -166.189)" opacity="0.1"/>
    <path id="Caminho_312" data-name="Caminho 312" d="M871.078,224.757A16.055,16.055,0,1,0,887.132,208.7a16.047,16.047,0,0,0-16.055,16.057Z" transform="translate(-454.642 -143.838)" fill="#fbbebe"/>
    <path id="Caminho_313" data-name="Caminho 313" d="M893.911,276.111a3.352,3.352,0,0,1,1.779-.761,2.525,2.525,0,0,1,2.113,1.635c.391.859.514,1.815.848,2.7a5.9,5.9,0,0,0,2.375,2.89,6.744,6.744,0,0,1,2.175,1.542c.818,1.157.319,2.771-.37,4.01-2.571,4.627-7.2,7.64-11.677,10.479l-5.039,3.2a67.619,67.619,0,0,1-6.262,3.676c-3.5,1.722-7.275,2.828-10.751,4.586a17.6,17.6,0,0,1-4.936,2.057,16.287,16.287,0,0,1-.7-3.661c-.859-7.666-1.707-15.5,0-23.019a8.205,8.205,0,0,1,1.774-3.964,8.712,8.712,0,0,1,2.237-1.542,63.534,63.534,0,0,1,6.283-2.946,7.126,7.126,0,0,1,3.229-.715,6.78,6.78,0,0,1-.735,2.4l-8.1,18.026a8.144,8.144,0,0,0-.987,3.558c.062,1.769,1.255,3.491.766,5.193a120.88,120.88,0,0,1,16.1-18.972,2.569,2.569,0,0,0,.643-.8,3.207,3.207,0,0,0,.093-1.486,3.47,3.47,0,0,1,.931-2.843,21.148,21.148,0,0,1,1.969-.956C889.8,279.057,891.839,277.54,893.911,276.111Z" transform="translate(-450.466 -176.219)" fill="#015eed"/>
    <path id="Caminho_314" data-name="Caminho 314" d="M840.14,459.311a34.591,34.591,0,0,0,13.008,3.6,101.249,101.249,0,0,0,13.569.077c3.435-.123,6.864-.262,10.283-.386a51.84,51.84,0,0,0,13.718-1.969c-.386-.931-.828-1.846-1.285-2.74a135.31,135.31,0,0,0-39.23-3.357,21.712,21.712,0,0,0-6.17,1.028,9.094,9.094,0,0,0-3.6,2.334C840.361,458.376,840.248,458.849,840.14,459.311Z" transform="translate(-439.612 -263.154)" opacity="0.1"/>
    <path id="Caminho_315" data-name="Caminho 315" d="M838.9,324.022c1.779,6.011.561,12.587-.55,18.751a1.785,1.785,0,0,0-.725,1.954,12.335,12.335,0,0,0,.854,2.057,2.447,2.447,0,0,1,.051,2.154c-.159.283-.411.514-.576.771a3.166,3.166,0,0,0-.319,1.434,20.794,20.794,0,0,0,.339,6.941c.365,1.306.987,2.663.576,3.949a12.64,12.64,0,0,0-.931,2.247,6.058,6.058,0,0,0,.72,2.473c.7,1.923.324,4.237-.165,6.226a34.593,34.593,0,0,0,13.008,3.6,102.125,102.125,0,0,0,13.569.082l10.283-.391a51.523,51.523,0,0,0,13.821-2c.432-3.085.8-6.5-.936-9.09a5.142,5.142,0,0,1-.807-1.373c-.309-1.059.36-2.134.576-3.219.437-2.216-1.028-4.3-2.324-6.17a2.918,2.918,0,0,1-.442-.828c-.237-.853.278-1.794.288-2.653a1.545,1.545,0,0,0-.165-.72c-.19-.36-.545-.607-.74-.967a2.627,2.627,0,0,1-.175-1.481q.355-4.818,1.162-9.589c.051-.288.1-.581.17-.869a4.779,4.779,0,0,1,.473-1.26c.3-.514.735-.931,1.028-1.45a2.093,2.093,0,0,0,0-1.866c-.293-.54.514-1,.745-1.542a3.425,3.425,0,0,0,.072-1.321,4.272,4.272,0,0,1,.828-2.057c.56-.889,1.126-1.769,1.7-2.648q3.841-5.949,7.985-11.687,2.021-2.761,4.077-5.471a16.094,16.094,0,0,0,2.8-4.679,7.154,7.154,0,0,0,.231-.926,7.9,7.9,0,0,0-.689-4.926,25.447,25.447,0,0,0-2.54-3.6,42.711,42.711,0,0,0-2.936-3.949,6.113,6.113,0,0,0-4.273-2.149c-.951,0-2.057.267-2.72-.411-.242-.247-.37-.576-.617-.807-.7-.663-1.841-.211-2.679.262l-16.078,9.085-2.607,1.481c-.473.283-.956.56-1.429.848a55.614,55.614,0,0,0-6.442,4.37C859.413,305,856.117,307.2,853.52,310c-.242.257-.483.514-.715.8q-.7-4.905-1.4-9.826a12.383,12.383,0,0,1-.185-2.859,12.578,12.578,0,0,1,.689-2.756c.1-.314.216-.638.319-.956l1.733-5.2c.848-2.545,1.753-5.193,3.671-7.07a9.9,9.9,0,0,0,1.275-1.311v-.026a1.923,1.923,0,0,0,.314-1.692l-13.543,4.226c-.638.2-1.28.4-1.892.663a8.963,8.963,0,0,0-2.057,1.249,7.537,7.537,0,0,0-2.782,6.895c.134.843.432,1.656.607,2.489.308,1.512.8,3.26.139,4.658s-1.249,2.648-1.867,3.969a19.806,19.806,0,0,0-1.265,3.136,15.491,15.491,0,0,0-.437,4.514,34.008,34.008,0,0,0,1.738,9.964C838.183,321.924,838.584,322.963,838.9,324.022Z" transform="translate(-437.65 -178.041)" fill="#454b69"/>
    <path id="Caminho_316" data-name="Caminho 316" d="M798.1,294.806l-32.114-3.023-5.609-.632,5.157,1.825Z" transform="translate(-369.21 -141.21)" fill="#3f3d56"/>
    <path id="Caminho_317" data-name="Caminho 317" d="M801.418,297.408v-2.417l-34.042-1.681-1.656,1.424Z" transform="translate(-371.804 -142.259)" fill="#3f3d56"/>
    <path id="Caminho_318" data-name="Caminho 318" d="M876.271,374.15c-.715-.19-1.481-.154-2.206-.324a25.512,25.512,0,0,0-2.735-.92,6.171,6.171,0,0,0-1.764.129l-4.406.771c-.339.057-.74.165-.859.488a.843.843,0,0,0,.272.812,4.644,4.644,0,0,0,3.2,1.028l3.085.185a3.6,3.6,0,0,1,1.723.391,1.255,1.255,0,0,1,.581,1.542,1.62,1.62,0,0,1-.7.632,6.586,6.586,0,0,1-4.021.761,18.991,18.991,0,0,1-3.275-.936,20.772,20.772,0,0,0-8.386-.884c-.73.072-1.589.283-1.851.972a1.542,1.542,0,0,0,.3,1.414c1.1,1.542,3.28,1.584,5.142,1.995a10.541,10.541,0,0,1,4.689,2.432,3.142,3.142,0,0,0,.339,2.668,17.371,17.371,0,0,0,1.651,2.73,3.492,3.492,0,0,0,1.383,1.244,3.538,3.538,0,0,0,1.162.2A49.307,49.307,0,0,0,881,390.86a1.846,1.846,0,0,0,1.1-.458,1.882,1.882,0,0,0,.355-.895q.586-2.879,1.028-5.789a5.756,5.756,0,0,0-.339-3.635c-.468-.884-1.208-1.172-1.964-1.769C879.485,376.988,878.436,374.725,876.271,374.15Z" transform="translate(-446.766 -223.608)" fill="#fbbebe"/>
    <path id="Caminho_319" data-name="Caminho 319" d="M784.375,296.208l7.975,39.549a1.938,1.938,0,0,1-2.093,2.309L760.2,335.1a1.928,1.928,0,0,1-1.707-1.542l-7.368-36.588a1.938,1.938,0,0,1,1.9-2.319h29.456a1.943,1.943,0,0,1,1.9,1.558Z" transform="translate(-396.347 -185.596)" fill="#3f3d56"/>
    <path id="Caminho_320" data-name="Caminho 320" d="M780.223,373.626c-1.892-1.213-2.458-3.645-3.337-5.712a35.489,35.489,0,0,0-2.411-4.4c-.766-1.265-1.542-2.8-.926-4.149a3.872,3.872,0,0,1,2.211-1.8,4.381,4.381,0,0,1,2.73-.334,5.5,5.5,0,0,1,2.494,1.949l2.478,2.874a16.169,16.169,0,0,0,3.784,3.543A14.236,14.236,0,0,0,790.1,366.8q2.668.884,5.4,1.542a14.5,14.5,0,0,1,3.044.941,1.568,1.568,0,0,1,.895.833,1.789,1.789,0,0,1-.314,1.363c-.627,1.172-1.342,3.553-2.658,3.969a21.465,21.465,0,0,1-3.769.591,6.64,6.64,0,0,1-3.373-.854,11.04,11.04,0,0,0-4.458-.715C783.529,374.469,781.256,374.659,780.223,373.626Z" transform="translate(-407.151 -215.958)" fill="#fbbebe"/>
    <path id="Caminho_321" data-name="Caminho 321" d="M810.977,378.77s-1.111,7.61-8.227,6.792c0,0,3.769,1.507,3.373,2.345s8.741-1.635,8.741-1.635l.473-3.969s.3-2.185,0-2.247S810.977,378.77,810.977,378.77Z" transform="translate(-421.447 -226.465)" fill="#454b69"/>
    <path id="Caminho_322" data-name="Caminho 322" d="M810.977,378.77s-1.111,7.61-8.227,6.792c0,0,3.769,1.507,3.373,2.345s8.741-1.635,8.741-1.635l.473-3.969s.3-2.185,0-2.247S810.977,378.77,810.977,378.77Z" transform="translate(-421.447 -226.465)" opacity="0.1"/>
    <path id="Caminho_323" data-name="Caminho 323" d="M878.243,317a3.856,3.856,0,0,0-1.645,1.6,11.315,11.315,0,0,0-1.337,3.054c-.35,1.311-.514,2.776-1.481,3.722" transform="translate(-455.956 -196.454)" opacity="0.1"/>
    <path id="Caminho_324" data-name="Caminho 324" d="M940.168,339.711a7.44,7.44,0,0,0,.6,5.522q3.841-5.949,7.985-11.687,1.99-2.746,4.046-5.455a16.092,16.092,0,0,0,2.8-4.679,7.164,7.164,0,0,0,.232-.926,5.142,5.142,0,0,0-2.879-2.057c-1.866,5.409-6.6,9.286-9.975,13.908A15.8,15.8,0,0,0,940.168,339.711Z" transform="translate(-488.075 -198.121)" opacity="0.1"/>
    <path id="Caminho_325" data-name="Caminho 325" d="M894.13,398.022l11.183.38c.956.031,2.134.221,2.432,1.126.093.288.072.6.165.884.314,1.028,1.676,1.141,2.741,1.136.925,0,1.851.036,2.771.108a1.544,1.544,0,0,0-.164-.72c-.19-.36-.545-.607-.74-.967a2.628,2.628,0,0,1-.175-1.481q.355-4.818,1.162-9.589c.051-.288.1-.581.17-.869a5.324,5.324,0,0,0-2.915-.823c-.92.1-1.764.643-2.684.591-1.6-.077-2.7-1.861-4.293-1.964a2.643,2.643,0,0,1-1.028-.123c-.514-.257-.586-.926-.843-1.424a2.065,2.065,0,0,0-2.273-.725,33.285,33.285,0,0,1-.324,5.054,8.744,8.744,0,0,1-.514,2.149,10.238,10.238,0,0,1-1.136,1.98C896.48,394.52,895.328,396.253,894.13,398.022Z" transform="translate(-465.843 -228.759)" opacity="0.1"/>
    <path id="Caminho_326" data-name="Caminho 326" d="M931.877,319.21a6.086,6.086,0,0,1,3.98,4.334,19.758,19.758,0,0,1,.427,6.108,121.48,121.48,0,0,0,1.543,22.731c.586,3.6,1.337,7.2,1.116,10.854a9.409,9.409,0,0,1-1.841,5.527c-1.995,2.4-5.471,2.884-8.586,2.766-5.594-.221-11.085-1.856-16.684-1.825-1.064,0-2.422-.118-2.74-1.131-.093-.288-.072-.6-.165-.884-.293-.9-1.471-1.1-2.427-1.131l-11.188-.375c1.2-1.769,2.35-3.507,3.548-5.275a10.7,10.7,0,0,0,1.141-1.98,9.025,9.025,0,0,0,.514-2.154,32.529,32.529,0,0,0,.319-5.049,2.082,2.082,0,0,1,2.273.725c.262.514.345,1.167.849,1.424a2.529,2.529,0,0,0,1.028.118c1.594.1,2.7,1.892,4.293,1.969.92.051,1.769-.514,2.684-.591,1.45-.149,2.746.807,4.077,1.393a8.628,8.628,0,0,0,6.905,0c.329-.144.689-.55.422-.792-.18-.159-.478-.036-.694-.144-.411-.2-.113-.807.118-1.2.648-1.141.19-2.571-.437-3.743s-1.429-2.309-1.445-3.6a7.333,7.333,0,0,0,0-1.26,4.77,4.77,0,0,0-.936-1.63,7.311,7.311,0,0,1-.812-5.867,15.967,15.967,0,0,1,2.73-5.409C925.28,328.5,930.01,324.624,931.877,319.21Z" transform="translate(-466.416 -197.528)" fill="#454b69"/>
    <path id="Caminho_327" data-name="Caminho 327" d="M905.117,302.668l-2.607,1.481a24.584,24.584,0,0,0,2.452.977c5.872,1.974,3.779,4.71,9.975,4.627,4.221-.046,9.039-.37,11.99,2.643a13.7,13.7,0,0,1,2.761,5.239q.455,1.272.9,2.571,1.99-2.746,4.046-5.455a16.1,16.1,0,0,0,2.8-4.679,7.908,7.908,0,0,0-.458-5.851,25.437,25.437,0,0,0-2.54-3.6,42.723,42.723,0,0,0-2.936-3.949,6.113,6.113,0,0,0-4.273-2.149c-.951,0-2.057.267-2.72-.411-.242-.247-.37-.576-.617-.807-.7-.663-1.841-.211-2.679.262Z" transform="translate(-469.914 -184.78)" opacity="0.1"/>
    <path id="Caminho_328" data-name="Caminho 328" d="M877.177,204.233a8.462,8.462,0,0,1,.56-2.231,6.318,6.318,0,0,1,1.028-1.506,14.535,14.535,0,0,1,10.8-4.9,2.474,2.474,0,0,1,1.028.165,1.317,1.317,0,0,1,.231.139,31.867,31.867,0,0,1,9.548-4.7,13.969,13.969,0,0,1,6.725.093c2.674.8,3.6,2.936,4.746,5.265a23.847,23.847,0,0,0,8.072,9.275c2.226,1.5,4.859,2.792,5.928,5.25,1,2.293.319,4.921.087,7.414a20.474,20.474,0,0,0,7.712,17.754c3.039,2.35,7.1,4.324,7.743,8.108.463,2.7-1.054,5.28-2.2,7.764-2.417,5.255-3.244,11.661-.406,16.695a20.117,20.117,0,0,1,2.329,4.324c.756,2.812-.853,5.877-3.265,7.512a14.761,14.761,0,0,1-8.35,2.057c-2.118,0-4.411-.319-5.913-1.8a9.266,9.266,0,0,1-1.985-3.717q-1.846-5.2-3.681-10.407a13.853,13.853,0,0,0-2.761-5.234c-2.951-3.013-7.774-2.694-11.99-2.643-6.2.077-4.113-2.658-9.975-4.627-3.45-1.162-7.2-3.141-8-6.684-.787-3.465,1.584-6.766,3.671-9.641q2.345-3.213,4.437-6.607a19.2,19.2,0,0,0,3.028-7.07c.622-4.247-9.677-6.617-11.219-10.622A29.3,29.3,0,0,1,884,210.182c-.74-.051-1.429-.123-1.908-.144-1.969-.087-4.19-.859-4.864-2.715A5.936,5.936,0,0,1,877.177,204.233Z" transform="translate(-457.518 -135.155)" fill="#3f3d56"/>
    <g id="Grupo_23" data-name="Grupo 23" transform="translate(419.488 55.793)" opacity="0.1">
      <path id="Caminho_329" data-name="Caminho 329" d="M909.962,194.464a2.474,2.474,0,0,0-1.028-.165h-.144a26.708,26.708,0,0,1,7.054-3.121c.19-.046.4-.082.6-.118a41.133,41.133,0,0,0-6.247,3.568A1.725,1.725,0,0,0,909.962,194.464Z" transform="translate(-892.453 -191.06)"/>
      <path id="Caminho_330" data-name="Caminho 330" d="M877.188,208.707a8.47,8.47,0,0,1,.56-2.226,6.344,6.344,0,0,1,1.028-1.512,14.556,14.556,0,0,1,8.37-4.679,14.192,14.192,0,0,0-4.458,3.393,6.347,6.347,0,0,0-1.028,1.512,8.475,8.475,0,0,0-.56,2.226,6.241,6.241,0,0,0,.036,3.085c.673,1.851,2.895,2.627,4.864,2.71.478,0,1.167.093,1.907.149a29.526,29.526,0,0,0,1.111,3.46c1.542,4.005,11.826,6.376,11.219,10.623a19.049,19.049,0,0,1-3.028,7.07c-1.352,2.2-2.874,4.463-4.437,6.607-2.088,2.874-4.458,6.17-3.671,9.646s4.55,5.527,8,6.684c5.872,1.979,3.774,4.715,9.975,4.627,4.216-.051,9.039-.37,11.99,2.643a13.877,13.877,0,0,1,2.761,5.239q1.836,5.2,3.681,10.4a9.492,9.492,0,0,0,1.985,3.717c1.5,1.486,3.794,1.794,5.913,1.8a21.109,21.109,0,0,0,3.6-.272,15.774,15.774,0,0,1-7.507,1.542c-2.118,0-4.412-.319-5.913-1.8a9.232,9.232,0,0,1-1.985-3.717q-1.846-5.2-3.681-10.4a13.877,13.877,0,0,0-2.761-5.239c-2.951-3.013-7.774-2.694-11.99-2.643-6.2.077-4.113-2.658-9.975-4.627-3.45-1.162-7.2-3.142-8-6.684-.787-3.465,1.584-6.772,3.671-9.646q2.345-3.213,4.437-6.607a19.159,19.159,0,0,0,3.028-7.07c.622-4.247-9.676-6.617-11.219-10.623a29.515,29.515,0,0,1-1.11-3.46c-.741-.057-1.43-.129-1.908-.149-1.969-.082-4.19-.859-4.864-2.71a6.243,6.243,0,0,1-.041-3.069Z" transform="translate(-877.016 -195.544)"/>
    </g>
  </g>
</svg>
