<svg xmlns="http://www.w3.org/2000/svg" width="467.968" height="355.591" viewBox="0 0 467.968 355.591">
  <g id="Grupo_20" data-name="Grupo 20" transform="translate(0 0)">
    <path id="Caminho_201" data-name="Caminho 201" d="M616.368,456.646c-15.333,11.676-34.013,23.5-52.378,29.082a74.225,74.225,0,0,1-16.287,3.151,49.244,49.244,0,0,1-15.417-1.2c-13.255-3.3-25.549-9.07-37.444-15.816-3.887-2.207-7.728-4.516-11.547-6.874-6.234-3.853-12.407-7.84-18.6-11.733-.927-.59-1.848-1.168-2.774-1.741h-.006q-2.241-1.407-4.493-2.774c-.264-.163-.528-.32-.8-.483q-4.254-2.578-8.655-5.038c-.359-.2-.719-.4-1.078-.6a189.714,189.714,0,0,0-17.478-8.554c-3.92-1.651-7.891-3.14-11.9-4.409h-.006c-1.533-.483-3.072-.938-4.617-1.354a96.615,96.615,0,0,0-14.12-2.763,77.2,77.2,0,0,0-19.775.157c-.444.062-.882.124-1.325.2-17.748,2.842-33.945,12.423-51.772,14.681-.578.073-1.151.14-1.73.191-.247.022-.494.051-.741.067a70.871,70.871,0,0,1-15.546-.382c-14.395-1.9-28.413-7.79-41.033-15.215A172.92,172.92,0,0,1,198.876,350.3a167.068,167.068,0,0,1-6.644-16.248,156.4,156.4,0,0,1-8.8-47.655c-1.365-56.366,30.665-112.917,80.954-138.41s116.455-17.063,157.017,22.1c24.605,23.757,38.843,55.95,57.36,84.712s44.835,56.225,78.781,60.415c17.293,2.134,35.389-1.994,51.963,3.375a52.539,52.539,0,0,1,23.314,15.928,71.432,71.432,0,0,1,10.548,16.288,79.718,79.718,0,0,1,4.9,13.221c.23.837.444,1.674.651,2.51C657.177,400.257,643.984,435.607,616.368,456.646Z" transform="translate(-183.389 -133.445)" fill="#f2f2f2"/>
    <rect id="Retângulo_86" data-name="Retângulo 86" width="81.437" height="28.643" rx="14.322" transform="translate(89.674 262.156)" fill="#3f3d56"/>
    <path id="Caminho_202" data-name="Caminho 202" d="M421.341,638.217v23.83a70.514,70.514,0,0,1-16.287-.315V638.217Z" transform="translate(-280.559 -354.719)" fill="#3f3d56"/>
    <path id="Caminho_203" data-name="Caminho 203" d="M460.97,588.659c-.444.062-.882.124-1.325.2C441.9,591.7,425.7,601.279,407.873,603.536c-.578.073-1.151.14-1.73.191-.247.022-.494.051-.741.067-4.353-4.263-8.705-8.8-12.794-13.5-2.219-2.544-4.364-5.139-6.38-7.767a97.55,97.55,0,0,1-12.6-20.612c.3-3.286-1.747-10.885-2.724-16.7l-.006-.006a21.367,21.367,0,0,1-.432-5.931c1.191-7.874,7.621-6.97,9.6-14.687a43.529,43.529,0,0,1,5.678-3.993c.331-.2.668-.393,1.017-.59l21.454-14.827,8.2,8.043,12.48,12.244,13.524,13.26-11.48,11.6s9.593,11.059,20.809,25.8C454.753,580.083,457.881,584.312,460.97,588.659Z" transform="translate(-265.361 -296.399)" fill="#2f2e41"/>
    <path id="Caminho_204" data-name="Caminho 204" d="M848.341,638.217V707a74.229,74.229,0,0,1-16.287,3.151V638.217Z" transform="translate(-467.74 -354.719)" fill="#3f3d56"/>
    <rect id="Retângulo_87" data-name="Retângulo 87" width="81.437" height="28.643" rx="14.322" transform="translate(334.547 277.882)" fill="#3f3d56"/>
    <path id="Caminho_205" data-name="Caminho 205" d="M662.3,687.169q-4.254-2.578-8.655-5.038c-.359-.2-.719-.4-1.078-.6l1.932-.826,5.212-2.241.051-.022.056.191Z" transform="translate(-389.058 -372.354)" fill="#ffb6b6"/>
    <path id="Caminho_206" data-name="Caminho 206" d="M534.641,611.18c-.927-.59-1.848-1.168-2.774-1.741h-.006q-2.241-1.407-4.493-2.774c-.264-.163-.528-.32-.8-.483q-4.254-2.578-8.655-5.038c-.359-.2-.719-.4-1.078-.6a189.714,189.714,0,0,0-17.478-8.554c-3.92-1.651-7.891-3.14-11.9-4.409h-.006l-3.151-5.274L470.12,558.561,467,553.343s-10.632,3.145-25.678,6.161c-5.476,1.1-11.53,2.179-17.883,3.089-6.79.966-13.912,1.735-20.988,2.106-3.375.18-6.74.27-10.053.242a97.669,97.669,0,0,1-24-2.769c-2.4-2.258-9.649-5.33-14.838-8.144h-.006a21.458,21.458,0,0,1-4.937-3.314c-5.47-5.785-.8-10.295-5.661-16.608a43.81,43.81,0,0,1,.354-6.931c.051-.382.1-.769.163-1.163l1.533-26.037,11.39-1.505,17.332-2.291,18.775-2.482,2.067,16.186s14.619-.741,33.142-.494c29.75.4,69.559,3.37,74.95,16.1.505,1.2,1.011,2.4,1.516,3.611q1.8,4.33,3.572,8.705c4.274,10.559,8.352,21.219,12.075,31.294,2.314,6.268,4.493,12.311,6.5,17.967,1.612,4.549,3.106,8.851,4.471,12.811,1.247,3.617,2.376,6.947,3.381,9.935C534.338,610.276,534.489,610.737,534.641,611.18Z" transform="translate(-253.331 -291.366)" fill="#2f2e41"/>
    <path id="Caminho_207" data-name="Caminho 207" d="M469.629,379.653,433.653,349.1l23.406-23.688,16.33,26.747,60.53,12a11.738,11.738,0,1,1-1.668,17.23Z" transform="translate(-293.095 -217.596)" fill="#a0616a"/>
    <path id="Caminho_208" data-name="Caminho 208" d="M376.8,283.81c-4.158,13.526,35.439,45.785,35.439,45.785.44-3.247,22.89,24.753,24.417,22.217,4.341-7.207,9.117-25.022,14.129-27.3,2.866-1.3-13.575-19.4-13.575-19.4s-8.387-11.1-19.46-25.158a30,30,0,0,0-26.444-11.773S380.961,270.284,376.8,283.81Z" transform="translate(-268.041 -192.461)" fill="#3f3d56"/>
    <circle id="Elipse_71" data-name="Elipse 71" cx="24.332" cy="24.332" r="24.332" transform="translate(101.938 12.741)" fill="#a0616a"/>
    <path id="Caminho_209" data-name="Caminho 209" d="M381.478,262.182c5.242,3.116,8.378,8.842,10.178,14.669a139.014,139.014,0,0,1,5.974,33.214l1.9,33.748,23.547,71.86c-20.408,17.268-97.118,3.925-97.118,3.925s-2.355-.785,0-3.14,4.647-.269,2.292-2.623-.731.269.053-2.086,0-.785-.785-1.57,6.076-7.849,6.076-7.849l-6.279-41.248-7.849-83.2c9.419-11.774,28.362-18.714,28.362-18.714l4.895-8.81,24.473,1.958Z" transform="translate(-243.042 -184.694)" fill="#3f3d56"/>
    <path id="Caminho_210" data-name="Caminho 210" d="M406.583,161.436a11.276,11.276,0,0,1,4.006,5.627,79.2,79.2,0,0,0,.052-11.041c-.287-2.584-2.106-3.165-4.212-3.839-1.9-.608-4.054-1.3-4.633-3.8-7.649-7.441-20.964-7.066-30.076-4.47-5.014,1.428-7.9,3.263-8.157,4.338l-.054.221-.2.1c-3.865,1.932-4.617,8.035-4.568,12.814.094,9,3.2,19.23,4.954,20.061.093.044.116.027.156-.007h0c2.637-2.107,5.854.16,7.268,1.393a25.307,25.307,0,0,1,22.66-21.465,39.706,39.706,0,0,0,5.461-.916,11.5,11.5,0,0,1,2.79-.366A7.94,7.94,0,0,1,406.583,161.436Z" transform="translate(-260.255 -137.29)" fill="#2f2e41"/>
    <path id="Caminho_211" data-name="Caminho 211" d="M382.86,481.4l-7.443-3.812a2.04,2.04,0,0,1,1.84-3.593L384.7,477.8a2.04,2.04,0,0,1-1.84,3.593Z" transform="translate(-267.191 -282.681)" fill="#6c63ff"/>
    <path id="Caminho_212" data-name="Caminho 212" d="M335.178,428.665l-12.244-45.584,32.72-6.194-1.76,31.288,42.992,44.267a11.738,11.738,0,1,1-11.162,13.231Z" transform="translate(-244.56 -240.161)" fill="#a0616a"/>
    <path id="Caminho_213" data-name="Caminho 213" d="M313.668,292.546c-11.106,8.768,3.149,57.812,3.149,57.812,2.207-2.422,4.772,33.375,7.469,32.156,7.667-3.464,21.72-15.41,27.138-14.436,3.1.557-.148-23.678-.148-23.678s-.6-13.9-1.719-31.759a30,30,0,0,0-15.072-24.713S324.774,283.778,313.668,292.546Z" transform="translate(-238.642 -200.734)" fill="#3f3d56"/>
    <path id="Caminho_214" data-name="Caminho 214" d="M650.268,507.381l-444.49-.505a167.061,167.061,0,0,1-6.644-16.248l440.587.466a71.431,71.431,0,0,1,10.547,16.288Z" transform="translate(-190.291 -290.021)" fill="#3f3d56"/>
    <path id="Caminho_215" data-name="Caminho 215" d="M735.874,722.566q-3.446,1.668-6.953,3.218c-3.887-2.207-7.728-4.516-11.547-6.874l14.164-6.223Z" transform="translate(-417.468 -387.364)" fill="#ffb6b6"/>
    <path id="Caminho_216" data-name="Caminho 216" d="M784.2,563.65q-3.454,4.633-7.127,9.082-3.387,4.1-6.953,8.048c-.983,1.09-1.977,2.174-2.994,3.246q-2.805,3.008-5.734,5.914c-3.516,1.106-10.637,3.055-18.27,4.875-5.555,1.32-11.379,2.572-16.287,3.37a58.669,58.669,0,0,1-8.318.887c-3.314.028-6.678-.062-10.053-.242-3.808-.2-7.621-.517-11.39-.921-9.8-1.028-19.292-2.628-27.481-4.274-3-.6-5.819-1.2-8.413-1.792-4.914-1.106-9.025-2.14-12-2.926-3.353-.876-5.263-1.443-5.263-1.443l-8.4,14.063-4.358,7.3-3.2,5.364-.854,1.421c-.359-.2-.719-.4-1.078-.6a189.689,189.689,0,0,0-17.478-8.554c-3.92-1.651-7.891-3.14-11.9-4.409h-.006c-1.533-.483-3.072-.938-4.617-1.354q.725-1.946,1.466-3.92,1.382-3.682,2.819-7.43c2.072-5.414,4.218-10.907,6.425-16.372,1.808-4.487,3.651-8.958,5.515-13.367a12.532,12.532,0,0,1,5.049-5.386,29.381,29.381,0,0,1,3.645-1.954c6.992-3.185,17.293-5.257,28.643-6.588.938-.107,1.881-.213,2.831-.315,9.4-.988,19.365-1.5,28.688-1.735,4.667-.118,9.172-.163,13.361-.169q2.03,0,3.948.011h.006c3.454.017,6.633.067,9.43.124.545.011,1.073.028,1.589.039h.006c.348.006.691.017,1.028.022,6.116.157,9.868.348,9.868.348L717.8,532.6l.3-2.3.281-2.19V528.1l.034-.275.23-.006,4.044-.079,33.99-.663,18.568-.365L772.3,539.332l-4.858,20.814C767.934,563.437,784.367,560.859,784.2,563.65Z" transform="translate(-362.52 -305.841)" fill="#2f2e41"/>
    <path id="Caminho_217" data-name="Caminho 217" d="M705.9,675.109c-1.387.708-2.786,1.4-4.19,2.078q-3.446,1.668-6.953,3.218c-3.887-2.207-7.728-4.516-11.547-6.874-6.234-3.853-12.407-7.84-18.6-11.733-.927-.59-1.848-1.168-2.774-1.741h-.006c-2.55-3.785-5.15-7.728-7.773-11.789-.039-.056-.073-.112-.107-.169q-1.011-1.55-2.011-3.123c-4.2-6.571-8.413-13.423-12.508-20.421l10.368-4.841,19.275-9,3.325-1.55,9.559,18.82,8.526,16.787,1.9,3.735Z" transform="translate(-383.302 -341.984)" fill="#2f2e41"/>
    <path id="Caminho_218" data-name="Caminho 218" d="M747.976,491.783,797.12,444.39l13.621-38.567-20.091-8.736c-10.32,9.886-21.475,40.676-21.475,40.676l-33.818,43.024c-.264.09-.526.186-.786.3a9.678,9.678,0,1,0,13.405,10.7Z" transform="translate(-422.476 -249.016)" fill="#ffb8b8"/>
    <path id="Caminho_219" data-name="Caminho 219" d="M828.86,368.986l25.484,8.09.1-.016c9.485-1.589,17.356-17.081,22.288-29.8a17.746,17.746,0,0,0-9.035-22.479h0a17.785,17.785,0,0,0-18.627,2.35l-13.086,10.693Z" transform="translate(-466.34 -216.61)" fill="#6c63ff"/>
    <path id="Caminho_220" data-name="Caminho 220" d="M855.068,447.851l.149-.2c7.951-10.545-2.924-36.66-4.568-40.447l7.393-2.19-1.289-14.077-.621-6.277,5.748-5.459.019-.139,3.953-28.134,5.173-18.62a41.159,41.159,0,0,0-10.649-40.176l-10.574-10.5-12.668-19.829-21.241-.548-7.638,13.569a30.969,30.969,0,0,0-24.77,30.99l.719,36.122-7.622,44.755-.214,8.13-7.481,7.894,1.383,7.981-5.6,2.229-2.738,11.34c-1.046,1.308-7.951,10.036-8.014,12.47-.009.365.251.725.82,1.132,4.47,3.2,29.451,10.127,40.694,5.961,11.976-4.434,58.913,3.893,59.386,3.978Z" transform="translate(-433.491 -189.473)" fill="#025ded"/>
    <circle id="Elipse_72" data-name="Elipse 72" cx="28.14" cy="28.14" r="28.14" transform="translate(363.028 9.425)" fill="#ffb8b8"/>
    <path id="Caminho_221" data-name="Caminho 221" d="M846.9,200.617a76.534,76.534,0,0,0,13.019-.91c4.268-.868,13.816-7.865,16.478-12.075h0c1.978-3.128,3.242-8.013,3.955-11.56a34.211,34.211,0,0,0-5.983-27.16,10.809,10.809,0,0,0-4.366-3.726c-.156-.061-.317-.115-.48-.162a13.336,13.336,0,0,1-6.634-4.1,10.992,10.992,0,0,0-1.1-1.135,16.426,16.426,0,0,0-6.854-3.441c-4.074-1.09-9.97-.008-17.524,3.22-3.8,1.622-7.946,1.035-11.139.342a1.045,1.045,0,0,0-.984.337,7.375,7.375,0,0,1-5.013,2c-1.141.05-2.339,1.63-3.786,3.691-.328.468-.712,1.014-.988,1.346l-.037-.638-.646.712a8.95,8.95,0,0,0,4.041,14.581,17.451,17.451,0,0,0,3.51.559c.719.065,1.462.132,2.174.255a13.493,13.493,0,0,1,10.027,8.756,3.529,3.529,0,0,0,5.326,1.713,5.83,5.83,0,0,1,5.313-.967,3.87,3.87,0,0,1,1.711,1.94,5.043,5.043,0,0,0,1.914,2.233c2.892,1.491,3.092,8.1,2.053,13.6-1,5.308-2.981,9.148-4.813,9.338-1.411.146-1.572.246-1.674.5l-.091.223.158.209a5.763,5.763,0,0,0,2.436.326Z" transform="translate(-459.168 -134.535)" fill="#2f2e41"/>
    <path id="Caminho_222" data-name="Caminho 222" d="M738.654,372.721,727.8,351.089c-15.749,1.076-47.006,19.285-47.006,19.285l-59.14,12.539a10.684,10.684,0,1,0,2.913,18.258l75.229-5.392Z" transform="translate(-369.146 -228.852)" fill="#ffb8b8"/>
    <path id="Caminho_223" data-name="Caminho 223" d="M817.978,346.149l28.337-21.058,4.991-17.988a19.647,19.647,0,0,0-5.909-19.879h0a19.6,19.6,0,0,0-26.747.863c-10.664,10.644-22.826,25.493-20.213,35.789l.026.1Z" transform="translate(-452.846 -198.729)" fill="#015eed"/>
    <rect id="Retângulo_88" data-name="Retângulo 88" width="75.821" height="10.109" transform="translate(254.233 203.746)" fill="#fff"/>
    <rect id="Retângulo_89" data-name="Retângulo 89" width="75.821" height="10.109" transform="translate(60.468 203.746)" fill="#fff"/>
    <path id="Caminho_224" data-name="Caminho 224" d="M441.818,407.852v48.134a2.315,2.315,0,0,0,2.313,2.313h71.33a2.315,2.315,0,0,0,2.313-2.313V407.852a2.316,2.316,0,0,0-2.313-2.311h-71.33A2.316,2.316,0,0,0,441.818,407.852Z" transform="translate(-296.675 -252.722)" fill="#3f3d56"/>
    <path id="Caminho_225" data-name="Caminho 225" d="M444.8,409.755V456.7a1.238,1.238,0,0,0,1.236,1.236h70.14a1.239,1.239,0,0,0,1.236-1.236V409.755a1.239,1.239,0,0,0-1.236-1.239h-70.14A1.239,1.239,0,0,0,444.8,409.755Z" transform="translate(-297.981 -254.026)" fill="#0061ed"/>
    <path id="Caminho_226" data-name="Caminho 226" d="M438.915,505.894a1.387,1.387,0,0,0,1.091.522h76.378a1.405,1.405,0,0,0,1.374-1.694l-1.186-5.632a1.408,1.408,0,0,0-.875-1.021,1.362,1.362,0,0,0-.5-.094H441.187a1.362,1.362,0,0,0-.5.094,1.408,1.408,0,0,0-.875,1.021l-1.186,5.632A1.4,1.4,0,0,0,438.915,505.894Z" transform="translate(-295.264 -293.242)" fill="#2f2e41"/>
    <rect id="Retângulo_90" data-name="Retângulo 90" width="2.352" height="1.411" rx="0.488" transform="translate(219.393 207.159) rotate(180)" fill="#3f3d56"/>
    <rect id="Retângulo_91" data-name="Retângulo 91" width="2.352" height="1.411" rx="0.488" transform="translate(214.688 207.159) rotate(180)" fill="#3f3d56"/>
    <rect id="Retângulo_92" data-name="Retângulo 92" width="2.352" height="1.411" rx="0.488" transform="translate(209.983 207.159) rotate(180)" fill="#3f3d56"/>
    <rect id="Retângulo_93" data-name="Retângulo 93" width="2.352" height="1.411" rx="0.488" transform="translate(205.278 207.159) rotate(180)" fill="#3f3d56"/>
    <rect id="Retângulo_94" data-name="Retângulo 94" width="2.352" height="1.411" rx="0.488" transform="translate(200.573 207.159) rotate(180)" fill="#3f3d56"/>
    <rect id="Retângulo_95" data-name="Retângulo 95" width="2.352" height="1.411" rx="0.488" transform="translate(195.869 207.159) rotate(180)" fill="#3f3d56"/>
    <rect id="Retângulo_96" data-name="Retângulo 96" width="2.352" height="1.411" rx="0.488" transform="translate(191.164 207.159) rotate(180)" fill="#3f3d56"/>
    <rect id="Retângulo_97" data-name="Retângulo 97" width="2.352" height="1.411" rx="0.488" transform="translate(186.459 207.159) rotate(180)" fill="#3f3d56"/>
    <rect id="Retângulo_98" data-name="Retângulo 98" width="2.352" height="1.411" rx="0.488" transform="translate(181.754 207.159) rotate(180)" fill="#3f3d56"/>
    <rect id="Retângulo_99" data-name="Retângulo 99" width="2.352" height="1.411" rx="0.488" transform="translate(177.049 207.159) rotate(180)" fill="#3f3d56"/>
    <rect id="Retângulo_100" data-name="Retângulo 100" width="2.352" height="1.411" rx="0.488" transform="translate(172.344 207.159) rotate(180)" fill="#3f3d56"/>
    <rect id="Retângulo_101" data-name="Retângulo 101" width="2.352" height="1.411" rx="0.488" transform="translate(167.64 207.159) rotate(180)" fill="#3f3d56"/>
    <rect id="Retângulo_102" data-name="Retângulo 102" width="2.352" height="1.411" rx="0.488" transform="translate(162.935 207.159) rotate(180)" fill="#3f3d56"/>
    <rect id="Retângulo_103" data-name="Retângulo 103" width="2.352" height="1.411" rx="0.488" transform="translate(158.23 207.159) rotate(180)" fill="#3f3d56"/>
    <rect id="Retângulo_104" data-name="Retângulo 104" width="2.352" height="1.411" rx="0.488" transform="translate(153.525 207.159) rotate(180)" fill="#3f3d56"/>
    <rect id="Retângulo_105" data-name="Retângulo 105" width="2.352" height="1.411" rx="0.488" transform="translate(148.82 207.159) rotate(180)" fill="#3f3d56"/>
    <rect id="Retângulo_106" data-name="Retângulo 106" width="2.352" height="1.411" rx="0.488" transform="translate(219.448 209.512) rotate(180)" fill="#3f3d56"/>
    <rect id="Retângulo_107" data-name="Retângulo 107" width="2.352" height="1.411" rx="0.488" transform="translate(214.743 209.512) rotate(180)" fill="#3f3d56"/>
    <rect id="Retângulo_108" data-name="Retângulo 108" width="2.352" height="1.411" rx="0.488" transform="translate(210.039 209.512) rotate(180)" fill="#3f3d56"/>
    <rect id="Retângulo_109" data-name="Retângulo 109" width="2.352" height="1.411" rx="0.488" transform="translate(205.334 209.512) rotate(180)" fill="#3f3d56"/>
    <rect id="Retângulo_110" data-name="Retângulo 110" width="2.352" height="1.411" rx="0.488" transform="translate(200.629 209.512) rotate(180)" fill="#3f3d56"/>
    <rect id="Retângulo_111" data-name="Retângulo 111" width="2.352" height="1.411" rx="0.488" transform="translate(195.924 209.512) rotate(180)" fill="#3f3d56"/>
    <rect id="Retângulo_112" data-name="Retângulo 112" width="2.352" height="1.411" rx="0.488" transform="translate(191.219 209.512) rotate(180)" fill="#3f3d56"/>
    <rect id="Retângulo_113" data-name="Retângulo 113" width="2.352" height="1.411" rx="0.488" transform="translate(186.515 209.512) rotate(180)" fill="#3f3d56"/>
    <rect id="Retângulo_114" data-name="Retângulo 114" width="2.352" height="1.411" rx="0.488" transform="translate(181.81 209.512) rotate(180)" fill="#3f3d56"/>
    <rect id="Retângulo_115" data-name="Retângulo 115" width="2.352" height="1.411" rx="0.488" transform="translate(177.105 209.512) rotate(180)" fill="#3f3d56"/>
    <rect id="Retângulo_116" data-name="Retângulo 116" width="2.352" height="1.411" rx="0.488" transform="translate(172.4 209.512) rotate(180)" fill="#3f3d56"/>
    <rect id="Retângulo_117" data-name="Retângulo 117" width="2.352" height="1.411" rx="0.488" transform="translate(167.695 209.512) rotate(180)" fill="#3f3d56"/>
    <rect id="Retângulo_118" data-name="Retângulo 118" width="2.352" height="1.411" rx="0.488" transform="translate(162.99 209.512) rotate(180)" fill="#3f3d56"/>
    <rect id="Retângulo_119" data-name="Retângulo 119" width="2.352" height="1.411" rx="0.488" transform="translate(158.286 209.512) rotate(180)" fill="#3f3d56"/>
    <rect id="Retângulo_120" data-name="Retângulo 120" width="2.352" height="1.411" rx="0.488" transform="translate(153.581 209.512) rotate(180)" fill="#3f3d56"/>
    <rect id="Retângulo_121" data-name="Retângulo 121" width="2.352" height="1.411" rx="0.488" transform="translate(148.876 209.512) rotate(180)" fill="#3f3d56"/>
    <rect id="Retângulo_122" data-name="Retângulo 122" width="18.819" height="1.411" rx="0.488" transform="translate(196.865 212.335) rotate(180)" fill="#3f3d56"/>
  </g>
</svg>
