<svg xmlns="http://www.w3.org/2000/svg" data-name="Layer 1" viewBox="0 0 32 32"><path d="M29.5,0H2.5A2.5,2.5,0,0,0,0,2.5v27A2.5,2.5,0,0,0,2.5,32h27A2.5,2.5,0,0,0,32,29.5V2.5A2.5,2.5,0,0,0,29.5,0ZM1,2.5A1.5,1.5,0,0,1,2.5,1h13V4.858a2.883,2.883,0,1,0-1.376,5.6,2.694,2.694,0,0,0,1.354,0l.022,0V15.5H9.7a.5.5,0,0,0-.416.777,1.26,1.26,0,0,1,.17.393.568.568,0,0,0,.016.079,1.654,1.654,0,0,1,.016.871,1.886,1.886,0,0,1-3.722-.428,1.526,1.526,0,0,1,.072-.476,1.741,1.741,0,0,1,.2-.471A.5.5,0,0,0,5.6,15.5H1ZM15.748,25.965a.5.5,0,0,0-.248.432V31H2.5A1.5,1.5,0,0,1,1,29.5v-13H4.863a2.449,2.449,0,0,0-.094.692A2.881,2.881,0,0,0,7.65,20.075a3.021,3.021,0,0,0,.817-.113,2.9,2.9,0,0,0,2-2.112,2.683,2.683,0,0,0-.012-1.317l-.006-.032H15.5v5.795a.5.5,0,0,0,.777.416,1.768,1.768,0,0,1,.331-.166.493.493,0,0,0,.141-.021,1.673,1.673,0,0,1,.871-.017,1.886,1.886,0,0,1,1.075,2.977,1.781,1.781,0,0,1-1.978.675,1.758,1.758,0,0,1-.472-.2A.5.5,0,0,0,15.748,25.965ZM31,29.5A1.5,1.5,0,0,1,29.5,31h-13V27.137a2.424,2.424,0,0,0,.692.094,2.862,2.862,0,0,0,2.3-1.143,2.885,2.885,0,0,0-1.643-4.553,2.646,2.646,0,0,0-1.334.017l-.015,0V16.5h5.8a.5.5,0,0,0,.42-.771,1.643,1.643,0,0,1-.173-.373.465.465,0,0,0-.018-.093,1.716,1.716,0,0,1-.011-.9,1.886,1.886,0,0,1,2.98-1.049,1.852,1.852,0,0,1,.468,2.44.5.5,0,0,0,.435.747H31Zm0-14H27.142a2.694,2.694,0,0,0,.089-.692A2.863,2.863,0,0,0,26.1,12.52a2.886,2.886,0,0,0-4.561,1.6,2.71,2.71,0,0,0,0,1.353l0,.023H16.5V9.705a.5.5,0,0,0-.769-.422,1.616,1.616,0,0,1-.375.174.514.514,0,0,0-.094.019,1.727,1.727,0,0,1-.9.012,1.886,1.886,0,0,1-1.05-2.98,1.847,1.847,0,0,1,2.442-.469.494.494,0,0,0,.5,0A.5.5,0,0,0,16.5,5.6V1h13A1.5,1.5,0,0,1,31,2.5Z"/></svg>