<svg xmlns="http://www.w3.org/2000/svg" viewBox="0 0 64 64"><path d="M34.52 25.98535a.746.746 0 0 1-.75-.74512V25.23a.73823.73823 0 0 1 .02246-.18213 3.37158 3.37158 0 0 0-.11768-1.9917.75041.75041 0 0 1 .70508-1.00635h5.96a.75.75 0 0 1 0 1.5h-4.999a4.64248 4.64248 0 0 1 .04932.67041 4.9298 4.9298 0 0 1-.1377 1.17286A.75373.75373 0 0 1 34.52 25.98535zM22.74023 23.5498H20.68994a.75019.75019 0 0 1-.75-.75V4a.7502.7502 0 0 1 .75-.75h19.6499a.75.75 0 0 1 0 1.5H21.43994V22.0498h1.30029a.75.75 0 0 1 0 1.5z"/><path d="M60,24.9502a.73337.73337,0,0,1-.75-.73V4.75H41.08984v5.49023a.75.75,0,1,1-1.5,0V4a.7502.7502,0,0,1,.75-.75H60a.7502.7502,0,0,1,.75.75V24.18018A.76755.76755,0,0,1,60,24.9502Z"/><path d="M34.62012,15a.75019.75019,0,0,1-.75-.75,5.03059,5.03059,0,0,1,5.02-5.02979,5.08219,5.08219,0,0,1,1.70117.31348.75.75,0,0,1-.50293,1.41309,3.642,3.642,0,0,0-1.19824-.22657,3.529,3.529,0,0,0-3.52,3.52979A.7502.7502,0,0,1,34.62012,15Z"/><path d="M38.89014,19.27a5.02568,5.02568,0,0,1-5.02-5.02.75.75,0,0,1,1.5,0,3.522,3.522,0,0,0,4.71826,3.30322.75.75,0,0,1,.50293,1.41309A5.13454,5.13454,0,0,1,38.89014,19.27Z"/><path d="M40.39014,24.97021h-.0503a.75019.75019,0,0,1-.75-.75V18.25977a.75.75,0,1,1,1.5,0V24.0332a.6968.6968,0,0,1,.02539.187A.72932.72932,0,0,1,40.39014,24.97021Z"/><path d="M40.38867,29.20264a.7502.7502,0,0,1-.75-.75V24.17822a.7502.7502,0,0,1,.75-.75h5.96094a.75.75,0,0,1,0,1.5H41.13867v3.52442A.7502.7502,0,0,1,40.38867,29.20264Z"/><path d="M44.66309,33.47705a.75019.75019,0,0,1-.75-.75,3.52842,3.52842,0,0,0-3.52442-3.52441.75.75,0,0,1,0-1.5,5.03006,5.03006,0,0,1,5.02442,5.02441A.7502.7502,0,0,1,44.66309,33.47705Z"/><path d="M40.38867,37.75146a.75.75,0,0,1,0-1.5,3.52842,3.52842,0,0,0,3.52442-3.52441.75.75,0,0,1,1.5,0A5.03006,5.03006,0,0,1,40.38867,37.75146Z"/><path d="M60,43.75H40.38867a.7502.7502,0,0,1-.75-.75V37.00146a.75.75,0,0,1,1.5,0V42.25H59.25V24.92822H54.375a.75.75,0,0,1,0-1.5H60a.7502.7502,0,0,1,.75.75V43A.7502.7502,0,0,1,60,43.75Z"/><path d="M54.375,24.92822a.75.75,0,0,1-.70654-1.00146,3.46621,3.46621,0,0,0,.21826-1.17334A3.52843,3.52843,0,0,0,50.3623,19.229a.75.75,0,1,1,0-1.5,5.03006,5.03006,0,0,1,5.02442,5.02442,4.93661,4.93661,0,0,1-.30518,1.67627A.74939.74939,0,0,1,54.375,24.92822Z"/><path d="M46.34961 24.92822a.74939.74939 0 0 1-.70654-.49853 4.93637 4.93637 0 0 1-.30518-1.67627A5.03006 5.03006 0 0 1 50.3623 17.729a.75.75 0 0 1 0 1.5 3.52842 3.52842 0 0 0-3.52441 3.52442 3.46621 3.46621 0 0 0 .21826 1.17334.75.75 0 0 1-.70654 1.00146zM15.61035 44.00977a.74991.74991 0 0 1-.67286-.418L9.54785 32.68213a.74952.74952 0 0 1 .33936-1.00391l5.38965-2.66992a.74987.74987 0 1 1 .666 1.34375l-4.71826 2.3374 5.05762 10.23828a.75012.75012 0 0 1-.67188 1.082z"/><path d="M19.4541,32.813A5.03877,5.03877,0,0,1,14.938,30.01318a.74987.74987,0,1,1,1.34375-.666,3.53314,3.53314,0,0,0,4.7251,1.60107.74987.74987,0,1,1,.666,1.34375A4.984,4.984,0,0,1,19.4541,32.813Z"/><path d="M21.34033,32.37012a.75.75,0,0,1-.33447-1.42139,3.53522,3.53522,0,0,0,1.59228-4.72559.74987.74987,0,1,1,1.34375-.666,5.03662,5.03662,0,0,1-2.26806,6.73437A.74122.74122,0,0,1,21.34033,32.37012Z"/><path d="M29.75049,30.08984a.74964.74964,0,0,1-.67236-.417L26.77,25.00537l-3.16943,1.55811a.75011.75011,0,0,1-.66114-1.34668l3.83741-1.88867a.75.75,0,0,1,1.00537.33935l2.63965,5.33936a.7501.7501,0,0,1-.67139,1.083Z"/><path d="M36.63037,31.16992a.75006.75006,0,0,1-.67432-.4209,3.47439,3.47439,0,0,0-3.64746-1.92675,3.52558,3.52558,0,0,0-1.00634.30517c-.02.00928-.04053.01807-.06153.02588a3.50086,3.50086,0,0,0-.95263.709.75.75,0,1,1-1.07618-1.04492,4.88788,4.88788,0,0,1,1.36866-1.01123c.02343-.01123.05029-.02295.07959-.03418a5.00067,5.00067,0,0,1,6.64355,2.31885.75008.75008,0,0,1-.67334,1.0791Z"/><path d="M33.29883,37.29a.7501.7501,0,0,1-.09424-1.49414,3.42808,3.42808,0,0,0,1.1543-.32373,3.51688,3.51688,0,0,0,1.59961-4.71778.75009.75009,0,0,1,1.34277-.66894A5.0172,5.0172,0,0,1,35.03174,36.813a4.86947,4.86947,0,0,1-1.63672.47119A.8.8,0,0,1,33.29883,37.29Z"/><path d="M19.18994 51.25a.7494.7494 0 0 1-.67285-.41846l-1.06982-2.16992a.7501.7501 0 1 1 1.3457-.66308l.73779 1.49658 15.544-7.68506-2.44678-4.937a.74987.74987 0 1 1 1.34375-.666L36.752 41.81689a.75.75 0 0 1-.33935 1.00538L19.52246 51.17236A.74838.74838 0 0 1 19.18994 51.25zM13.07227 45.99854a.74954.74954 0 0 1-.70215-.48682c-.00391-.00977-.373-.99268-.67188-1.59815a3.53557 3.53557 0 0 0-1.17187-.9497.75.75 0 0 1 .71191-1.32032 4.73765 4.73765 0 0 1 1.80469 1.606c.333.67334.71533 1.69287.73144 1.73584a.75023.75023 0 0 1-.70214 1.01319z"/><path d="M17.41064,54.92578a4.80786,4.80786,0,0,1-2.689-.80322.75269.75269,0,1,1,.90381-1.20117,3.54726,3.54726,0,0,0,3.479.09765A3.47118,3.47118,0,0,0,21.125,49.3291a.7498.7498,0,0,1,1.46973-.29785,4.96771,4.96771,0,0,1-2.8208,5.33008A5.28828,5.28828,0,0,1,17.41064,54.92578Z"/><path d="M4,60.46a.75015.75015,0,0,1-.75-.75V46.62012a.74757.74757,0,0,1,.14941-.44873l4.75977-6.37012a3.02341,3.02341,0,0,1,2.39062-1.24121L13.022,38.5a.77558.77558,0,0,1,.76807.73193A.75072.75072,0,0,1,13.05811,40l-2.48.06006a1.52484,1.52484,0,0,0-1.21094.62988L4.75,46.86914V58.83643c1.24023-.19336,1.981-.3252,2.23-.38477l7.25586-5.15283a1.96492,1.96492,0,0,0,.34082-.30322,2.13454,2.13454,0,0,0,.56445-1.34864,3.6119,3.6119,0,0,1,1.00782-2.34668l6.33935-6.62939a1.80739,1.80739,0,0,0,.502-1.24072,1.77434,1.77434,0,0,0-.55029-1.28955,1.7954,1.7954,0,0,0-2.502.01269c-.96582.95606-2.41211,2.37549-3.82324,3.66064-2.98926,2.72022-3.95411,3.22461-4.46045,3.36084a.75021.75021,0,1,1-.38867-1.44921c.17285-.0459.96-.40088,3.83935-3.02051,1.38965-1.26612,2.82129-2.67139,3.77734-3.61768a3.30356,3.30356,0,0,1,4.59961-.02588,3.28565,3.28565,0,0,1,.08887,4.648L17.231,50.33936a2.111,2.111,0,0,0-.59131,1.37255,3.62217,3.62217,0,0,1-.94678,2.28516,3.40841,3.40841,0,0,1-.58984.52539L7.75391,59.74121c-.18164.12207-.31153.209-3.64209.71045A.78888.78888,0,0,1,4,60.46Z"/></svg>