<svg xmlns="http://www.w3.org/2000/svg" viewBox="0 0 62 62">
  <g id="Grupo_29" data-name="Grupo 29" transform="translate(-1 -1)">
    <path id="Caminho_339" data-name="Caminho 339" d="M25.9,19.8a20.123,20.123,0,0,0,2.3-.5.962.962,0,0,0-.3-1.9,17.417,17.417,0,0,0-2.2.5.949.949,0,0,0-.7,1.2A.961.961,0,0,0,25.9,19.8Z" fill="#f7a600"/>
    <path id="Caminho_340" data-name="Caminho 340" d="M62.7,31.2C62,30.7,46.2,17,32,17a1,1,0,0,0,0,2c11.6,0,24.9,10.1,28.4,13C56.9,34.9,43.6,45,32,45S7.1,34.9,3.6,32c2.6-2.1,10.3-8,18.8-11.1a1.012,1.012,0,0,0-.7-1.9C11,22.9,1.7,30.9,1.3,31.2a1.217,1.217,0,0,0,0,1.6C2,33.3,17.8,47,32,47S62,33.3,62.7,32.8a1.217,1.217,0,0,0,0-1.6Z" fill="#f7a600"/>
    <path id="Caminho_341" data-name="Caminho 341" d="M32,43a1,1,0,0,0,0-2,9,9,0,1,1,9-9,9.1,9.1,0,0,1-5,8.1.985.985,0,0,0,.8,1.8A11,11,0,1,0,32,43ZM32,7a.945.945,0,0,0,1-1V2a1,1,0,0,0-2,0V6A.945.945,0,0,0,32,7ZM13.1,12.4a.883.883,0,0,0,1.3.4.9.9,0,0,0,.4-1.3l-2-4a.883.883,0,0,0-1.3-.4.883.883,0,0,0-.4,1.3Zm36.5.5a1.013,1.013,0,0,0,1.3-.4l2-4a1.053,1.053,0,0,0-.4-1.3,1.053,1.053,0,0,0-1.3.4l-2,4A.922.922,0,0,0,49.6,12.9ZM32,57a.945.945,0,0,0-1,1v4a1,1,0,0,0,2,0V58A.945.945,0,0,0,32,57ZM14.4,51.1a1.053,1.053,0,0,0-1.3.4l-2,4a1.053,1.053,0,0,0,.4,1.3,1.013,1.013,0,0,0,1.3-.4l2-4A.922.922,0,0,0,14.4,51.1Zm36.5.5a.962.962,0,1,0-1.7.9l2,4a.862.862,0,0,0,1.3.4.883.883,0,0,0,.4-1.3Z" fill="#f7a600"/>
    <path id="Caminho_342" data-name="Caminho 342" d="M37,32a1,1,0,0,0,2,0,6.957,6.957,0,0,0-7-7,1,1,0,0,0,0,2A4.951,4.951,0,0,1,37,32Zm-9.8,1.6a1.012,1.012,0,0,0-1.9.7,7.21,7.21,0,0,0,6.6,4.6,1,1,0,1,0,0-2A5.013,5.013,0,0,1,27.2,33.6ZM14.9,27.7a.984.984,0,0,0-1.4-.3c-3.1,1.9-6,3.8-6,3.8A.891.891,0,0,0,7,32a1.234,1.234,0,0,0,.4.8l3,2a1.044,1.044,0,0,0,1.4-.3.984.984,0,0,0-.3-1.4L9.8,32c1.1-.7,2.9-1.8,4.7-3A.984.984,0,0,0,14.9,27.7Z" fill="#f7a600"/>
  </g>
</svg>
